<mxfile host="Electron" agent="Mozilla/5.0 (Windows NT 10.0; Win64; x64) AppleWebKit/537.36 (KHTML, like Gecko) draw.io/28.1.2 Chrome/138.0.7204.243 Electron/37.4.0 Safari/537.36" version="28.1.2" pages="4">
  <diagram name="Page-1" id="1DGdBn-hxdZujfumsSxf">
    <mxGraphModel dx="1426" dy="875" grid="1" gridSize="10" guides="1" tooltips="1" connect="1" arrows="1" fold="1" page="1" pageScale="1" pageWidth="827" pageHeight="1169" math="0" shadow="0">
      <root>
        <mxCell id="0" />
        <mxCell id="1" parent="0" />
        <mxCell id="M_pJfyq9bDT52GPWofu0-1" value="" style="rounded=0;whiteSpace=wrap;html=1;fillColor=none;dashed=1;strokeColor=light-dark(#787878, #ededed);" parent="1" vertex="1">
          <mxGeometry x="40" y="80" width="80" height="830" as="geometry" />
        </mxCell>
        <mxCell id="M_pJfyq9bDT52GPWofu0-2" value="Sources" style="rounded=0;whiteSpace=wrap;html=1;strokeColor=none;" parent="1" vertex="1">
          <mxGeometry x="55" y="70" width="50" height="20" as="geometry" />
        </mxCell>
        <mxCell id="M_pJfyq9bDT52GPWofu0-3" value="" style="rounded=0;whiteSpace=wrap;html=1;fillColor=none;dashed=1;strokeColor=light-dark(#787878, #ededed);" parent="1" vertex="1">
          <mxGeometry x="200" y="80" width="490" height="830" as="geometry" />
        </mxCell>
        <mxCell id="M_pJfyq9bDT52GPWofu0-4" value="Data Preparation Stages" style="rounded=0;whiteSpace=wrap;html=1;strokeColor=none;" parent="1" vertex="1">
          <mxGeometry x="350" y="70" width="160" height="20" as="geometry" />
        </mxCell>
        <mxCell id="M_pJfyq9bDT52GPWofu0-5" value="" style="rounded=0;whiteSpace=wrap;html=1;fillColor=none;dashed=1;strokeColor=light-dark(#787878, #ededed);" parent="1" vertex="1">
          <mxGeometry x="720" y="80" width="120" height="830" as="geometry" />
        </mxCell>
        <mxCell id="M_pJfyq9bDT52GPWofu0-6" value="Consume" style="rounded=0;whiteSpace=wrap;html=1;strokeColor=none;" parent="1" vertex="1">
          <mxGeometry x="742.5" y="70" width="60" height="20" as="geometry" />
        </mxCell>
        <mxCell id="M_pJfyq9bDT52GPWofu0-8" value="Bronze Layer" style="rounded=0;whiteSpace=wrap;html=1;fillColor=#ffe6cc;strokeColor=#d79b00;fontSize=18;" parent="1" vertex="1">
          <mxGeometry x="220" y="120" width="130" height="20" as="geometry" />
        </mxCell>
        <mxCell id="M_pJfyq9bDT52GPWofu0-9" value="" style="rounded=0;whiteSpace=wrap;html=1;fillColor=none;strokeColor=#d79b00;fontSize=20;" parent="1" vertex="1">
          <mxGeometry x="220" y="150" width="130" height="730" as="geometry" />
        </mxCell>
        <mxCell id="M_pJfyq9bDT52GPWofu0-14" value="Silver Layer" style="rounded=0;whiteSpace=wrap;html=1;fillColor=#f5f5f5;strokeColor=#666666;fontSize=18;gradientColor=#b3b3b3;" parent="1" vertex="1">
          <mxGeometry x="380" y="120" width="130" height="20" as="geometry" />
        </mxCell>
        <mxCell id="M_pJfyq9bDT52GPWofu0-15" value="" style="rounded=0;whiteSpace=wrap;html=1;fillColor=none;strokeColor=#666666;fontSize=20;gradientColor=#b3b3b3;" parent="1" vertex="1">
          <mxGeometry x="380" y="150" width="130" height="730" as="geometry" />
        </mxCell>
        <mxCell id="M_pJfyq9bDT52GPWofu0-18" value="Gold Layer" style="rounded=0;whiteSpace=wrap;html=1;fillColor=#fff2cc;strokeColor=#d6b656;fontSize=18;" parent="1" vertex="1">
          <mxGeometry x="540" y="120" width="130" height="20" as="geometry" />
        </mxCell>
        <mxCell id="M_pJfyq9bDT52GPWofu0-19" value="" style="rounded=0;whiteSpace=wrap;html=1;fillColor=none;strokeColor=#d6b656;fontSize=20;" parent="1" vertex="1">
          <mxGeometry x="540" y="150" width="130" height="730" as="geometry" />
        </mxCell>
        <mxCell id="M_pJfyq9bDT52GPWofu0-20" value="POS" style="image;aspect=fixed;html=1;points=[];align=center;fontSize=12;image=img/lib/azure2/general/Folder_Blank.svg;" parent="1" vertex="1">
          <mxGeometry x="55.71" y="240" width="49.29" height="40" as="geometry" />
        </mxCell>
        <mxCell id="M_pJfyq9bDT52GPWofu0-21" value="" style="image;aspect=fixed;html=1;points=[];align=center;fontSize=12;image=img/lib/azure2/general/File.svg;" parent="1" vertex="1">
          <mxGeometry x="90" y="260" width="20" height="24.64" as="geometry" />
        </mxCell>
        <mxCell id="M_pJfyq9bDT52GPWofu0-24" value="ERP" style="image;aspect=fixed;html=1;points=[];align=center;fontSize=12;image=img/lib/azure2/general/Folder_Blank.svg;" parent="1" vertex="1">
          <mxGeometry x="55.71" y="460" width="49.29" height="40" as="geometry" />
        </mxCell>
        <mxCell id="M_pJfyq9bDT52GPWofu0-25" value="" style="image;aspect=fixed;html=1;points=[];align=center;fontSize=12;image=img/lib/azure2/general/File.svg;" parent="1" vertex="1">
          <mxGeometry x="89.99999999999999" y="480" width="20" height="24.64" as="geometry" />
        </mxCell>
        <mxCell id="M_pJfyq9bDT52GPWofu0-29" value="" style="endArrow=none;html=1;rounded=0;exitX=-0.012;exitY=0.709;exitDx=0;exitDy=0;exitPerimeter=0;entryX=1.025;entryY=0.709;entryDx=0;entryDy=0;entryPerimeter=0;" parent="1" source="M_pJfyq9bDT52GPWofu0-1" target="M_pJfyq9bDT52GPWofu0-1" edge="1">
          <mxGeometry width="50" height="50" relative="1" as="geometry">
            <mxPoint x="39.999999999999964" y="550" as="sourcePoint" />
            <mxPoint x="120.96" y="550.94" as="targetPoint" />
          </mxGeometry>
        </mxCell>
        <mxCell id="M_pJfyq9bDT52GPWofu0-30" value="&lt;font style=&quot;font-size: 9px;&quot;&gt;Object Type: CSV Files&lt;/font&gt;&lt;div&gt;&lt;font style=&quot;font-size: 9px;&quot;&gt;Interface: Files in Folder&lt;/font&gt;&lt;/div&gt;" style="text;html=1;align=center;verticalAlign=middle;whiteSpace=wrap;rounded=0;" parent="1" vertex="1">
          <mxGeometry x="40" y="555" width="80" height="55" as="geometry" />
        </mxCell>
        <mxCell id="M_pJfyq9bDT52GPWofu0-31" value="" style="html=1;verticalLabelPosition=bottom;align=center;labelBackgroundColor=#ffffff;verticalAlign=top;strokeWidth=2;strokeColor=#d79b00;shadow=0;dashed=0;shape=mxgraph.ios7.icons.data;fillColor=#ffe6cc;" parent="1" vertex="1">
          <mxGeometry x="251.5" y="340" width="67" height="90" as="geometry" />
        </mxCell>
        <mxCell id="M_pJfyq9bDT52GPWofu0-32" value="" style="html=1;verticalLabelPosition=bottom;align=center;labelBackgroundColor=#ffffff;verticalAlign=top;strokeWidth=2;strokeColor=#36393d;shadow=0;dashed=0;shape=mxgraph.ios7.icons.data;fillColor=#eeeeee;" parent="1" vertex="1">
          <mxGeometry x="411.5" y="340" width="67" height="90" as="geometry" />
        </mxCell>
        <mxCell id="M_pJfyq9bDT52GPWofu0-33" value="" style="html=1;verticalLabelPosition=bottom;align=center;labelBackgroundColor=#ffffff;verticalAlign=top;strokeWidth=2;strokeColor=#d6b656;shadow=0;dashed=0;shape=mxgraph.ios7.icons.data;fillColor=#fff2cc;" parent="1" vertex="1">
          <mxGeometry x="571.5" y="340" width="67" height="90" as="geometry" />
        </mxCell>
        <mxCell id="M_pJfyq9bDT52GPWofu0-34" value="" style="shape=singleArrow;whiteSpace=wrap;html=1;fillColor=#b1ddf0;strokeColor=#10739e;" parent="1" vertex="1">
          <mxGeometry x="110" y="365" width="100" height="30" as="geometry" />
        </mxCell>
        <mxCell id="M_pJfyq9bDT52GPWofu0-35" value="" style="shape=singleArrow;whiteSpace=wrap;html=1;fillColor=#b1ddf0;strokeColor=#10739e;" parent="1" vertex="1">
          <mxGeometry x="340" y="360" width="51.5" height="40" as="geometry" />
        </mxCell>
        <mxCell id="M_pJfyq9bDT52GPWofu0-36" value="" style="shape=singleArrow;whiteSpace=wrap;html=1;fillColor=#b1ddf0;strokeColor=#10739e;" parent="1" vertex="1">
          <mxGeometry x="500" y="365" width="51.5" height="40" as="geometry" />
        </mxCell>
        <mxCell id="M_pJfyq9bDT52GPWofu0-37" value="" style="shape=singleArrow;whiteSpace=wrap;html=1;fillColor=#b1ddf0;strokeColor=#10739e;" parent="1" vertex="1">
          <mxGeometry x="678.5" y="365" width="51.5" height="40" as="geometry" />
        </mxCell>
        <mxCell id="M_pJfyq9bDT52GPWofu0-38" value="Raw Data" style="text;html=1;align=center;verticalAlign=middle;whiteSpace=wrap;rounded=0;" parent="1" vertex="1">
          <mxGeometry x="250" y="440" width="70" height="30" as="geometry" />
        </mxCell>
        <mxCell id="M_pJfyq9bDT52GPWofu0-39" value="Cleaned, Standardised Data" style="text;html=1;align=center;verticalAlign=middle;whiteSpace=wrap;rounded=0;" parent="1" vertex="1">
          <mxGeometry x="408.5" y="440" width="70" height="40" as="geometry" />
        </mxCell>
        <mxCell id="M_pJfyq9bDT52GPWofu0-40" value="Business-Ready Data" style="text;html=1;align=center;verticalAlign=middle;whiteSpace=wrap;rounded=0;" parent="1" vertex="1">
          <mxGeometry x="568.5" y="440" width="70" height="40" as="geometry" />
        </mxCell>
        <mxCell id="M_pJfyq9bDT52GPWofu0-43" value="" style="endArrow=none;html=1;rounded=0;" parent="1" edge="1">
          <mxGeometry width="50" height="50" relative="1" as="geometry">
            <mxPoint x="230" y="500" as="sourcePoint" />
            <mxPoint x="340" y="500" as="targetPoint" />
            <Array as="points">
              <mxPoint x="280" y="500" />
            </Array>
          </mxGeometry>
        </mxCell>
        <mxCell id="M_pJfyq9bDT52GPWofu0-44" value="" style="endArrow=none;html=1;rounded=0;" parent="1" edge="1">
          <mxGeometry width="50" height="50" relative="1" as="geometry">
            <mxPoint x="390" y="500" as="sourcePoint" />
            <mxPoint x="500" y="500" as="targetPoint" />
            <Array as="points">
              <mxPoint x="410" y="500" />
              <mxPoint x="420" y="500" />
              <mxPoint x="440" y="500" />
            </Array>
          </mxGeometry>
        </mxCell>
        <mxCell id="M_pJfyq9bDT52GPWofu0-45" value="" style="endArrow=none;html=1;rounded=0;" parent="1" edge="1">
          <mxGeometry width="50" height="50" relative="1" as="geometry">
            <mxPoint x="548.5" y="500" as="sourcePoint" />
            <mxPoint x="658.5" y="500" as="targetPoint" />
          </mxGeometry>
        </mxCell>
        <mxCell id="M_pJfyq9bDT52GPWofu0-48" value="&lt;div&gt;&lt;span style=&quot;background-color: transparent; color: light-dark(rgb(0, 0, 0), rgb(255, 255, 255));&quot;&gt;&lt;br&gt;&lt;/span&gt;&lt;/div&gt;&lt;div&gt;&lt;span style=&quot;background-color: transparent; color: light-dark(rgb(0, 0, 0), rgb(255, 255, 255));&quot;&gt;&lt;br&gt;&lt;/span&gt;&lt;/div&gt;&lt;div&gt;&lt;span style=&quot;background-color: transparent; color: light-dark(rgb(0, 0, 0), rgb(255, 255, 255));&quot;&gt;&lt;br&gt;&lt;/span&gt;&lt;/div&gt;&lt;div&gt;&lt;span style=&quot;background-color: transparent; color: light-dark(rgb(0, 0, 0), rgb(255, 255, 255));&quot;&gt;&lt;br&gt;&lt;/span&gt;&lt;/div&gt;&lt;div&gt;&lt;span style=&quot;background-color: transparent; color: light-dark(rgb(0, 0, 0), rgb(255, 255, 255));&quot;&gt;&lt;br&gt;&lt;/span&gt;&lt;/div&gt;&lt;div&gt;&lt;span style=&quot;background-color: transparent; color: light-dark(rgb(0, 0, 0), rgb(255, 255, 255));&quot;&gt;Object Type: Tables&lt;/span&gt;&lt;/div&gt;&lt;div&gt;&lt;br&gt;&lt;/div&gt;&lt;div&gt;&lt;font style=&quot;font-size: 10px;&quot;&gt;Load:&lt;/font&gt;&lt;/div&gt;&lt;div&gt;&lt;span style=&quot;font-size: 10px; background-color: transparent; color: light-dark(rgb(0, 0, 0), rgb(255, 255, 255));&quot;&gt;i. Full Load&lt;/span&gt;&lt;/div&gt;&lt;div&gt;&lt;br&gt;&lt;/div&gt;&lt;div&gt;&lt;font style=&quot;font-size: 10px;&quot;&gt;&lt;br&gt;&lt;/font&gt;&lt;/div&gt;&lt;div&gt;&lt;font style=&quot;font-size: 10px;&quot;&gt;Transformations:&lt;/font&gt;&lt;/div&gt;&lt;div&gt;&lt;font style=&quot;font-size: 10px;&quot;&gt;1i. Data Cleansing&lt;/font&gt;&lt;/div&gt;&lt;div&gt;&lt;font style=&quot;font-size: 10px;&quot;&gt;ii. Data Standardisation&lt;/font&gt;&lt;/div&gt;&lt;div&gt;&lt;font style=&quot;font-size: 10px;&quot;&gt;iii. Data Normalisation&lt;/font&gt;&lt;/div&gt;&lt;div&gt;&lt;font style=&quot;font-size: 10px;&quot;&gt;iv. Derived Columns&lt;/font&gt;&lt;/div&gt;&lt;div&gt;&lt;font style=&quot;font-size: 10px;&quot;&gt;v. Data Enrichement&lt;/font&gt;&lt;/div&gt;&lt;div&gt;&lt;font style=&quot;font-size: 10px;&quot;&gt;&lt;br&gt;&lt;/font&gt;&lt;/div&gt;&lt;div&gt;&lt;br&gt;&lt;/div&gt;" style="text;html=1;align=center;verticalAlign=middle;whiteSpace=wrap;rounded=0;" parent="1" vertex="1">
          <mxGeometry x="390" y="520" width="120" height="320" as="geometry" />
        </mxCell>
        <mxCell id="M_pJfyq9bDT52GPWofu0-49" value="Object Type: Tables&lt;div&gt;&lt;br&gt;&lt;/div&gt;&lt;div&gt;&lt;font style=&quot;font-size: 10px;&quot;&gt;Load:&lt;/font&gt;&lt;/div&gt;&lt;div&gt;&lt;span style=&quot;font-size: 10px; background-color: transparent; color: light-dark(rgb(0, 0, 0), rgb(255, 255, 255));&quot;&gt;i. Full Load&lt;/span&gt;&lt;/div&gt;&lt;div&gt;&lt;br&gt;&lt;/div&gt;&lt;div&gt;&lt;font style=&quot;font-size: 10px;&quot;&gt;&lt;br&gt;&lt;/font&gt;&lt;/div&gt;&lt;div&gt;&lt;span style=&quot;font-size: 10px;&quot;&gt;No Transformations&lt;/span&gt;&lt;/div&gt;&lt;div&gt;&lt;span style=&quot;font-size: 10px;&quot;&gt;&lt;br&gt;&lt;/span&gt;&lt;/div&gt;&lt;div&gt;&lt;br&gt;&lt;/div&gt;" style="text;html=1;align=center;verticalAlign=middle;whiteSpace=wrap;rounded=0;" parent="1" vertex="1">
          <mxGeometry x="230" y="520" width="110" height="320" as="geometry" />
        </mxCell>
        <mxCell id="M_pJfyq9bDT52GPWofu0-50" value="&lt;div&gt;&lt;br&gt;&lt;/div&gt;&lt;div&gt;&lt;span style=&quot;font-size: 10px; background-color: transparent; color: light-dark(rgb(0, 0, 0), rgb(255, 255, 255));&quot;&gt;No Load&lt;/span&gt;&lt;/div&gt;&lt;div&gt;&lt;font style=&quot;font-size: 10px;&quot;&gt;&lt;br&gt;&lt;/font&gt;&lt;/div&gt;&lt;div&gt;&lt;font style=&quot;font-size: 10px;&quot;&gt;Transformations:&lt;/font&gt;&lt;/div&gt;&lt;div&gt;&lt;font style=&quot;font-size: 10px;&quot;&gt;1i.Data Integrations&lt;/font&gt;&lt;/div&gt;&lt;div&gt;&lt;font style=&quot;font-size: 10px;&quot;&gt;ii. Aggregations&lt;/font&gt;&lt;/div&gt;&lt;div&gt;&lt;font style=&quot;font-size: 10px;&quot;&gt;iii. Business Logics&lt;/font&gt;&lt;/div&gt;" style="text;html=1;align=center;verticalAlign=middle;whiteSpace=wrap;rounded=0;" parent="1" vertex="1">
          <mxGeometry x="551.5" y="520" width="110" height="320" as="geometry" />
        </mxCell>
        <mxCell id="M_pJfyq9bDT52GPWofu0-51" value="" style="image;aspect=fixed;html=1;points=[];align=center;fontSize=12;image=img/lib/azure2/analytics/Power_BI_Embedded.svg;" parent="1" vertex="1">
          <mxGeometry x="757.5" y="340" width="45" height="60" as="geometry" />
        </mxCell>
        <mxCell id="M_pJfyq9bDT52GPWofu0-54" value="&lt;font style=&quot;font-size: 10px;&quot;&gt;BI &amp;amp; Reporting&lt;/font&gt;" style="text;html=1;align=center;verticalAlign=middle;whiteSpace=wrap;rounded=0;" parent="1" vertex="1">
          <mxGeometry x="735" y="405" width="90" height="15" as="geometry" />
        </mxCell>
      </root>
    </mxGraphModel>
  </diagram>
  <diagram id="fjl0iKHhG69irVWSiA7X" name="Page-2">
    <mxGraphModel dx="1426" dy="875" grid="1" gridSize="10" guides="1" tooltips="1" connect="1" arrows="1" fold="1" page="1" pageScale="1" pageWidth="827" pageHeight="1169" math="0" shadow="0">
      <root>
        <mxCell id="0" />
        <mxCell id="1" parent="0" />
        <mxCell id="U3KbUA6APN3peJctdMXW-1" value="" style="rounded=0;whiteSpace=wrap;html=1;fillColor=none;dashed=1;" parent="1" vertex="1">
          <mxGeometry x="40" y="50" width="120" height="670" as="geometry" />
        </mxCell>
        <mxCell id="U3KbUA6APN3peJctdMXW-2" value="&lt;font style=&quot;font-size: 17px;&quot;&gt;Sources&lt;/font&gt;" style="rounded=0;whiteSpace=wrap;html=1;strokeColor=none;" parent="1" vertex="1">
          <mxGeometry x="55.8" y="30" width="70" height="40" as="geometry" />
        </mxCell>
        <mxCell id="U3KbUA6APN3peJctdMXW-3" value="ERP" style="image;aspect=fixed;html=1;points=[];align=center;fontSize=12;image=img/lib/azure2/general/Folder_Blank.svg;" parent="1" vertex="1">
          <mxGeometry x="66" y="200" width="61.61" height="50" as="geometry" />
        </mxCell>
        <mxCell id="U3KbUA6APN3peJctdMXW-5" value="CRM" style="image;aspect=fixed;html=1;points=[];align=center;fontSize=12;image=img/lib/azure2/general/Folder_Blank.svg;" parent="1" vertex="1">
          <mxGeometry x="64.19" y="550" width="61.61" height="50" as="geometry" />
        </mxCell>
        <mxCell id="U3KbUA6APN3peJctdMXW-6" value="" style="rounded=1;whiteSpace=wrap;html=1;fillColor=#ffe6cc;strokeColor=#d79b00;fillStyle=hatch;" parent="1" vertex="1">
          <mxGeometry x="210" y="50" width="160" height="670" as="geometry" />
        </mxCell>
        <mxCell id="U3KbUA6APN3peJctdMXW-7" value="Bronze Layer" style="rounded=1;whiteSpace=wrap;html=1;fillColor=#ffe6cc;strokeColor=#d79b00;" parent="1" vertex="1">
          <mxGeometry x="210" y="20" width="160" height="30" as="geometry" />
        </mxCell>
        <mxCell id="8yu33X4DwbYf6PnHwS1h-42" style="edgeStyle=orthogonalEdgeStyle;rounded=0;orthogonalLoop=1;jettySize=auto;html=1;" edge="1" parent="1" source="U3KbUA6APN3peJctdMXW-8" target="8yu33X4DwbYf6PnHwS1h-3">
          <mxGeometry relative="1" as="geometry" />
        </mxCell>
        <mxCell id="U3KbUA6APN3peJctdMXW-8" value="&lt;font style=&quot;font-size: 10px;&quot;&gt;crm_customer_info&lt;/font&gt;" style="rounded=1;whiteSpace=wrap;html=1;fillColor=#dae8fc;strokeColor=#6c8ebf;" parent="1" vertex="1">
          <mxGeometry x="220" y="70" width="140" height="30" as="geometry" />
        </mxCell>
        <mxCell id="8yu33X4DwbYf6PnHwS1h-45" style="edgeStyle=orthogonalEdgeStyle;rounded=0;orthogonalLoop=1;jettySize=auto;html=1;entryX=0;entryY=0.5;entryDx=0;entryDy=0;" edge="1" parent="1" source="U3KbUA6APN3peJctdMXW-9" target="8yu33X4DwbYf6PnHwS1h-4">
          <mxGeometry relative="1" as="geometry" />
        </mxCell>
        <mxCell id="U3KbUA6APN3peJctdMXW-9" value="&lt;font style=&quot;font-size: 10px;&quot;&gt;crm_product_info&lt;/font&gt;" style="rounded=1;whiteSpace=wrap;html=1;fillColor=#dae8fc;strokeColor=#6c8ebf;" parent="1" vertex="1">
          <mxGeometry x="220" y="170" width="140" height="30" as="geometry" />
        </mxCell>
        <mxCell id="8yu33X4DwbYf6PnHwS1h-49" style="edgeStyle=orthogonalEdgeStyle;rounded=0;orthogonalLoop=1;jettySize=auto;html=1;" edge="1" parent="1" source="U3KbUA6APN3peJctdMXW-10" target="8yu33X4DwbYf6PnHwS1h-5">
          <mxGeometry relative="1" as="geometry" />
        </mxCell>
        <mxCell id="U3KbUA6APN3peJctdMXW-10" value="&lt;font style=&quot;font-size: 10px;&quot;&gt;crm_store_info&lt;/font&gt;" style="rounded=1;whiteSpace=wrap;html=1;fillColor=#dae8fc;strokeColor=#6c8ebf;" parent="1" vertex="1">
          <mxGeometry x="220" y="370" width="140" height="30" as="geometry" />
        </mxCell>
        <mxCell id="8yu33X4DwbYf6PnHwS1h-47" style="edgeStyle=orthogonalEdgeStyle;rounded=0;orthogonalLoop=1;jettySize=auto;html=1;exitX=1;exitY=0.5;exitDx=0;exitDy=0;entryX=0;entryY=0.5;entryDx=0;entryDy=0;" edge="1" parent="1" source="U3KbUA6APN3peJctdMXW-11" target="8yu33X4DwbYf6PnHwS1h-6">
          <mxGeometry relative="1" as="geometry" />
        </mxCell>
        <mxCell id="U3KbUA6APN3peJctdMXW-11" value="&lt;font style=&quot;font-size: 9px;&quot;&gt;crm_Store_products_info&lt;/font&gt;" style="rounded=1;whiteSpace=wrap;html=1;fillColor=#dae8fc;strokeColor=#6c8ebf;" parent="1" vertex="1">
          <mxGeometry x="220" y="270" width="140" height="30" as="geometry" />
        </mxCell>
        <mxCell id="8yu33X4DwbYf6PnHwS1h-51" style="edgeStyle=orthogonalEdgeStyle;rounded=0;orthogonalLoop=1;jettySize=auto;html=1;entryX=0;entryY=0.5;entryDx=0;entryDy=0;" edge="1" parent="1" source="U3KbUA6APN3peJctdMXW-12" target="8yu33X4DwbYf6PnHwS1h-7">
          <mxGeometry relative="1" as="geometry" />
        </mxCell>
        <mxCell id="U3KbUA6APN3peJctdMXW-12" value="&lt;font style=&quot;font-size: 10px;&quot;&gt;crm_sales_details&lt;/font&gt;" style="rounded=1;whiteSpace=wrap;html=1;fillColor=#dae8fc;strokeColor=#6c8ebf;" parent="1" vertex="1">
          <mxGeometry x="220" y="470" width="140" height="30" as="geometry" />
        </mxCell>
        <mxCell id="U3KbUA6APN3peJctdMXW-13" value="&lt;font style=&quot;font-size: 10px;&quot;&gt;crm_ship_details&lt;/font&gt;" style="rounded=1;whiteSpace=wrap;html=1;fillColor=#dae8fc;strokeColor=#6c8ebf;" parent="1" vertex="1">
          <mxGeometry x="220" y="610" width="140" height="30" as="geometry" />
        </mxCell>
        <mxCell id="8yu33X4DwbYf6PnHwS1h-43" style="edgeStyle=orthogonalEdgeStyle;rounded=0;orthogonalLoop=1;jettySize=auto;html=1;" edge="1" parent="1" source="U3KbUA6APN3peJctdMXW-14">
          <mxGeometry relative="1" as="geometry">
            <mxPoint x="520" y="110" as="targetPoint" />
          </mxGeometry>
        </mxCell>
        <mxCell id="U3KbUA6APN3peJctdMXW-14" value="&lt;font style=&quot;font-size: 10px;&quot;&gt;erp_customer_info&lt;/font&gt;" style="rounded=1;whiteSpace=wrap;html=1;fillColor=#ffe6cc;strokeColor=#d79b00;" parent="1" vertex="1">
          <mxGeometry x="220" y="110" width="140" height="30" as="geometry" />
        </mxCell>
        <mxCell id="U3KbUA6APN3peJctdMXW-15" value="&lt;font style=&quot;font-size: 10px;&quot;&gt;erp_product_info&lt;/font&gt;" style="rounded=1;whiteSpace=wrap;html=1;fillColor=#ffe6cc;strokeColor=#d79b00;" parent="1" vertex="1">
          <mxGeometry x="220" y="210" width="140" height="30" as="geometry" />
        </mxCell>
        <mxCell id="U3KbUA6APN3peJctdMXW-16" value="&lt;font style=&quot;font-size: 10px;&quot;&gt;erp_store_info&lt;/font&gt;" style="rounded=1;whiteSpace=wrap;html=1;fillColor=#ffe6cc;strokeColor=#d79b00;" parent="1" vertex="1">
          <mxGeometry x="220" y="410" width="140" height="30" as="geometry" />
        </mxCell>
        <mxCell id="U3KbUA6APN3peJctdMXW-17" value="&lt;font style=&quot;font-size: 9px;&quot;&gt;erp_Store_products_info&lt;/font&gt;" style="rounded=1;whiteSpace=wrap;html=1;fillColor=#ffe6cc;strokeColor=#d79b00;" parent="1" vertex="1">
          <mxGeometry x="220" y="310" width="140" height="30" as="geometry" />
        </mxCell>
        <mxCell id="8yu33X4DwbYf6PnHwS1h-55" style="edgeStyle=orthogonalEdgeStyle;rounded=0;orthogonalLoop=1;jettySize=auto;html=1;entryX=0;entryY=0.5;entryDx=0;entryDy=0;" edge="1" parent="1" source="U3KbUA6APN3peJctdMXW-18" target="8yu33X4DwbYf6PnHwS1h-13">
          <mxGeometry relative="1" as="geometry" />
        </mxCell>
        <mxCell id="U3KbUA6APN3peJctdMXW-18" value="&lt;font style=&quot;font-size: 10px;&quot;&gt;erp_sales_person_info&lt;/font&gt;" style="rounded=1;whiteSpace=wrap;html=1;fillColor=#ffe6cc;strokeColor=#d79b00;" parent="1" vertex="1">
          <mxGeometry x="220" y="670" width="140" height="30" as="geometry" />
        </mxCell>
        <mxCell id="U3KbUA6APN3peJctdMXW-19" value="&lt;font style=&quot;font-size: 10px;&quot;&gt;erp_sales_details&lt;/font&gt;" style="rounded=1;whiteSpace=wrap;html=1;fillColor=#ffe6cc;strokeColor=#d79b00;" parent="1" vertex="1">
          <mxGeometry x="220" y="510" width="140" height="30" as="geometry" />
        </mxCell>
        <mxCell id="8yu33X4DwbYf6PnHwS1h-56" style="edgeStyle=orthogonalEdgeStyle;rounded=0;orthogonalLoop=1;jettySize=auto;html=1;entryX=0;entryY=0.5;entryDx=0;entryDy=0;" edge="1" parent="1" source="U3KbUA6APN3peJctdMXW-20" target="8yu33X4DwbYf6PnHwS1h-8">
          <mxGeometry relative="1" as="geometry" />
        </mxCell>
        <mxCell id="U3KbUA6APN3peJctdMXW-20" value="&lt;font style=&quot;font-size: 10px;&quot;&gt;erp_ship_details&lt;/font&gt;" style="rounded=1;whiteSpace=wrap;html=1;fillColor=#ffe6cc;strokeColor=#d79b00;" parent="1" vertex="1">
          <mxGeometry x="220" y="570" width="140" height="30" as="geometry" />
        </mxCell>
        <mxCell id="8yu33X4DwbYf6PnHwS1h-1" value="" style="rounded=1;whiteSpace=wrap;html=1;fillColor=none;strokeColor=#666666;fillStyle=hatch;gradientColor=#b3b3b3;" vertex="1" parent="1">
          <mxGeometry x="510" y="50" width="160" height="670" as="geometry" />
        </mxCell>
        <mxCell id="8yu33X4DwbYf6PnHwS1h-2" value="Silver Layer" style="rounded=1;whiteSpace=wrap;html=1;fillColor=#f5f5f5;strokeColor=#666666;gradientColor=#b3b3b3;" vertex="1" parent="1">
          <mxGeometry x="510" y="20" width="160" height="30" as="geometry" />
        </mxCell>
        <mxCell id="8yu33X4DwbYf6PnHwS1h-3" value="&lt;div&gt;&lt;font style=&quot;font-size: 10px;&quot;&gt;Customers&lt;/font&gt;&lt;/div&gt;" style="rounded=1;whiteSpace=wrap;html=1;fillColor=#f5f5f5;strokeColor=#666666;gradientColor=#b3b3b3;" vertex="1" parent="1">
          <mxGeometry x="520" y="80" width="140" height="50" as="geometry" />
        </mxCell>
        <mxCell id="8yu33X4DwbYf6PnHwS1h-4" value="&lt;div&gt;&lt;font style=&quot;font-size: 10px;&quot;&gt;products&lt;/font&gt;&lt;/div&gt;" style="rounded=1;whiteSpace=wrap;html=1;fillColor=#f5f5f5;strokeColor=#666666;gradientColor=#b3b3b3;" vertex="1" parent="1">
          <mxGeometry x="520" y="170" width="140" height="50" as="geometry" />
        </mxCell>
        <mxCell id="8yu33X4DwbYf6PnHwS1h-5" value="&lt;font style=&quot;font-size: 10px;&quot;&gt;store&lt;/font&gt;" style="rounded=1;whiteSpace=wrap;html=1;fillColor=#f5f5f5;strokeColor=#666666;gradientColor=#b3b3b3;" vertex="1" parent="1">
          <mxGeometry x="520" y="370" width="140" height="50" as="geometry" />
        </mxCell>
        <mxCell id="8yu33X4DwbYf6PnHwS1h-6" value="&lt;div&gt;&lt;font style=&quot;font-size: 9px;&quot;&gt;store_products&lt;/font&gt;&lt;/div&gt;" style="rounded=1;whiteSpace=wrap;html=1;fillColor=#f5f5f5;strokeColor=#666666;gradientColor=#b3b3b3;" vertex="1" parent="1">
          <mxGeometry x="520" y="260" width="140" height="50" as="geometry" />
        </mxCell>
        <mxCell id="8yu33X4DwbYf6PnHwS1h-7" value="&lt;font style=&quot;font-size: 10px;&quot;&gt;sales_details&lt;/font&gt;" style="rounded=1;whiteSpace=wrap;html=1;fillColor=#f5f5f5;strokeColor=#666666;gradientColor=#b3b3b3;" vertex="1" parent="1">
          <mxGeometry x="520" y="470" width="140" height="50" as="geometry" />
        </mxCell>
        <mxCell id="8yu33X4DwbYf6PnHwS1h-8" value="&lt;font style=&quot;font-size: 10px;&quot;&gt;ship_details&lt;/font&gt;" style="rounded=1;whiteSpace=wrap;html=1;fillColor=#f5f5f5;strokeColor=#666666;gradientColor=#b3b3b3;" vertex="1" parent="1">
          <mxGeometry x="520" y="570" width="140" height="50" as="geometry" />
        </mxCell>
        <mxCell id="8yu33X4DwbYf6PnHwS1h-13" value="&lt;font style=&quot;font-size: 10px;&quot;&gt;sales_person&lt;/font&gt;&lt;div&gt;&lt;font style=&quot;font-size: 10px;&quot;&gt;&lt;br&gt;&lt;/font&gt;&lt;/div&gt;" style="rounded=1;whiteSpace=wrap;html=1;fillColor=#f5f5f5;strokeColor=#666666;gradientColor=#b3b3b3;" vertex="1" parent="1">
          <mxGeometry x="520" y="660" width="140" height="40" as="geometry" />
        </mxCell>
        <mxCell id="8yu33X4DwbYf6PnHwS1h-46" style="edgeStyle=orthogonalEdgeStyle;rounded=0;orthogonalLoop=1;jettySize=auto;html=1;entryX=0.031;entryY=0.216;entryDx=0;entryDy=0;entryPerimeter=0;" edge="1" parent="1" source="U3KbUA6APN3peJctdMXW-15" target="8yu33X4DwbYf6PnHwS1h-1">
          <mxGeometry relative="1" as="geometry" />
        </mxCell>
        <mxCell id="8yu33X4DwbYf6PnHwS1h-48" style="edgeStyle=orthogonalEdgeStyle;rounded=0;orthogonalLoop=1;jettySize=auto;html=1;entryX=0.031;entryY=0.351;entryDx=0;entryDy=0;entryPerimeter=0;" edge="1" parent="1" source="U3KbUA6APN3peJctdMXW-17" target="8yu33X4DwbYf6PnHwS1h-1">
          <mxGeometry relative="1" as="geometry" />
        </mxCell>
        <mxCell id="8yu33X4DwbYf6PnHwS1h-50" style="edgeStyle=orthogonalEdgeStyle;rounded=0;orthogonalLoop=1;jettySize=auto;html=1;entryX=0.025;entryY=0.513;entryDx=0;entryDy=0;entryPerimeter=0;" edge="1" parent="1" source="U3KbUA6APN3peJctdMXW-16" target="8yu33X4DwbYf6PnHwS1h-1">
          <mxGeometry relative="1" as="geometry" />
        </mxCell>
        <mxCell id="8yu33X4DwbYf6PnHwS1h-52" style="edgeStyle=orthogonalEdgeStyle;rounded=0;orthogonalLoop=1;jettySize=auto;html=1;entryX=-0.006;entryY=0.663;entryDx=0;entryDy=0;entryPerimeter=0;" edge="1" parent="1" source="U3KbUA6APN3peJctdMXW-19" target="8yu33X4DwbYf6PnHwS1h-1">
          <mxGeometry relative="1" as="geometry" />
        </mxCell>
        <mxCell id="8yu33X4DwbYf6PnHwS1h-54" style="edgeStyle=orthogonalEdgeStyle;rounded=0;orthogonalLoop=1;jettySize=auto;html=1;entryX=0.031;entryY=0.812;entryDx=0;entryDy=0;entryPerimeter=0;" edge="1" parent="1" source="U3KbUA6APN3peJctdMXW-13" target="8yu33X4DwbYf6PnHwS1h-1">
          <mxGeometry relative="1" as="geometry" />
        </mxCell>
        <mxCell id="5kgv03JqUGVfNGV25soI-1" value="" style="rounded=1;whiteSpace=wrap;html=1;fillColor=none;strokeColor=#666666;fillStyle=hatch;gradientColor=#b3b3b3;" vertex="1" parent="1">
          <mxGeometry x="810" y="50" width="160" height="670" as="geometry" />
        </mxCell>
        <mxCell id="5kgv03JqUGVfNGV25soI-2" value="gold_layer" style="rounded=1;whiteSpace=wrap;html=1;fillColor=#ffcd28;strokeColor=#d79b00;gradientColor=#ffa500;" vertex="1" parent="1">
          <mxGeometry x="810" y="20" width="160" height="30" as="geometry" />
        </mxCell>
        <mxCell id="5kgv03JqUGVfNGV25soI-3" value="&lt;div&gt;&lt;font style=&quot;font-size: 10px;&quot;&gt;fact_sales_order&lt;/font&gt;&lt;/div&gt;" style="rounded=1;whiteSpace=wrap;html=1;fillColor=#f5f5f5;strokeColor=#666666;gradientColor=#b3b3b3;" vertex="1" parent="1">
          <mxGeometry x="820" y="80" width="140" height="50" as="geometry" />
        </mxCell>
        <mxCell id="5kgv03JqUGVfNGV25soI-4" value="&lt;div&gt;&lt;font style=&quot;font-size: 10px;&quot;&gt;fact_order_ship&lt;/font&gt;&lt;/div&gt;" style="rounded=1;whiteSpace=wrap;html=1;fillColor=#f5f5f5;strokeColor=#666666;gradientColor=#b3b3b3;" vertex="1" parent="1">
          <mxGeometry x="820" y="170" width="140" height="50" as="geometry" />
        </mxCell>
        <mxCell id="5kgv03JqUGVfNGV25soI-5" value="&lt;font style=&quot;font-size: 10px;&quot;&gt;dim_produts&lt;/font&gt;" style="rounded=1;whiteSpace=wrap;html=1;fillColor=#f5f5f5;strokeColor=#666666;gradientColor=#b3b3b3;" vertex="1" parent="1">
          <mxGeometry x="820" y="370" width="140" height="50" as="geometry" />
        </mxCell>
        <mxCell id="5kgv03JqUGVfNGV25soI-6" value="&lt;div&gt;&lt;font style=&quot;font-size: 9px;&quot;&gt;dim_customers&lt;/font&gt;&lt;/div&gt;" style="rounded=1;whiteSpace=wrap;html=1;fillColor=#f5f5f5;strokeColor=#666666;gradientColor=#b3b3b3;" vertex="1" parent="1">
          <mxGeometry x="820" y="260" width="140" height="50" as="geometry" />
        </mxCell>
        <mxCell id="5kgv03JqUGVfNGV25soI-7" value="&lt;font style=&quot;font-size: 10px;&quot;&gt;fact_store_products&lt;/font&gt;" style="rounded=1;whiteSpace=wrap;html=1;fillColor=#f5f5f5;strokeColor=#666666;gradientColor=#b3b3b3;" vertex="1" parent="1">
          <mxGeometry x="820" y="470" width="140" height="50" as="geometry" />
        </mxCell>
        <mxCell id="5kgv03JqUGVfNGV25soI-8" value="&lt;font style=&quot;font-size: 10px;&quot;&gt;dim_store&lt;/font&gt;" style="rounded=1;whiteSpace=wrap;html=1;fillColor=#f5f5f5;strokeColor=#666666;gradientColor=#b3b3b3;" vertex="1" parent="1">
          <mxGeometry x="820" y="570" width="140" height="50" as="geometry" />
        </mxCell>
        <mxCell id="5kgv03JqUGVfNGV25soI-9" value="&lt;div&gt;&lt;font style=&quot;font-size: 10px;&quot;&gt;dim_sales_person&lt;/font&gt;&lt;/div&gt;" style="rounded=1;whiteSpace=wrap;html=1;fillColor=#f5f5f5;strokeColor=#666666;gradientColor=#b3b3b3;" vertex="1" parent="1">
          <mxGeometry x="820" y="660" width="140" height="40" as="geometry" />
        </mxCell>
        <mxCell id="Wn4aPzJghEK0N6vQKAmT-1" value="" style="endArrow=classic;html=1;rounded=0;entryX=0;entryY=0.25;entryDx=0;entryDy=0;jumpStyle=gap;" edge="1" parent="1" target="5kgv03JqUGVfNGV25soI-3">
          <mxGeometry width="50" height="50" relative="1" as="geometry">
            <mxPoint x="660" y="490" as="sourcePoint" />
            <mxPoint x="710" y="440" as="targetPoint" />
          </mxGeometry>
        </mxCell>
        <mxCell id="Wn4aPzJghEK0N6vQKAmT-2" value="" style="endArrow=classic;html=1;rounded=0;entryX=0;entryY=0.5;entryDx=0;entryDy=0;jumpStyle=gap;" edge="1" parent="1" target="5kgv03JqUGVfNGV25soI-6">
          <mxGeometry width="50" height="50" relative="1" as="geometry">
            <mxPoint x="660" y="110" as="sourcePoint" />
            <mxPoint x="710" y="60" as="targetPoint" />
          </mxGeometry>
        </mxCell>
        <mxCell id="Wn4aPzJghEK0N6vQKAmT-3" value="" style="endArrow=classic;html=1;rounded=0;entryX=0;entryY=0.75;entryDx=0;entryDy=0;jumpStyle=gap;" edge="1" parent="1" target="5kgv03JqUGVfNGV25soI-5">
          <mxGeometry width="50" height="50" relative="1" as="geometry">
            <mxPoint x="660" y="200" as="sourcePoint" />
            <mxPoint x="710" y="150" as="targetPoint" />
          </mxGeometry>
        </mxCell>
        <mxCell id="Wn4aPzJghEK0N6vQKAmT-4" value="" style="endArrow=classic;html=1;rounded=0;entryX=0;entryY=0.5;entryDx=0;entryDy=0;jumpStyle=gap;" edge="1" parent="1" target="5kgv03JqUGVfNGV25soI-7">
          <mxGeometry width="50" height="50" relative="1" as="geometry">
            <mxPoint x="660" y="290" as="sourcePoint" />
            <mxPoint x="710" y="240" as="targetPoint" />
          </mxGeometry>
        </mxCell>
        <mxCell id="Wn4aPzJghEK0N6vQKAmT-5" value="" style="endArrow=classic;html=1;rounded=0;entryX=0;entryY=0.75;entryDx=0;entryDy=0;jumpStyle=gap;" edge="1" parent="1" target="5kgv03JqUGVfNGV25soI-8">
          <mxGeometry width="50" height="50" relative="1" as="geometry">
            <mxPoint x="660" y="400" as="sourcePoint" />
            <mxPoint x="710" y="350" as="targetPoint" />
          </mxGeometry>
        </mxCell>
        <mxCell id="Wn4aPzJghEK0N6vQKAmT-6" value="" style="endArrow=classic;html=1;rounded=0;entryX=0;entryY=0.5;entryDx=0;entryDy=0;jumpStyle=gap;" edge="1" parent="1" target="5kgv03JqUGVfNGV25soI-4">
          <mxGeometry width="50" height="50" relative="1" as="geometry">
            <mxPoint x="660" y="600" as="sourcePoint" />
            <mxPoint x="710" y="550" as="targetPoint" />
          </mxGeometry>
        </mxCell>
        <mxCell id="Wn4aPzJghEK0N6vQKAmT-7" value="" style="endArrow=classic;html=1;rounded=0;entryX=0;entryY=0.5;entryDx=0;entryDy=0;jumpStyle=gap;" edge="1" parent="1" target="5kgv03JqUGVfNGV25soI-9">
          <mxGeometry width="50" height="50" relative="1" as="geometry">
            <mxPoint x="660" y="680" as="sourcePoint" />
            <mxPoint x="710" y="630" as="targetPoint" />
          </mxGeometry>
        </mxCell>
      </root>
    </mxGraphModel>
  </diagram>
  <diagram name="Copy of Page-2" id="OqxUxXcJi9buW5dNT-0-">
    <mxGraphModel dx="1426" dy="875" grid="1" gridSize="10" guides="1" tooltips="1" connect="1" arrows="1" fold="1" page="1" pageScale="1" pageWidth="827" pageHeight="1169" math="0" shadow="0">
      <root>
        <mxCell id="tewQSbM_v_hu95GglgQI-0" />
        <mxCell id="tewQSbM_v_hu95GglgQI-1" parent="tewQSbM_v_hu95GglgQI-0" />
        <mxCell id="tewQSbM_v_hu95GglgQI-2" value="" style="rounded=0;whiteSpace=wrap;html=1;fillColor=none;dashed=1;" vertex="1" parent="tewQSbM_v_hu95GglgQI-1">
          <mxGeometry x="40" y="50" width="120" height="670" as="geometry" />
        </mxCell>
        <mxCell id="tewQSbM_v_hu95GglgQI-3" value="&lt;font style=&quot;font-size: 17px;&quot;&gt;Sources&lt;/font&gt;" style="rounded=0;whiteSpace=wrap;html=1;strokeColor=none;" vertex="1" parent="tewQSbM_v_hu95GglgQI-1">
          <mxGeometry x="55.8" y="30" width="70" height="40" as="geometry" />
        </mxCell>
        <mxCell id="tewQSbM_v_hu95GglgQI-4" value="ERP" style="image;aspect=fixed;html=1;points=[];align=center;fontSize=12;image=img/lib/azure2/general/Folder_Blank.svg;" vertex="1" parent="tewQSbM_v_hu95GglgQI-1">
          <mxGeometry x="66" y="200" width="61.61" height="50" as="geometry" />
        </mxCell>
        <mxCell id="tewQSbM_v_hu95GglgQI-5" value="ERP" style="image;aspect=fixed;html=1;points=[];align=center;fontSize=12;image=img/lib/azure2/general/Folder_Blank.svg;" vertex="1" parent="tewQSbM_v_hu95GglgQI-1">
          <mxGeometry x="64.19" y="550" width="61.61" height="50" as="geometry" />
        </mxCell>
        <mxCell id="tewQSbM_v_hu95GglgQI-6" value="" style="rounded=1;whiteSpace=wrap;html=1;fillColor=#ffe6cc;strokeColor=#d79b00;fillStyle=hatch;" vertex="1" parent="tewQSbM_v_hu95GglgQI-1">
          <mxGeometry x="270" y="50" width="160" height="670" as="geometry" />
        </mxCell>
        <mxCell id="tewQSbM_v_hu95GglgQI-7" value="Bronze Layer" style="rounded=1;whiteSpace=wrap;html=1;fillColor=#ffe6cc;strokeColor=#d79b00;" vertex="1" parent="tewQSbM_v_hu95GglgQI-1">
          <mxGeometry x="270" y="20" width="160" height="30" as="geometry" />
        </mxCell>
        <mxCell id="tewQSbM_v_hu95GglgQI-9" value="&lt;font style=&quot;font-size: 10px;&quot;&gt;crm_customer_info&lt;/font&gt;" style="rounded=1;whiteSpace=wrap;html=1;fillColor=#dae8fc;strokeColor=#6c8ebf;" vertex="1" parent="tewQSbM_v_hu95GglgQI-1">
          <mxGeometry x="280" y="70" width="140" height="30" as="geometry" />
        </mxCell>
        <mxCell id="tewQSbM_v_hu95GglgQI-11" value="&lt;font style=&quot;font-size: 10px;&quot;&gt;crm_product_info&lt;/font&gt;" style="rounded=1;whiteSpace=wrap;html=1;fillColor=#dae8fc;strokeColor=#6c8ebf;" vertex="1" parent="tewQSbM_v_hu95GglgQI-1">
          <mxGeometry x="280" y="110" width="140" height="30" as="geometry" />
        </mxCell>
        <mxCell id="tewQSbM_v_hu95GglgQI-13" value="&lt;font style=&quot;font-size: 10px;&quot;&gt;crm_store_info&lt;/font&gt;" style="rounded=1;whiteSpace=wrap;html=1;fillColor=#dae8fc;strokeColor=#6c8ebf;" vertex="1" parent="tewQSbM_v_hu95GglgQI-1">
          <mxGeometry x="280" y="190" width="140" height="30" as="geometry" />
        </mxCell>
        <mxCell id="tewQSbM_v_hu95GglgQI-15" value="&lt;font style=&quot;font-size: 9px;&quot;&gt;crm_Store_products_info&lt;/font&gt;" style="rounded=1;whiteSpace=wrap;html=1;fillColor=#dae8fc;strokeColor=#6c8ebf;" vertex="1" parent="tewQSbM_v_hu95GglgQI-1">
          <mxGeometry x="280" y="150" width="140" height="30" as="geometry" />
        </mxCell>
        <mxCell id="tewQSbM_v_hu95GglgQI-17" value="&lt;font style=&quot;font-size: 10px;&quot;&gt;crm_sales_details&lt;/font&gt;" style="rounded=1;whiteSpace=wrap;html=1;fillColor=#dae8fc;strokeColor=#6c8ebf;" vertex="1" parent="tewQSbM_v_hu95GglgQI-1">
          <mxGeometry x="280" y="230" width="140" height="30" as="geometry" />
        </mxCell>
        <mxCell id="tewQSbM_v_hu95GglgQI-18" value="&lt;font style=&quot;font-size: 10px;&quot;&gt;crm_ship_details&lt;/font&gt;" style="rounded=1;whiteSpace=wrap;html=1;fillColor=#dae8fc;strokeColor=#6c8ebf;" vertex="1" parent="tewQSbM_v_hu95GglgQI-1">
          <mxGeometry x="280" y="270" width="140" height="30" as="geometry" />
        </mxCell>
        <mxCell id="tewQSbM_v_hu95GglgQI-20" value="&lt;font style=&quot;font-size: 10px;&quot;&gt;erp_customer_info&lt;/font&gt;" style="rounded=1;whiteSpace=wrap;html=1;fillColor=#ffe6cc;strokeColor=#d79b00;" vertex="1" parent="tewQSbM_v_hu95GglgQI-1">
          <mxGeometry x="280" y="420" width="140" height="30" as="geometry" />
        </mxCell>
        <mxCell id="tewQSbM_v_hu95GglgQI-21" value="&lt;font style=&quot;font-size: 10px;&quot;&gt;erp_product_info&lt;/font&gt;" style="rounded=1;whiteSpace=wrap;html=1;fillColor=#ffe6cc;strokeColor=#d79b00;" vertex="1" parent="tewQSbM_v_hu95GglgQI-1">
          <mxGeometry x="280" y="460" width="140" height="30" as="geometry" />
        </mxCell>
        <mxCell id="tewQSbM_v_hu95GglgQI-22" value="&lt;font style=&quot;font-size: 10px;&quot;&gt;erp_store_info&lt;/font&gt;" style="rounded=1;whiteSpace=wrap;html=1;fillColor=#ffe6cc;strokeColor=#d79b00;" vertex="1" parent="tewQSbM_v_hu95GglgQI-1">
          <mxGeometry x="280" y="540" width="140" height="30" as="geometry" />
        </mxCell>
        <mxCell id="tewQSbM_v_hu95GglgQI-23" value="&lt;font style=&quot;font-size: 9px;&quot;&gt;erp_Store_products_info&lt;/font&gt;" style="rounded=1;whiteSpace=wrap;html=1;fillColor=#ffe6cc;strokeColor=#d79b00;" vertex="1" parent="tewQSbM_v_hu95GglgQI-1">
          <mxGeometry x="280" y="500" width="140" height="30" as="geometry" />
        </mxCell>
        <mxCell id="tewQSbM_v_hu95GglgQI-25" value="&lt;font style=&quot;font-size: 10px;&quot;&gt;erp_sales_person_info&lt;/font&gt;" style="rounded=1;whiteSpace=wrap;html=1;fillColor=#ffe6cc;strokeColor=#d79b00;" vertex="1" parent="tewQSbM_v_hu95GglgQI-1">
          <mxGeometry x="280" y="660" width="140" height="30" as="geometry" />
        </mxCell>
        <mxCell id="tewQSbM_v_hu95GglgQI-26" value="&lt;font style=&quot;font-size: 10px;&quot;&gt;erp_sales_details&lt;/font&gt;" style="rounded=1;whiteSpace=wrap;html=1;fillColor=#ffe6cc;strokeColor=#d79b00;" vertex="1" parent="tewQSbM_v_hu95GglgQI-1">
          <mxGeometry x="280" y="580" width="140" height="30" as="geometry" />
        </mxCell>
        <mxCell id="tewQSbM_v_hu95GglgQI-28" value="&lt;font style=&quot;font-size: 10px;&quot;&gt;erp_ship_details&lt;/font&gt;" style="rounded=1;whiteSpace=wrap;html=1;fillColor=#ffe6cc;strokeColor=#d79b00;" vertex="1" parent="tewQSbM_v_hu95GglgQI-1">
          <mxGeometry x="280" y="620" width="140" height="30" as="geometry" />
        </mxCell>
        <mxCell id="tewQSbM_v_hu95GglgQI-29" value="" style="rounded=1;whiteSpace=wrap;html=1;fillColor=none;strokeColor=#666666;fillStyle=hatch;gradientColor=#b3b3b3;" vertex="1" parent="tewQSbM_v_hu95GglgQI-1">
          <mxGeometry x="600" y="50" width="160" height="670" as="geometry" />
        </mxCell>
        <mxCell id="tewQSbM_v_hu95GglgQI-30" value="Silver Layer" style="rounded=1;whiteSpace=wrap;html=1;fillColor=#f5f5f5;strokeColor=#666666;gradientColor=#b3b3b3;" vertex="1" parent="tewQSbM_v_hu95GglgQI-1">
          <mxGeometry x="600" y="20" width="160" height="30" as="geometry" />
        </mxCell>
        <mxCell id="tewQSbM_v_hu95GglgQI-31" value="&lt;div&gt;&lt;font style=&quot;font-size: 10px;&quot;&gt;Customers&lt;/font&gt;&lt;/div&gt;" style="rounded=1;whiteSpace=wrap;html=1;fillColor=#f5f5f5;strokeColor=#666666;gradientColor=#b3b3b3;" vertex="1" parent="tewQSbM_v_hu95GglgQI-1">
          <mxGeometry x="610" y="80" width="140" height="50" as="geometry" />
        </mxCell>
        <mxCell id="tewQSbM_v_hu95GglgQI-32" value="&lt;div&gt;&lt;font style=&quot;font-size: 10px;&quot;&gt;products&lt;/font&gt;&lt;/div&gt;" style="rounded=1;whiteSpace=wrap;html=1;fillColor=#f5f5f5;strokeColor=#666666;gradientColor=#b3b3b3;" vertex="1" parent="tewQSbM_v_hu95GglgQI-1">
          <mxGeometry x="610" y="170" width="140" height="50" as="geometry" />
        </mxCell>
        <mxCell id="tewQSbM_v_hu95GglgQI-33" value="&lt;font style=&quot;font-size: 10px;&quot;&gt;store&lt;/font&gt;" style="rounded=1;whiteSpace=wrap;html=1;fillColor=#f5f5f5;strokeColor=#666666;gradientColor=#b3b3b3;" vertex="1" parent="tewQSbM_v_hu95GglgQI-1">
          <mxGeometry x="610" y="370" width="140" height="50" as="geometry" />
        </mxCell>
        <mxCell id="tewQSbM_v_hu95GglgQI-34" value="&lt;div&gt;&lt;font style=&quot;font-size: 9px;&quot;&gt;store_products&lt;/font&gt;&lt;/div&gt;" style="rounded=1;whiteSpace=wrap;html=1;fillColor=#f5f5f5;strokeColor=#666666;gradientColor=#b3b3b3;" vertex="1" parent="tewQSbM_v_hu95GglgQI-1">
          <mxGeometry x="610" y="260" width="140" height="50" as="geometry" />
        </mxCell>
        <mxCell id="tewQSbM_v_hu95GglgQI-35" value="&lt;font style=&quot;font-size: 10px;&quot;&gt;sales_details&lt;/font&gt;" style="rounded=1;whiteSpace=wrap;html=1;fillColor=#f5f5f5;strokeColor=#666666;gradientColor=#b3b3b3;" vertex="1" parent="tewQSbM_v_hu95GglgQI-1">
          <mxGeometry x="610" y="470" width="140" height="50" as="geometry" />
        </mxCell>
        <mxCell id="tewQSbM_v_hu95GglgQI-36" value="&lt;font style=&quot;font-size: 10px;&quot;&gt;ship_details&lt;/font&gt;" style="rounded=1;whiteSpace=wrap;html=1;fillColor=#f5f5f5;strokeColor=#666666;gradientColor=#b3b3b3;" vertex="1" parent="tewQSbM_v_hu95GglgQI-1">
          <mxGeometry x="610" y="570" width="140" height="50" as="geometry" />
        </mxCell>
        <mxCell id="tewQSbM_v_hu95GglgQI-37" value="&lt;font style=&quot;font-size: 10px;&quot;&gt;sales_person&lt;/font&gt;&lt;div&gt;&lt;font style=&quot;font-size: 10px;&quot;&gt;&lt;br&gt;&lt;/font&gt;&lt;/div&gt;" style="rounded=1;whiteSpace=wrap;html=1;fillColor=#f5f5f5;strokeColor=#666666;gradientColor=#b3b3b3;" vertex="1" parent="tewQSbM_v_hu95GglgQI-1">
          <mxGeometry x="610" y="660" width="140" height="40" as="geometry" />
        </mxCell>
        <mxCell id="tewQSbM_v_hu95GglgQI-43" value="" style="rounded=1;whiteSpace=wrap;html=1;fillColor=none;strokeColor=#666666;fillStyle=hatch;gradientColor=#b3b3b3;" vertex="1" parent="tewQSbM_v_hu95GglgQI-1">
          <mxGeometry x="960" y="50" width="160" height="670" as="geometry" />
        </mxCell>
        <mxCell id="tewQSbM_v_hu95GglgQI-44" value="gold_layer" style="rounded=1;whiteSpace=wrap;html=1;fillColor=#ffcd28;strokeColor=#d79b00;gradientColor=#ffa500;" vertex="1" parent="tewQSbM_v_hu95GglgQI-1">
          <mxGeometry x="960" y="20" width="160" height="30" as="geometry" />
        </mxCell>
        <mxCell id="tewQSbM_v_hu95GglgQI-45" value="&lt;div&gt;&lt;font style=&quot;font-size: 10px;&quot;&gt;fact_sales_order&lt;/font&gt;&lt;/div&gt;" style="rounded=1;whiteSpace=wrap;html=1;fillColor=#f5f5f5;strokeColor=#666666;gradientColor=#b3b3b3;" vertex="1" parent="tewQSbM_v_hu95GglgQI-1">
          <mxGeometry x="970" y="80" width="140" height="50" as="geometry" />
        </mxCell>
        <mxCell id="tewQSbM_v_hu95GglgQI-46" value="&lt;div&gt;&lt;font style=&quot;font-size: 10px;&quot;&gt;fact_order_ship&lt;/font&gt;&lt;/div&gt;" style="rounded=1;whiteSpace=wrap;html=1;fillColor=#f5f5f5;strokeColor=#666666;gradientColor=#b3b3b3;" vertex="1" parent="tewQSbM_v_hu95GglgQI-1">
          <mxGeometry x="970" y="170" width="140" height="50" as="geometry" />
        </mxCell>
        <mxCell id="tewQSbM_v_hu95GglgQI-47" value="&lt;font style=&quot;font-size: 10px;&quot;&gt;dim_produts&lt;/font&gt;" style="rounded=1;whiteSpace=wrap;html=1;fillColor=#f5f5f5;strokeColor=#666666;gradientColor=#b3b3b3;" vertex="1" parent="tewQSbM_v_hu95GglgQI-1">
          <mxGeometry x="970" y="370" width="140" height="50" as="geometry" />
        </mxCell>
        <mxCell id="tewQSbM_v_hu95GglgQI-48" value="&lt;div&gt;&lt;font style=&quot;font-size: 9px;&quot;&gt;dim_customers&lt;/font&gt;&lt;/div&gt;" style="rounded=1;whiteSpace=wrap;html=1;fillColor=#f5f5f5;strokeColor=#666666;gradientColor=#b3b3b3;" vertex="1" parent="tewQSbM_v_hu95GglgQI-1">
          <mxGeometry x="970" y="260" width="140" height="50" as="geometry" />
        </mxCell>
        <mxCell id="tewQSbM_v_hu95GglgQI-49" value="&lt;font style=&quot;font-size: 10px;&quot;&gt;fact_store_products&lt;/font&gt;" style="rounded=1;whiteSpace=wrap;html=1;fillColor=#f5f5f5;strokeColor=#666666;gradientColor=#b3b3b3;" vertex="1" parent="tewQSbM_v_hu95GglgQI-1">
          <mxGeometry x="970" y="470" width="140" height="50" as="geometry" />
        </mxCell>
        <mxCell id="tewQSbM_v_hu95GglgQI-50" value="&lt;font style=&quot;font-size: 10px;&quot;&gt;dim_store&lt;/font&gt;" style="rounded=1;whiteSpace=wrap;html=1;fillColor=#f5f5f5;strokeColor=#666666;gradientColor=#b3b3b3;" vertex="1" parent="tewQSbM_v_hu95GglgQI-1">
          <mxGeometry x="970" y="570" width="140" height="50" as="geometry" />
        </mxCell>
        <mxCell id="tewQSbM_v_hu95GglgQI-51" value="&lt;div&gt;&lt;font style=&quot;font-size: 10px;&quot;&gt;dim_sales_person&lt;/font&gt;&lt;/div&gt;" style="rounded=1;whiteSpace=wrap;html=1;fillColor=#f5f5f5;strokeColor=#666666;gradientColor=#b3b3b3;" vertex="1" parent="tewQSbM_v_hu95GglgQI-1">
          <mxGeometry x="970" y="660" width="140" height="40" as="geometry" />
        </mxCell>
        <mxCell id="tewQSbM_v_hu95GglgQI-52" value="" style="endArrow=classic;html=1;rounded=0;entryX=0;entryY=0.25;entryDx=0;entryDy=0;jumpStyle=gap;" edge="1" parent="tewQSbM_v_hu95GglgQI-1" target="tewQSbM_v_hu95GglgQI-45" source="tewQSbM_v_hu95GglgQI-35">
          <mxGeometry width="50" height="50" relative="1" as="geometry">
            <mxPoint x="660" y="490" as="sourcePoint" />
            <mxPoint x="710" y="440" as="targetPoint" />
          </mxGeometry>
        </mxCell>
        <mxCell id="tewQSbM_v_hu95GglgQI-53" value="" style="endArrow=classic;html=1;rounded=0;entryX=0;entryY=0.5;entryDx=0;entryDy=0;jumpStyle=gap;exitX=0.45;exitY=0.96;exitDx=0;exitDy=0;exitPerimeter=0;" edge="1" parent="tewQSbM_v_hu95GglgQI-1" target="tewQSbM_v_hu95GglgQI-48" source="tewQSbM_v_hu95GglgQI-31">
          <mxGeometry width="50" height="50" relative="1" as="geometry">
            <mxPoint x="660" y="110" as="sourcePoint" />
            <mxPoint x="710" y="60" as="targetPoint" />
          </mxGeometry>
        </mxCell>
        <mxCell id="tewQSbM_v_hu95GglgQI-54" value="" style="endArrow=classic;html=1;rounded=0;entryX=0;entryY=0.75;entryDx=0;entryDy=0;jumpStyle=gap;exitX=0.5;exitY=1;exitDx=0;exitDy=0;" edge="1" parent="tewQSbM_v_hu95GglgQI-1" target="tewQSbM_v_hu95GglgQI-47" source="tewQSbM_v_hu95GglgQI-32">
          <mxGeometry width="50" height="50" relative="1" as="geometry">
            <mxPoint x="660" y="200" as="sourcePoint" />
            <mxPoint x="710" y="150" as="targetPoint" />
          </mxGeometry>
        </mxCell>
        <mxCell id="tewQSbM_v_hu95GglgQI-55" value="" style="endArrow=classic;html=1;rounded=0;entryX=0;entryY=0.5;entryDx=0;entryDy=0;jumpStyle=gap;exitX=0.5;exitY=1;exitDx=0;exitDy=0;" edge="1" parent="tewQSbM_v_hu95GglgQI-1" target="tewQSbM_v_hu95GglgQI-49" source="tewQSbM_v_hu95GglgQI-34">
          <mxGeometry width="50" height="50" relative="1" as="geometry">
            <mxPoint x="660" y="290" as="sourcePoint" />
            <mxPoint x="710" y="240" as="targetPoint" />
          </mxGeometry>
        </mxCell>
        <mxCell id="tewQSbM_v_hu95GglgQI-56" value="" style="endArrow=classic;html=1;rounded=0;entryX=0;entryY=0.75;entryDx=0;entryDy=0;jumpStyle=gap;exitX=0.5;exitY=1;exitDx=0;exitDy=0;" edge="1" parent="tewQSbM_v_hu95GglgQI-1" target="tewQSbM_v_hu95GglgQI-50" source="tewQSbM_v_hu95GglgQI-33">
          <mxGeometry width="50" height="50" relative="1" as="geometry">
            <mxPoint x="660" y="400" as="sourcePoint" />
            <mxPoint x="710" y="350" as="targetPoint" />
          </mxGeometry>
        </mxCell>
        <mxCell id="tewQSbM_v_hu95GglgQI-57" value="" style="endArrow=classic;html=1;rounded=0;entryX=0;entryY=0.5;entryDx=0;entryDy=0;jumpStyle=gap;" edge="1" parent="tewQSbM_v_hu95GglgQI-1" target="tewQSbM_v_hu95GglgQI-46" source="tewQSbM_v_hu95GglgQI-36">
          <mxGeometry width="50" height="50" relative="1" as="geometry">
            <mxPoint x="660" y="600" as="sourcePoint" />
            <mxPoint x="710" y="550" as="targetPoint" />
          </mxGeometry>
        </mxCell>
        <mxCell id="tewQSbM_v_hu95GglgQI-58" value="" style="endArrow=classic;html=1;rounded=0;entryX=0;entryY=0.5;entryDx=0;entryDy=0;jumpStyle=gap;exitX=1;exitY=0.5;exitDx=0;exitDy=0;" edge="1" parent="tewQSbM_v_hu95GglgQI-1" target="tewQSbM_v_hu95GglgQI-51" source="tewQSbM_v_hu95GglgQI-37">
          <mxGeometry width="50" height="50" relative="1" as="geometry">
            <mxPoint x="660" y="680" as="sourcePoint" />
            <mxPoint x="710" y="630" as="targetPoint" />
          </mxGeometry>
        </mxCell>
        <mxCell id="feJ6pTajdaKRzX50Xj6--3" value="" style="endArrow=classic;html=1;rounded=0;exitX=0.955;exitY=0.52;exitDx=0;exitDy=0;exitPerimeter=0;jumpStyle=gap;entryX=0;entryY=0.5;entryDx=0;entryDy=0;" edge="1" parent="tewQSbM_v_hu95GglgQI-1" source="tewQSbM_v_hu95GglgQI-5" target="tewQSbM_v_hu95GglgQI-20">
          <mxGeometry width="50" height="50" relative="1" as="geometry">
            <mxPoint x="170" y="490" as="sourcePoint" />
            <mxPoint x="220" y="440" as="targetPoint" />
          </mxGeometry>
        </mxCell>
        <mxCell id="feJ6pTajdaKRzX50Xj6--4" value="" style="endArrow=classic;html=1;rounded=0;exitX=0.938;exitY=0.84;exitDx=0;exitDy=0;exitPerimeter=0;jumpStyle=gap;entryX=0;entryY=0.75;entryDx=0;entryDy=0;" edge="1" parent="tewQSbM_v_hu95GglgQI-1" source="tewQSbM_v_hu95GglgQI-5" target="tewQSbM_v_hu95GglgQI-21">
          <mxGeometry width="50" height="50" relative="1" as="geometry">
            <mxPoint x="180" y="530" as="sourcePoint" />
            <mxPoint x="230" y="480" as="targetPoint" />
          </mxGeometry>
        </mxCell>
        <mxCell id="feJ6pTajdaKRzX50Xj6--5" value="" style="endArrow=classic;html=1;rounded=0;exitX=0.906;exitY=0.6;exitDx=0;exitDy=0;exitPerimeter=0;jumpStyle=gap;entryX=0;entryY=0.5;entryDx=0;entryDy=0;" edge="1" parent="tewQSbM_v_hu95GglgQI-1" source="tewQSbM_v_hu95GglgQI-5" target="tewQSbM_v_hu95GglgQI-23">
          <mxGeometry width="50" height="50" relative="1" as="geometry">
            <mxPoint x="190" y="570" as="sourcePoint" />
            <mxPoint x="240" y="520" as="targetPoint" />
          </mxGeometry>
        </mxCell>
        <mxCell id="feJ6pTajdaKRzX50Xj6--7" value="" style="endArrow=classic;html=1;rounded=0;jumpStyle=gap;entryX=0;entryY=0.5;entryDx=0;entryDy=0;" edge="1" parent="tewQSbM_v_hu95GglgQI-1" source="tewQSbM_v_hu95GglgQI-5" target="tewQSbM_v_hu95GglgQI-25">
          <mxGeometry width="50" height="50" relative="1" as="geometry">
            <mxPoint x="170" y="730" as="sourcePoint" />
            <mxPoint x="220" y="680" as="targetPoint" />
          </mxGeometry>
        </mxCell>
        <mxCell id="feJ6pTajdaKRzX50Xj6--10" value="" style="endArrow=classic;html=1;rounded=0;jumpStyle=gap;entryX=0;entryY=0.25;entryDx=0;entryDy=0;" edge="1" parent="tewQSbM_v_hu95GglgQI-1" target="tewQSbM_v_hu95GglgQI-22">
          <mxGeometry width="50" height="50" relative="1" as="geometry">
            <mxPoint x="120" y="590" as="sourcePoint" />
            <mxPoint x="220" y="550" as="targetPoint" />
          </mxGeometry>
        </mxCell>
        <mxCell id="feJ6pTajdaKRzX50Xj6--11" value="" style="endArrow=classic;html=1;rounded=0;jumpStyle=gap;" edge="1" parent="tewQSbM_v_hu95GglgQI-1" target="tewQSbM_v_hu95GglgQI-26">
          <mxGeometry width="50" height="50" relative="1" as="geometry">
            <mxPoint x="130" y="600" as="sourcePoint" />
            <mxPoint x="220" y="590" as="targetPoint" />
          </mxGeometry>
        </mxCell>
        <mxCell id="feJ6pTajdaKRzX50Xj6--13" value="" style="endArrow=classic;html=1;rounded=0;exitX=0.971;exitY=0.92;exitDx=0;exitDy=0;exitPerimeter=0;jumpStyle=gap;entryX=0;entryY=0.5;entryDx=0;entryDy=0;" edge="1" parent="tewQSbM_v_hu95GglgQI-1" source="tewQSbM_v_hu95GglgQI-5" target="tewQSbM_v_hu95GglgQI-28">
          <mxGeometry width="50" height="50" relative="1" as="geometry">
            <mxPoint x="180" y="670" as="sourcePoint" />
            <mxPoint x="230" y="620" as="targetPoint" />
          </mxGeometry>
        </mxCell>
        <mxCell id="feJ6pTajdaKRzX50Xj6--15" value="" style="endArrow=classic;html=1;rounded=0;exitX=0.958;exitY=0.54;exitDx=0;exitDy=0;exitPerimeter=0;entryX=0;entryY=0.75;entryDx=0;entryDy=0;" edge="1" parent="tewQSbM_v_hu95GglgQI-1" source="tewQSbM_v_hu95GglgQI-4" target="tewQSbM_v_hu95GglgQI-9">
          <mxGeometry width="50" height="50" relative="1" as="geometry">
            <mxPoint x="130" y="220" as="sourcePoint" />
            <mxPoint x="180" y="170" as="targetPoint" />
          </mxGeometry>
        </mxCell>
        <mxCell id="feJ6pTajdaKRzX50Xj6--16" value="" style="endArrow=classic;html=1;rounded=0;entryX=0;entryY=0.5;entryDx=0;entryDy=0;" edge="1" parent="tewQSbM_v_hu95GglgQI-1" target="tewQSbM_v_hu95GglgQI-11">
          <mxGeometry width="50" height="50" relative="1" as="geometry">
            <mxPoint x="120" y="230" as="sourcePoint" />
            <mxPoint x="180" y="190" as="targetPoint" />
          </mxGeometry>
        </mxCell>
        <mxCell id="feJ6pTajdaKRzX50Xj6--17" value="" style="endArrow=classic;html=1;rounded=0;entryX=0;entryY=0.5;entryDx=0;entryDy=0;" edge="1" parent="tewQSbM_v_hu95GglgQI-1">
          <mxGeometry width="50" height="50" relative="1" as="geometry">
            <mxPoint x="120" y="236" as="sourcePoint" />
            <mxPoint x="285.8" y="152.5" as="targetPoint" />
            <Array as="points">
              <mxPoint x="195.8" y="212.5" />
            </Array>
          </mxGeometry>
        </mxCell>
        <mxCell id="feJ6pTajdaKRzX50Xj6--18" value="" style="endArrow=classic;html=1;rounded=0;entryX=0;entryY=0.5;entryDx=0;entryDy=0;exitX=0.974;exitY=0.88;exitDx=0;exitDy=0;exitPerimeter=0;" edge="1" parent="tewQSbM_v_hu95GglgQI-1" source="tewQSbM_v_hu95GglgQI-4">
          <mxGeometry width="50" height="50" relative="1" as="geometry">
            <mxPoint x="120" y="300" as="sourcePoint" />
            <mxPoint x="285.8" y="216.5" as="targetPoint" />
            <Array as="points">
              <mxPoint x="190" y="240" />
            </Array>
          </mxGeometry>
        </mxCell>
        <mxCell id="feJ6pTajdaKRzX50Xj6--19" value="" style="endArrow=classic;html=1;rounded=0;entryX=0;entryY=0.5;entryDx=0;entryDy=0;" edge="1" parent="tewQSbM_v_hu95GglgQI-1">
          <mxGeometry width="50" height="50" relative="1" as="geometry">
            <mxPoint x="120" y="240" as="sourcePoint" />
            <mxPoint x="289.8" y="250" as="targetPoint" />
            <Array as="points">
              <mxPoint x="170" y="250" />
            </Array>
          </mxGeometry>
        </mxCell>
        <mxCell id="feJ6pTajdaKRzX50Xj6--20" value="" style="endArrow=classic;html=1;rounded=0;entryX=0;entryY=0.5;entryDx=0;entryDy=0;" edge="1" parent="tewQSbM_v_hu95GglgQI-1">
          <mxGeometry width="50" height="50" relative="1" as="geometry">
            <mxPoint x="120" y="240" as="sourcePoint" />
            <mxPoint x="280" y="280" as="targetPoint" />
            <Array as="points">
              <mxPoint x="160.2" y="290" />
            </Array>
          </mxGeometry>
        </mxCell>
        <mxCell id="feJ6pTajdaKRzX50Xj6--21" value="" style="endArrow=classic;html=1;rounded=0;entryX=0;entryY=0.25;entryDx=0;entryDy=0;jumpStyle=gap;" edge="1" parent="tewQSbM_v_hu95GglgQI-1" target="tewQSbM_v_hu95GglgQI-31">
          <mxGeometry width="50" height="50" relative="1" as="geometry">
            <mxPoint x="420" y="90" as="sourcePoint" />
            <mxPoint x="470" y="40" as="targetPoint" />
          </mxGeometry>
        </mxCell>
        <mxCell id="feJ6pTajdaKRzX50Xj6--23" value="" style="endArrow=classic;html=1;rounded=0;jumpStyle=gap;" edge="1" parent="tewQSbM_v_hu95GglgQI-1">
          <mxGeometry width="50" height="50" relative="1" as="geometry">
            <mxPoint x="420" y="440" as="sourcePoint" />
            <mxPoint x="610" y="90" as="targetPoint" />
          </mxGeometry>
        </mxCell>
        <mxCell id="feJ6pTajdaKRzX50Xj6--24" value="" style="endArrow=classic;html=1;rounded=0;entryX=0;entryY=0.25;entryDx=0;entryDy=0;jumpStyle=gap;" edge="1" parent="tewQSbM_v_hu95GglgQI-1" target="tewQSbM_v_hu95GglgQI-32">
          <mxGeometry width="50" height="50" relative="1" as="geometry">
            <mxPoint x="420" y="130" as="sourcePoint" />
            <mxPoint x="470" y="80" as="targetPoint" />
          </mxGeometry>
        </mxCell>
        <mxCell id="feJ6pTajdaKRzX50Xj6--25" value="" style="endArrow=classic;html=1;rounded=0;entryX=0.063;entryY=0.209;entryDx=0;entryDy=0;entryPerimeter=0;jumpStyle=gap;" edge="1" parent="tewQSbM_v_hu95GglgQI-1" target="tewQSbM_v_hu95GglgQI-29">
          <mxGeometry width="50" height="50" relative="1" as="geometry">
            <mxPoint x="420" y="480" as="sourcePoint" />
            <mxPoint x="470" y="430" as="targetPoint" />
          </mxGeometry>
        </mxCell>
        <mxCell id="feJ6pTajdaKRzX50Xj6--26" value="" style="endArrow=classic;html=1;rounded=0;entryX=0;entryY=0.25;entryDx=0;entryDy=0;jumpStyle=gap;" edge="1" parent="tewQSbM_v_hu95GglgQI-1" target="tewQSbM_v_hu95GglgQI-34">
          <mxGeometry width="50" height="50" relative="1" as="geometry">
            <mxPoint x="420" y="170" as="sourcePoint" />
            <mxPoint x="470" y="120" as="targetPoint" />
          </mxGeometry>
        </mxCell>
        <mxCell id="feJ6pTajdaKRzX50Xj6--27" value="" style="endArrow=classic;html=1;rounded=0;jumpStyle=gap;" edge="1" parent="tewQSbM_v_hu95GglgQI-1">
          <mxGeometry width="50" height="50" relative="1" as="geometry">
            <mxPoint x="420" y="520" as="sourcePoint" />
            <mxPoint x="610" y="270" as="targetPoint" />
          </mxGeometry>
        </mxCell>
        <mxCell id="feJ6pTajdaKRzX50Xj6--28" value="" style="endArrow=classic;html=1;rounded=0;entryX=0;entryY=0.5;entryDx=0;entryDy=0;jumpStyle=gap;" edge="1" parent="tewQSbM_v_hu95GglgQI-1" target="tewQSbM_v_hu95GglgQI-33">
          <mxGeometry width="50" height="50" relative="1" as="geometry">
            <mxPoint x="420" y="210" as="sourcePoint" />
            <mxPoint x="470" y="160" as="targetPoint" />
          </mxGeometry>
        </mxCell>
        <mxCell id="feJ6pTajdaKRzX50Xj6--29" value="" style="endArrow=classic;html=1;rounded=0;entryX=0;entryY=0.5;entryDx=0;entryDy=0;jumpStyle=gap;" edge="1" parent="tewQSbM_v_hu95GglgQI-1" target="tewQSbM_v_hu95GglgQI-33">
          <mxGeometry width="50" height="50" relative="1" as="geometry">
            <mxPoint x="420" y="560" as="sourcePoint" />
            <mxPoint x="470" y="510" as="targetPoint" />
          </mxGeometry>
        </mxCell>
        <mxCell id="feJ6pTajdaKRzX50Xj6--30" value="" style="endArrow=classic;html=1;rounded=0;entryX=0;entryY=0.5;entryDx=0;entryDy=0;jumpStyle=gap;" edge="1" parent="tewQSbM_v_hu95GglgQI-1" target="tewQSbM_v_hu95GglgQI-35">
          <mxGeometry width="50" height="50" relative="1" as="geometry">
            <mxPoint x="420" y="250" as="sourcePoint" />
            <mxPoint x="470" y="200" as="targetPoint" />
          </mxGeometry>
        </mxCell>
        <mxCell id="feJ6pTajdaKRzX50Xj6--31" value="" style="endArrow=classic;html=1;rounded=0;jumpStyle=gap;" edge="1" parent="tewQSbM_v_hu95GglgQI-1">
          <mxGeometry width="50" height="50" relative="1" as="geometry">
            <mxPoint x="420" y="600" as="sourcePoint" />
            <mxPoint x="610" y="490" as="targetPoint" />
          </mxGeometry>
        </mxCell>
        <mxCell id="feJ6pTajdaKRzX50Xj6--32" value="" style="endArrow=classic;html=1;rounded=0;entryX=0;entryY=0.5;entryDx=0;entryDy=0;jumpStyle=gap;" edge="1" parent="tewQSbM_v_hu95GglgQI-1" target="tewQSbM_v_hu95GglgQI-36">
          <mxGeometry width="50" height="50" relative="1" as="geometry">
            <mxPoint x="420" y="640" as="sourcePoint" />
            <mxPoint x="470" y="590" as="targetPoint" />
          </mxGeometry>
        </mxCell>
        <mxCell id="feJ6pTajdaKRzX50Xj6--34" value="" style="endArrow=classic;html=1;rounded=0;entryX=0;entryY=0.75;entryDx=0;entryDy=0;jumpStyle=gap;" edge="1" parent="tewQSbM_v_hu95GglgQI-1" target="tewQSbM_v_hu95GglgQI-36">
          <mxGeometry width="50" height="50" relative="1" as="geometry">
            <mxPoint x="420" y="290" as="sourcePoint" />
            <mxPoint x="470" y="240" as="targetPoint" />
          </mxGeometry>
        </mxCell>
        <mxCell id="feJ6pTajdaKRzX50Xj6--35" value="" style="endArrow=classic;html=1;rounded=0;entryX=0;entryY=0.5;entryDx=0;entryDy=0;jumpStyle=gap;" edge="1" parent="tewQSbM_v_hu95GglgQI-1" target="tewQSbM_v_hu95GglgQI-37">
          <mxGeometry width="50" height="50" relative="1" as="geometry">
            <mxPoint x="420" y="680" as="sourcePoint" />
            <mxPoint x="470" y="630" as="targetPoint" />
          </mxGeometry>
        </mxCell>
      </root>
    </mxGraphModel>
  </diagram>
  <diagram id="odyfKnNTq5x4F0b44iBe" name="Page-4">
    <mxGraphModel dx="3021" dy="3684" grid="1" gridSize="10" guides="1" tooltips="1" connect="1" arrows="1" fold="1" page="1" pageScale="1" pageWidth="827" pageHeight="1169" math="0" shadow="0">
      <root>
        <mxCell id="0" />
        <mxCell id="1" parent="0" />
        <mxCell id="sAAskOqrYEOwbhvDMz5j-11" value="gold.dim_customers" style="shape=table;startSize=30;container=1;collapsible=1;childLayout=tableLayout;fixedRows=1;rowLines=0;fontStyle=1;align=center;resizeLast=1;html=1;rounded=1;fillColor=#fff2cc;gradientColor=#ffd966;strokeColor=#d6b656;" vertex="1" parent="1">
          <mxGeometry x="-260" y="-520" width="180" height="280" as="geometry" />
        </mxCell>
        <mxCell id="sAAskOqrYEOwbhvDMz5j-12" value="" style="shape=tableRow;horizontal=0;startSize=0;swimlaneHead=0;swimlaneBody=0;fillColor=none;collapsible=0;dropTarget=0;points=[[0,0.5],[1,0.5]];portConstraint=eastwest;top=0;left=0;right=0;bottom=1;fontSize=14;" vertex="1" parent="sAAskOqrYEOwbhvDMz5j-11">
          <mxGeometry y="30" width="180" height="30" as="geometry" />
        </mxCell>
        <mxCell id="sAAskOqrYEOwbhvDMz5j-13" value="PK" style="shape=partialRectangle;connectable=0;fillColor=none;top=0;left=0;bottom=0;right=0;fontStyle=1;overflow=hidden;whiteSpace=wrap;html=1;fontSize=14;" vertex="1" parent="sAAskOqrYEOwbhvDMz5j-12">
          <mxGeometry width="30" height="30" as="geometry">
            <mxRectangle width="30" height="30" as="alternateBounds" />
          </mxGeometry>
        </mxCell>
        <mxCell id="sAAskOqrYEOwbhvDMz5j-14" value="customer_id" style="shape=partialRectangle;connectable=0;fillColor=none;top=0;left=0;bottom=0;right=0;align=left;spacingLeft=6;fontStyle=5;overflow=hidden;whiteSpace=wrap;html=1;fontSize=14;" vertex="1" parent="sAAskOqrYEOwbhvDMz5j-12">
          <mxGeometry x="30" width="150" height="30" as="geometry">
            <mxRectangle width="150" height="30" as="alternateBounds" />
          </mxGeometry>
        </mxCell>
        <mxCell id="sAAskOqrYEOwbhvDMz5j-15" value="" style="shape=tableRow;horizontal=0;startSize=0;swimlaneHead=0;swimlaneBody=0;fillColor=none;collapsible=0;dropTarget=0;points=[[0,0.5],[1,0.5]];portConstraint=eastwest;top=0;left=0;right=0;bottom=0;fontSize=14;" vertex="1" parent="sAAskOqrYEOwbhvDMz5j-11">
          <mxGeometry y="60" width="180" height="30" as="geometry" />
        </mxCell>
        <mxCell id="sAAskOqrYEOwbhvDMz5j-16" value="" style="shape=partialRectangle;connectable=0;fillColor=none;top=0;left=0;bottom=0;right=0;editable=1;overflow=hidden;whiteSpace=wrap;html=1;fontSize=14;" vertex="1" parent="sAAskOqrYEOwbhvDMz5j-15">
          <mxGeometry width="30" height="30" as="geometry">
            <mxRectangle width="30" height="30" as="alternateBounds" />
          </mxGeometry>
        </mxCell>
        <mxCell id="sAAskOqrYEOwbhvDMz5j-17" value="customer_full_name" style="shape=partialRectangle;connectable=0;fillColor=none;top=0;left=0;bottom=0;right=0;align=left;spacingLeft=6;overflow=hidden;whiteSpace=wrap;html=1;fontSize=14;" vertex="1" parent="sAAskOqrYEOwbhvDMz5j-15">
          <mxGeometry x="30" width="150" height="30" as="geometry">
            <mxRectangle width="150" height="30" as="alternateBounds" />
          </mxGeometry>
        </mxCell>
        <mxCell id="sAAskOqrYEOwbhvDMz5j-18" value="" style="shape=tableRow;horizontal=0;startSize=0;swimlaneHead=0;swimlaneBody=0;fillColor=none;collapsible=0;dropTarget=0;points=[[0,0.5],[1,0.5]];portConstraint=eastwest;top=0;left=0;right=0;bottom=0;fontSize=14;" vertex="1" parent="sAAskOqrYEOwbhvDMz5j-11">
          <mxGeometry y="90" width="180" height="30" as="geometry" />
        </mxCell>
        <mxCell id="sAAskOqrYEOwbhvDMz5j-19" value="" style="shape=partialRectangle;connectable=0;fillColor=none;top=0;left=0;bottom=0;right=0;editable=1;overflow=hidden;whiteSpace=wrap;html=1;fontSize=14;" vertex="1" parent="sAAskOqrYEOwbhvDMz5j-18">
          <mxGeometry width="30" height="30" as="geometry">
            <mxRectangle width="30" height="30" as="alternateBounds" />
          </mxGeometry>
        </mxCell>
        <mxCell id="sAAskOqrYEOwbhvDMz5j-20" value="customer_address" style="shape=partialRectangle;connectable=0;fillColor=none;top=0;left=0;bottom=0;right=0;align=left;spacingLeft=6;overflow=hidden;whiteSpace=wrap;html=1;fontSize=14;" vertex="1" parent="sAAskOqrYEOwbhvDMz5j-18">
          <mxGeometry x="30" width="150" height="30" as="geometry">
            <mxRectangle width="150" height="30" as="alternateBounds" />
          </mxGeometry>
        </mxCell>
        <mxCell id="sAAskOqrYEOwbhvDMz5j-21" value="" style="shape=tableRow;horizontal=0;startSize=0;swimlaneHead=0;swimlaneBody=0;fillColor=none;collapsible=0;dropTarget=0;points=[[0,0.5],[1,0.5]];portConstraint=eastwest;top=0;left=0;right=0;bottom=0;fontSize=14;" vertex="1" parent="sAAskOqrYEOwbhvDMz5j-11">
          <mxGeometry y="120" width="180" height="30" as="geometry" />
        </mxCell>
        <mxCell id="sAAskOqrYEOwbhvDMz5j-22" value="" style="shape=partialRectangle;connectable=0;fillColor=none;top=0;left=0;bottom=0;right=0;editable=1;overflow=hidden;whiteSpace=wrap;html=1;fontSize=14;" vertex="1" parent="sAAskOqrYEOwbhvDMz5j-21">
          <mxGeometry width="30" height="30" as="geometry">
            <mxRectangle width="30" height="30" as="alternateBounds" />
          </mxGeometry>
        </mxCell>
        <mxCell id="sAAskOqrYEOwbhvDMz5j-23" value="customer_state" style="shape=partialRectangle;connectable=0;fillColor=none;top=0;left=0;bottom=0;right=0;align=left;spacingLeft=6;overflow=hidden;whiteSpace=wrap;html=1;fontSize=14;" vertex="1" parent="sAAskOqrYEOwbhvDMz5j-21">
          <mxGeometry x="30" width="150" height="30" as="geometry">
            <mxRectangle width="150" height="30" as="alternateBounds" />
          </mxGeometry>
        </mxCell>
        <mxCell id="sAAskOqrYEOwbhvDMz5j-28" style="shape=tableRow;horizontal=0;startSize=0;swimlaneHead=0;swimlaneBody=0;fillColor=none;collapsible=0;dropTarget=0;points=[[0,0.5],[1,0.5]];portConstraint=eastwest;top=0;left=0;right=0;bottom=0;fontSize=14;" vertex="1" parent="sAAskOqrYEOwbhvDMz5j-11">
          <mxGeometry y="150" width="180" height="30" as="geometry" />
        </mxCell>
        <mxCell id="sAAskOqrYEOwbhvDMz5j-29" style="shape=partialRectangle;connectable=0;fillColor=none;top=0;left=0;bottom=0;right=0;editable=1;overflow=hidden;whiteSpace=wrap;html=1;fontSize=14;" vertex="1" parent="sAAskOqrYEOwbhvDMz5j-28">
          <mxGeometry width="30" height="30" as="geometry">
            <mxRectangle width="30" height="30" as="alternateBounds" />
          </mxGeometry>
        </mxCell>
        <mxCell id="sAAskOqrYEOwbhvDMz5j-30" value="customer_country" style="shape=partialRectangle;connectable=0;fillColor=none;top=0;left=0;bottom=0;right=0;align=left;spacingLeft=6;overflow=hidden;whiteSpace=wrap;html=1;fontSize=14;" vertex="1" parent="sAAskOqrYEOwbhvDMz5j-28">
          <mxGeometry x="30" width="150" height="30" as="geometry">
            <mxRectangle width="150" height="30" as="alternateBounds" />
          </mxGeometry>
        </mxCell>
        <mxCell id="sAAskOqrYEOwbhvDMz5j-25" style="shape=tableRow;horizontal=0;startSize=0;swimlaneHead=0;swimlaneBody=0;fillColor=none;collapsible=0;dropTarget=0;points=[[0,0.5],[1,0.5]];portConstraint=eastwest;top=0;left=0;right=0;bottom=0;fontSize=14;" vertex="1" parent="sAAskOqrYEOwbhvDMz5j-11">
          <mxGeometry y="180" width="180" height="30" as="geometry" />
        </mxCell>
        <mxCell id="sAAskOqrYEOwbhvDMz5j-26" style="shape=partialRectangle;connectable=0;fillColor=none;top=0;left=0;bottom=0;right=0;editable=1;overflow=hidden;whiteSpace=wrap;html=1;fontSize=14;" vertex="1" parent="sAAskOqrYEOwbhvDMz5j-25">
          <mxGeometry width="30" height="30" as="geometry">
            <mxRectangle width="30" height="30" as="alternateBounds" />
          </mxGeometry>
        </mxCell>
        <mxCell id="sAAskOqrYEOwbhvDMz5j-27" value="customer_postcode" style="shape=partialRectangle;connectable=0;fillColor=none;top=0;left=0;bottom=0;right=0;align=left;spacingLeft=6;overflow=hidden;whiteSpace=wrap;html=1;fontSize=14;" vertex="1" parent="sAAskOqrYEOwbhvDMz5j-25">
          <mxGeometry x="30" width="150" height="30" as="geometry">
            <mxRectangle width="150" height="30" as="alternateBounds" />
          </mxGeometry>
        </mxCell>
        <mxCell id="sAAskOqrYEOwbhvDMz5j-31" style="shape=tableRow;horizontal=0;startSize=0;swimlaneHead=0;swimlaneBody=0;fillColor=none;collapsible=0;dropTarget=0;points=[[0,0.5],[1,0.5]];portConstraint=eastwest;top=0;left=0;right=0;bottom=0;fontSize=14;" vertex="1" parent="sAAskOqrYEOwbhvDMz5j-11">
          <mxGeometry y="210" width="180" height="30" as="geometry" />
        </mxCell>
        <mxCell id="sAAskOqrYEOwbhvDMz5j-32" style="shape=partialRectangle;connectable=0;fillColor=none;top=0;left=0;bottom=0;right=0;editable=1;overflow=hidden;whiteSpace=wrap;html=1;fontSize=14;" vertex="1" parent="sAAskOqrYEOwbhvDMz5j-31">
          <mxGeometry width="30" height="30" as="geometry">
            <mxRectangle width="30" height="30" as="alternateBounds" />
          </mxGeometry>
        </mxCell>
        <mxCell id="sAAskOqrYEOwbhvDMz5j-33" value="customer_age" style="shape=partialRectangle;connectable=0;fillColor=none;top=0;left=0;bottom=0;right=0;align=left;spacingLeft=6;overflow=hidden;whiteSpace=wrap;html=1;fontSize=14;" vertex="1" parent="sAAskOqrYEOwbhvDMz5j-31">
          <mxGeometry x="30" width="150" height="30" as="geometry">
            <mxRectangle width="150" height="30" as="alternateBounds" />
          </mxGeometry>
        </mxCell>
        <mxCell id="sAAskOqrYEOwbhvDMz5j-34" style="shape=tableRow;horizontal=0;startSize=0;swimlaneHead=0;swimlaneBody=0;fillColor=none;collapsible=0;dropTarget=0;points=[[0,0.5],[1,0.5]];portConstraint=eastwest;top=0;left=0;right=0;bottom=0;fontSize=14;" vertex="1" parent="sAAskOqrYEOwbhvDMz5j-11">
          <mxGeometry y="240" width="180" height="30" as="geometry" />
        </mxCell>
        <mxCell id="sAAskOqrYEOwbhvDMz5j-35" style="shape=partialRectangle;connectable=0;fillColor=none;top=0;left=0;bottom=0;right=0;editable=1;overflow=hidden;whiteSpace=wrap;html=1;fontSize=14;" vertex="1" parent="sAAskOqrYEOwbhvDMz5j-34">
          <mxGeometry width="30" height="30" as="geometry">
            <mxRectangle width="30" height="30" as="alternateBounds" />
          </mxGeometry>
        </mxCell>
        <mxCell id="sAAskOqrYEOwbhvDMz5j-36" value="customer_gender" style="shape=partialRectangle;connectable=0;fillColor=none;top=0;left=0;bottom=0;right=0;align=left;spacingLeft=6;overflow=hidden;whiteSpace=wrap;html=1;fontSize=14;" vertex="1" parent="sAAskOqrYEOwbhvDMz5j-34">
          <mxGeometry x="30" width="150" height="30" as="geometry">
            <mxRectangle width="150" height="30" as="alternateBounds" />
          </mxGeometry>
        </mxCell>
        <mxCell id="sAAskOqrYEOwbhvDMz5j-37" value="gold.dim_products" style="shape=table;startSize=30;container=1;collapsible=1;childLayout=tableLayout;fixedRows=1;rowLines=0;fontStyle=1;align=center;resizeLast=1;html=1;rounded=1;fillColor=#fff2cc;gradientColor=#ffd966;strokeColor=#d6b656;" vertex="1" parent="1">
          <mxGeometry x="-260" y="-1310" width="180" height="180" as="geometry" />
        </mxCell>
        <mxCell id="sAAskOqrYEOwbhvDMz5j-38" value="" style="shape=tableRow;horizontal=0;startSize=0;swimlaneHead=0;swimlaneBody=0;fillColor=none;collapsible=0;dropTarget=0;points=[[0,0.5],[1,0.5]];portConstraint=eastwest;top=0;left=0;right=0;bottom=1;fontSize=14;" vertex="1" parent="sAAskOqrYEOwbhvDMz5j-37">
          <mxGeometry y="30" width="180" height="30" as="geometry" />
        </mxCell>
        <mxCell id="sAAskOqrYEOwbhvDMz5j-39" value="PK" style="shape=partialRectangle;connectable=0;fillColor=none;top=0;left=0;bottom=0;right=0;fontStyle=1;overflow=hidden;whiteSpace=wrap;html=1;fontSize=14;" vertex="1" parent="sAAskOqrYEOwbhvDMz5j-38">
          <mxGeometry width="30" height="30" as="geometry">
            <mxRectangle width="30" height="30" as="alternateBounds" />
          </mxGeometry>
        </mxCell>
        <mxCell id="sAAskOqrYEOwbhvDMz5j-40" value="product_id" style="shape=partialRectangle;connectable=0;fillColor=none;top=0;left=0;bottom=0;right=0;align=left;spacingLeft=6;fontStyle=5;overflow=hidden;whiteSpace=wrap;html=1;fontSize=14;" vertex="1" parent="sAAskOqrYEOwbhvDMz5j-38">
          <mxGeometry x="30" width="150" height="30" as="geometry">
            <mxRectangle width="150" height="30" as="alternateBounds" />
          </mxGeometry>
        </mxCell>
        <mxCell id="sAAskOqrYEOwbhvDMz5j-41" value="" style="shape=tableRow;horizontal=0;startSize=0;swimlaneHead=0;swimlaneBody=0;fillColor=none;collapsible=0;dropTarget=0;points=[[0,0.5],[1,0.5]];portConstraint=eastwest;top=0;left=0;right=0;bottom=0;fontSize=14;" vertex="1" parent="sAAskOqrYEOwbhvDMz5j-37">
          <mxGeometry y="60" width="180" height="30" as="geometry" />
        </mxCell>
        <mxCell id="sAAskOqrYEOwbhvDMz5j-42" value="" style="shape=partialRectangle;connectable=0;fillColor=none;top=0;left=0;bottom=0;right=0;editable=1;overflow=hidden;whiteSpace=wrap;html=1;fontSize=14;" vertex="1" parent="sAAskOqrYEOwbhvDMz5j-41">
          <mxGeometry width="30" height="30" as="geometry">
            <mxRectangle width="30" height="30" as="alternateBounds" />
          </mxGeometry>
        </mxCell>
        <mxCell id="sAAskOqrYEOwbhvDMz5j-43" value="product_name" style="shape=partialRectangle;connectable=0;fillColor=none;top=0;left=0;bottom=0;right=0;align=left;spacingLeft=6;overflow=hidden;whiteSpace=wrap;html=1;fontSize=14;" vertex="1" parent="sAAskOqrYEOwbhvDMz5j-41">
          <mxGeometry x="30" width="150" height="30" as="geometry">
            <mxRectangle width="150" height="30" as="alternateBounds" />
          </mxGeometry>
        </mxCell>
        <mxCell id="sAAskOqrYEOwbhvDMz5j-44" value="" style="shape=tableRow;horizontal=0;startSize=0;swimlaneHead=0;swimlaneBody=0;fillColor=none;collapsible=0;dropTarget=0;points=[[0,0.5],[1,0.5]];portConstraint=eastwest;top=0;left=0;right=0;bottom=0;fontSize=14;" vertex="1" parent="sAAskOqrYEOwbhvDMz5j-37">
          <mxGeometry y="90" width="180" height="30" as="geometry" />
        </mxCell>
        <mxCell id="sAAskOqrYEOwbhvDMz5j-45" value="" style="shape=partialRectangle;connectable=0;fillColor=none;top=0;left=0;bottom=0;right=0;editable=1;overflow=hidden;whiteSpace=wrap;html=1;fontSize=14;" vertex="1" parent="sAAskOqrYEOwbhvDMz5j-44">
          <mxGeometry width="30" height="30" as="geometry">
            <mxRectangle width="30" height="30" as="alternateBounds" />
          </mxGeometry>
        </mxCell>
        <mxCell id="sAAskOqrYEOwbhvDMz5j-46" value="product_category" style="shape=partialRectangle;connectable=0;fillColor=none;top=0;left=0;bottom=0;right=0;align=left;spacingLeft=6;overflow=hidden;whiteSpace=wrap;html=1;fontSize=14;" vertex="1" parent="sAAskOqrYEOwbhvDMz5j-44">
          <mxGeometry x="30" width="150" height="30" as="geometry">
            <mxRectangle width="150" height="30" as="alternateBounds" />
          </mxGeometry>
        </mxCell>
        <mxCell id="sAAskOqrYEOwbhvDMz5j-47" value="" style="shape=tableRow;horizontal=0;startSize=0;swimlaneHead=0;swimlaneBody=0;fillColor=none;collapsible=0;dropTarget=0;points=[[0,0.5],[1,0.5]];portConstraint=eastwest;top=0;left=0;right=0;bottom=0;fontSize=14;" vertex="1" parent="sAAskOqrYEOwbhvDMz5j-37">
          <mxGeometry y="120" width="180" height="30" as="geometry" />
        </mxCell>
        <mxCell id="sAAskOqrYEOwbhvDMz5j-48" value="" style="shape=partialRectangle;connectable=0;fillColor=none;top=0;left=0;bottom=0;right=0;editable=1;overflow=hidden;whiteSpace=wrap;html=1;fontSize=14;" vertex="1" parent="sAAskOqrYEOwbhvDMz5j-47">
          <mxGeometry width="30" height="30" as="geometry">
            <mxRectangle width="30" height="30" as="alternateBounds" />
          </mxGeometry>
        </mxCell>
        <mxCell id="sAAskOqrYEOwbhvDMz5j-49" value="product_number" style="shape=partialRectangle;connectable=0;fillColor=none;top=0;left=0;bottom=0;right=0;align=left;spacingLeft=6;overflow=hidden;whiteSpace=wrap;html=1;fontSize=14;" vertex="1" parent="sAAskOqrYEOwbhvDMz5j-47">
          <mxGeometry x="30" width="150" height="30" as="geometry">
            <mxRectangle width="150" height="30" as="alternateBounds" />
          </mxGeometry>
        </mxCell>
        <mxCell id="sAAskOqrYEOwbhvDMz5j-50" style="shape=tableRow;horizontal=0;startSize=0;swimlaneHead=0;swimlaneBody=0;fillColor=none;collapsible=0;dropTarget=0;points=[[0,0.5],[1,0.5]];portConstraint=eastwest;top=0;left=0;right=0;bottom=0;fontSize=14;" vertex="1" parent="sAAskOqrYEOwbhvDMz5j-37">
          <mxGeometry y="150" width="180" height="30" as="geometry" />
        </mxCell>
        <mxCell id="sAAskOqrYEOwbhvDMz5j-51" style="shape=partialRectangle;connectable=0;fillColor=none;top=0;left=0;bottom=0;right=0;editable=1;overflow=hidden;whiteSpace=wrap;html=1;fontSize=14;" vertex="1" parent="sAAskOqrYEOwbhvDMz5j-50">
          <mxGeometry width="30" height="30" as="geometry">
            <mxRectangle width="30" height="30" as="alternateBounds" />
          </mxGeometry>
        </mxCell>
        <mxCell id="sAAskOqrYEOwbhvDMz5j-52" value="product_price_usd" style="shape=partialRectangle;connectable=0;fillColor=none;top=0;left=0;bottom=0;right=0;align=left;spacingLeft=6;overflow=hidden;whiteSpace=wrap;html=1;fontSize=14;" vertex="1" parent="sAAskOqrYEOwbhvDMz5j-50">
          <mxGeometry x="30" width="150" height="30" as="geometry">
            <mxRectangle width="150" height="30" as="alternateBounds" />
          </mxGeometry>
        </mxCell>
        <mxCell id="sAAskOqrYEOwbhvDMz5j-99" value="gold_dim_store" style="shape=table;startSize=30;container=1;collapsible=1;childLayout=tableLayout;fixedRows=1;rowLines=0;fontStyle=1;align=center;resizeLast=1;html=1;rounded=1;fillColor=#fff2cc;gradientColor=#ffd966;strokeColor=#d6b656;" vertex="1" parent="1">
          <mxGeometry x="-260" y="-760" width="180" height="180" as="geometry" />
        </mxCell>
        <mxCell id="sAAskOqrYEOwbhvDMz5j-100" value="" style="shape=tableRow;horizontal=0;startSize=0;swimlaneHead=0;swimlaneBody=0;fillColor=none;collapsible=0;dropTarget=0;points=[[0,0.5],[1,0.5]];portConstraint=eastwest;top=0;left=0;right=0;bottom=1;fontSize=14;" vertex="1" parent="sAAskOqrYEOwbhvDMz5j-99">
          <mxGeometry y="30" width="180" height="30" as="geometry" />
        </mxCell>
        <mxCell id="sAAskOqrYEOwbhvDMz5j-101" value="PK" style="shape=partialRectangle;connectable=0;fillColor=none;top=0;left=0;bottom=0;right=0;fontStyle=1;overflow=hidden;whiteSpace=wrap;html=1;fontSize=14;" vertex="1" parent="sAAskOqrYEOwbhvDMz5j-100">
          <mxGeometry width="30" height="30" as="geometry">
            <mxRectangle width="30" height="30" as="alternateBounds" />
          </mxGeometry>
        </mxCell>
        <mxCell id="sAAskOqrYEOwbhvDMz5j-102" value="store_location_id" style="shape=partialRectangle;connectable=0;fillColor=none;top=0;left=0;bottom=0;right=0;align=left;spacingLeft=6;fontStyle=5;overflow=hidden;whiteSpace=wrap;html=1;fontSize=14;" vertex="1" parent="sAAskOqrYEOwbhvDMz5j-100">
          <mxGeometry x="30" width="150" height="30" as="geometry">
            <mxRectangle width="150" height="30" as="alternateBounds" />
          </mxGeometry>
        </mxCell>
        <mxCell id="sAAskOqrYEOwbhvDMz5j-103" value="" style="shape=tableRow;horizontal=0;startSize=0;swimlaneHead=0;swimlaneBody=0;fillColor=none;collapsible=0;dropTarget=0;points=[[0,0.5],[1,0.5]];portConstraint=eastwest;top=0;left=0;right=0;bottom=0;fontSize=14;" vertex="1" parent="sAAskOqrYEOwbhvDMz5j-99">
          <mxGeometry y="60" width="180" height="30" as="geometry" />
        </mxCell>
        <mxCell id="sAAskOqrYEOwbhvDMz5j-104" value="" style="shape=partialRectangle;connectable=0;fillColor=none;top=0;left=0;bottom=0;right=0;editable=1;overflow=hidden;whiteSpace=wrap;html=1;fontSize=14;" vertex="1" parent="sAAskOqrYEOwbhvDMz5j-103">
          <mxGeometry width="30" height="30" as="geometry">
            <mxRectangle width="30" height="30" as="alternateBounds" />
          </mxGeometry>
        </mxCell>
        <mxCell id="sAAskOqrYEOwbhvDMz5j-105" value="store_address" style="shape=partialRectangle;connectable=0;fillColor=none;top=0;left=0;bottom=0;right=0;align=left;spacingLeft=6;overflow=hidden;whiteSpace=wrap;html=1;fontSize=14;" vertex="1" parent="sAAskOqrYEOwbhvDMz5j-103">
          <mxGeometry x="30" width="150" height="30" as="geometry">
            <mxRectangle width="150" height="30" as="alternateBounds" />
          </mxGeometry>
        </mxCell>
        <mxCell id="sAAskOqrYEOwbhvDMz5j-106" value="" style="shape=tableRow;horizontal=0;startSize=0;swimlaneHead=0;swimlaneBody=0;fillColor=none;collapsible=0;dropTarget=0;points=[[0,0.5],[1,0.5]];portConstraint=eastwest;top=0;left=0;right=0;bottom=0;fontSize=14;" vertex="1" parent="sAAskOqrYEOwbhvDMz5j-99">
          <mxGeometry y="90" width="180" height="30" as="geometry" />
        </mxCell>
        <mxCell id="sAAskOqrYEOwbhvDMz5j-107" value="" style="shape=partialRectangle;connectable=0;fillColor=none;top=0;left=0;bottom=0;right=0;editable=1;overflow=hidden;whiteSpace=wrap;html=1;fontSize=14;" vertex="1" parent="sAAskOqrYEOwbhvDMz5j-106">
          <mxGeometry width="30" height="30" as="geometry">
            <mxRectangle width="30" height="30" as="alternateBounds" />
          </mxGeometry>
        </mxCell>
        <mxCell id="sAAskOqrYEOwbhvDMz5j-108" value="store_city" style="shape=partialRectangle;connectable=0;fillColor=none;top=0;left=0;bottom=0;right=0;align=left;spacingLeft=6;overflow=hidden;whiteSpace=wrap;html=1;fontSize=14;" vertex="1" parent="sAAskOqrYEOwbhvDMz5j-106">
          <mxGeometry x="30" width="150" height="30" as="geometry">
            <mxRectangle width="150" height="30" as="alternateBounds" />
          </mxGeometry>
        </mxCell>
        <mxCell id="sAAskOqrYEOwbhvDMz5j-109" value="" style="shape=tableRow;horizontal=0;startSize=0;swimlaneHead=0;swimlaneBody=0;fillColor=none;collapsible=0;dropTarget=0;points=[[0,0.5],[1,0.5]];portConstraint=eastwest;top=0;left=0;right=0;bottom=0;fontSize=14;" vertex="1" parent="sAAskOqrYEOwbhvDMz5j-99">
          <mxGeometry y="120" width="180" height="30" as="geometry" />
        </mxCell>
        <mxCell id="sAAskOqrYEOwbhvDMz5j-110" value="" style="shape=partialRectangle;connectable=0;fillColor=none;top=0;left=0;bottom=0;right=0;editable=1;overflow=hidden;whiteSpace=wrap;html=1;fontSize=14;" vertex="1" parent="sAAskOqrYEOwbhvDMz5j-109">
          <mxGeometry width="30" height="30" as="geometry">
            <mxRectangle width="30" height="30" as="alternateBounds" />
          </mxGeometry>
        </mxCell>
        <mxCell id="sAAskOqrYEOwbhvDMz5j-111" value="store_country" style="shape=partialRectangle;connectable=0;fillColor=none;top=0;left=0;bottom=0;right=0;align=left;spacingLeft=6;overflow=hidden;whiteSpace=wrap;html=1;fontSize=14;" vertex="1" parent="sAAskOqrYEOwbhvDMz5j-109">
          <mxGeometry x="30" width="150" height="30" as="geometry">
            <mxRectangle width="150" height="30" as="alternateBounds" />
          </mxGeometry>
        </mxCell>
        <mxCell id="sAAskOqrYEOwbhvDMz5j-112" style="shape=tableRow;horizontal=0;startSize=0;swimlaneHead=0;swimlaneBody=0;fillColor=none;collapsible=0;dropTarget=0;points=[[0,0.5],[1,0.5]];portConstraint=eastwest;top=0;left=0;right=0;bottom=0;fontSize=14;" vertex="1" parent="sAAskOqrYEOwbhvDMz5j-99">
          <mxGeometry y="150" width="180" height="30" as="geometry" />
        </mxCell>
        <mxCell id="sAAskOqrYEOwbhvDMz5j-113" style="shape=partialRectangle;connectable=0;fillColor=none;top=0;left=0;bottom=0;right=0;editable=1;overflow=hidden;whiteSpace=wrap;html=1;fontSize=14;" vertex="1" parent="sAAskOqrYEOwbhvDMz5j-112">
          <mxGeometry width="30" height="30" as="geometry">
            <mxRectangle width="30" height="30" as="alternateBounds" />
          </mxGeometry>
        </mxCell>
        <mxCell id="sAAskOqrYEOwbhvDMz5j-114" value="store_postcode" style="shape=partialRectangle;connectable=0;fillColor=none;top=0;left=0;bottom=0;right=0;align=left;spacingLeft=6;overflow=hidden;whiteSpace=wrap;html=1;fontSize=14;" vertex="1" parent="sAAskOqrYEOwbhvDMz5j-112">
          <mxGeometry x="30" width="150" height="30" as="geometry">
            <mxRectangle width="150" height="30" as="alternateBounds" />
          </mxGeometry>
        </mxCell>
        <mxCell id="sAAskOqrYEOwbhvDMz5j-130" value="gold_dim_sales_person" style="shape=table;startSize=30;container=1;collapsible=1;childLayout=tableLayout;fixedRows=1;rowLines=0;fontStyle=1;align=center;resizeLast=1;html=1;rounded=1;fillColor=#fff2cc;gradientColor=#ffd966;strokeColor=#d6b656;" vertex="1" parent="1">
          <mxGeometry x="-260" y="-1080" width="180" height="270" as="geometry" />
        </mxCell>
        <mxCell id="sAAskOqrYEOwbhvDMz5j-131" value="" style="shape=tableRow;horizontal=0;startSize=0;swimlaneHead=0;swimlaneBody=0;fillColor=none;collapsible=0;dropTarget=0;points=[[0,0.5],[1,0.5]];portConstraint=eastwest;top=0;left=0;right=0;bottom=1;fontSize=14;" vertex="1" parent="sAAskOqrYEOwbhvDMz5j-130">
          <mxGeometry y="30" width="180" height="30" as="geometry" />
        </mxCell>
        <mxCell id="sAAskOqrYEOwbhvDMz5j-132" value="PK" style="shape=partialRectangle;connectable=0;fillColor=none;top=0;left=0;bottom=0;right=0;fontStyle=1;overflow=hidden;whiteSpace=wrap;html=1;fontSize=14;" vertex="1" parent="sAAskOqrYEOwbhvDMz5j-131">
          <mxGeometry width="30" height="30" as="geometry">
            <mxRectangle width="30" height="30" as="alternateBounds" />
          </mxGeometry>
        </mxCell>
        <mxCell id="sAAskOqrYEOwbhvDMz5j-133" value="sales_person_id" style="shape=partialRectangle;connectable=0;fillColor=none;top=0;left=0;bottom=0;right=0;align=left;spacingLeft=6;fontStyle=5;overflow=hidden;whiteSpace=wrap;html=1;fontSize=14;" vertex="1" parent="sAAskOqrYEOwbhvDMz5j-131">
          <mxGeometry x="30" width="150" height="30" as="geometry">
            <mxRectangle width="150" height="30" as="alternateBounds" />
          </mxGeometry>
        </mxCell>
        <mxCell id="sAAskOqrYEOwbhvDMz5j-134" value="" style="shape=tableRow;horizontal=0;startSize=0;swimlaneHead=0;swimlaneBody=0;fillColor=none;collapsible=0;dropTarget=0;points=[[0,0.5],[1,0.5]];portConstraint=eastwest;top=0;left=0;right=0;bottom=0;fontSize=14;" vertex="1" parent="sAAskOqrYEOwbhvDMz5j-130">
          <mxGeometry y="60" width="180" height="30" as="geometry" />
        </mxCell>
        <mxCell id="sAAskOqrYEOwbhvDMz5j-135" value="&lt;b&gt;CK&lt;/b&gt;" style="shape=partialRectangle;connectable=0;fillColor=none;top=0;left=0;bottom=0;right=0;editable=1;overflow=hidden;whiteSpace=wrap;html=1;fontSize=14;" vertex="1" parent="sAAskOqrYEOwbhvDMz5j-134">
          <mxGeometry width="30" height="30" as="geometry">
            <mxRectangle width="30" height="30" as="alternateBounds" />
          </mxGeometry>
        </mxCell>
        <mxCell id="sAAskOqrYEOwbhvDMz5j-136" value="&lt;b&gt;sales_person_key&lt;/b&gt;" style="shape=partialRectangle;connectable=0;fillColor=none;top=0;left=0;bottom=0;right=0;align=left;spacingLeft=6;overflow=hidden;whiteSpace=wrap;html=1;fontSize=14;" vertex="1" parent="sAAskOqrYEOwbhvDMz5j-134">
          <mxGeometry x="30" width="150" height="30" as="geometry">
            <mxRectangle width="150" height="30" as="alternateBounds" />
          </mxGeometry>
        </mxCell>
        <mxCell id="sAAskOqrYEOwbhvDMz5j-137" value="" style="shape=tableRow;horizontal=0;startSize=0;swimlaneHead=0;swimlaneBody=0;fillColor=none;collapsible=0;dropTarget=0;points=[[0,0.5],[1,0.5]];portConstraint=eastwest;top=0;left=0;right=0;bottom=0;fontSize=14;" vertex="1" parent="sAAskOqrYEOwbhvDMz5j-130">
          <mxGeometry y="90" width="180" height="30" as="geometry" />
        </mxCell>
        <mxCell id="sAAskOqrYEOwbhvDMz5j-138" value="" style="shape=partialRectangle;connectable=0;fillColor=none;top=0;left=0;bottom=0;right=0;editable=1;overflow=hidden;whiteSpace=wrap;html=1;fontSize=14;" vertex="1" parent="sAAskOqrYEOwbhvDMz5j-137">
          <mxGeometry width="30" height="30" as="geometry">
            <mxRectangle width="30" height="30" as="alternateBounds" />
          </mxGeometry>
        </mxCell>
        <mxCell id="sAAskOqrYEOwbhvDMz5j-139" value="sales_rep_name" style="shape=partialRectangle;connectable=0;fillColor=none;top=0;left=0;bottom=0;right=0;align=left;spacingLeft=6;overflow=hidden;whiteSpace=wrap;html=1;fontSize=14;" vertex="1" parent="sAAskOqrYEOwbhvDMz5j-137">
          <mxGeometry x="30" width="150" height="30" as="geometry">
            <mxRectangle width="150" height="30" as="alternateBounds" />
          </mxGeometry>
        </mxCell>
        <mxCell id="sAAskOqrYEOwbhvDMz5j-140" value="" style="shape=tableRow;horizontal=0;startSize=0;swimlaneHead=0;swimlaneBody=0;fillColor=none;collapsible=0;dropTarget=0;points=[[0,0.5],[1,0.5]];portConstraint=eastwest;top=0;left=0;right=0;bottom=0;fontSize=14;" vertex="1" parent="sAAskOqrYEOwbhvDMz5j-130">
          <mxGeometry y="120" width="180" height="30" as="geometry" />
        </mxCell>
        <mxCell id="sAAskOqrYEOwbhvDMz5j-141" value="" style="shape=partialRectangle;connectable=0;fillColor=none;top=0;left=0;bottom=0;right=0;editable=1;overflow=hidden;whiteSpace=wrap;html=1;fontSize=14;" vertex="1" parent="sAAskOqrYEOwbhvDMz5j-140">
          <mxGeometry width="30" height="30" as="geometry">
            <mxRectangle width="30" height="30" as="alternateBounds" />
          </mxGeometry>
        </mxCell>
        <mxCell id="sAAskOqrYEOwbhvDMz5j-142" value="store_address" style="shape=partialRectangle;connectable=0;fillColor=none;top=0;left=0;bottom=0;right=0;align=left;spacingLeft=6;overflow=hidden;whiteSpace=wrap;html=1;fontSize=14;" vertex="1" parent="sAAskOqrYEOwbhvDMz5j-140">
          <mxGeometry x="30" width="150" height="30" as="geometry">
            <mxRectangle width="150" height="30" as="alternateBounds" />
          </mxGeometry>
        </mxCell>
        <mxCell id="sAAskOqrYEOwbhvDMz5j-143" style="shape=tableRow;horizontal=0;startSize=0;swimlaneHead=0;swimlaneBody=0;fillColor=none;collapsible=0;dropTarget=0;points=[[0,0.5],[1,0.5]];portConstraint=eastwest;top=0;left=0;right=0;bottom=0;fontSize=14;" vertex="1" parent="sAAskOqrYEOwbhvDMz5j-130">
          <mxGeometry y="150" width="180" height="30" as="geometry" />
        </mxCell>
        <mxCell id="sAAskOqrYEOwbhvDMz5j-144" style="shape=partialRectangle;connectable=0;fillColor=none;top=0;left=0;bottom=0;right=0;editable=1;overflow=hidden;whiteSpace=wrap;html=1;fontSize=14;" vertex="1" parent="sAAskOqrYEOwbhvDMz5j-143">
          <mxGeometry width="30" height="30" as="geometry">
            <mxRectangle width="30" height="30" as="alternateBounds" />
          </mxGeometry>
        </mxCell>
        <mxCell id="sAAskOqrYEOwbhvDMz5j-145" value="store_city" style="shape=partialRectangle;connectable=0;fillColor=none;top=0;left=0;bottom=0;right=0;align=left;spacingLeft=6;overflow=hidden;whiteSpace=wrap;html=1;fontSize=14;" vertex="1" parent="sAAskOqrYEOwbhvDMz5j-143">
          <mxGeometry x="30" width="150" height="30" as="geometry">
            <mxRectangle width="150" height="30" as="alternateBounds" />
          </mxGeometry>
        </mxCell>
        <mxCell id="sAAskOqrYEOwbhvDMz5j-146" style="shape=tableRow;horizontal=0;startSize=0;swimlaneHead=0;swimlaneBody=0;fillColor=none;collapsible=0;dropTarget=0;points=[[0,0.5],[1,0.5]];portConstraint=eastwest;top=0;left=0;right=0;bottom=0;fontSize=14;" vertex="1" parent="sAAskOqrYEOwbhvDMz5j-130">
          <mxGeometry y="180" width="180" height="30" as="geometry" />
        </mxCell>
        <mxCell id="sAAskOqrYEOwbhvDMz5j-147" style="shape=partialRectangle;connectable=0;fillColor=none;top=0;left=0;bottom=0;right=0;editable=1;overflow=hidden;whiteSpace=wrap;html=1;fontSize=14;" vertex="1" parent="sAAskOqrYEOwbhvDMz5j-146">
          <mxGeometry width="30" height="30" as="geometry">
            <mxRectangle width="30" height="30" as="alternateBounds" />
          </mxGeometry>
        </mxCell>
        <mxCell id="sAAskOqrYEOwbhvDMz5j-148" value="store_country" style="shape=partialRectangle;connectable=0;fillColor=none;top=0;left=0;bottom=0;right=0;align=left;spacingLeft=6;overflow=hidden;whiteSpace=wrap;html=1;fontSize=14;" vertex="1" parent="sAAskOqrYEOwbhvDMz5j-146">
          <mxGeometry x="30" width="150" height="30" as="geometry">
            <mxRectangle width="150" height="30" as="alternateBounds" />
          </mxGeometry>
        </mxCell>
        <mxCell id="sAAskOqrYEOwbhvDMz5j-149" style="shape=tableRow;horizontal=0;startSize=0;swimlaneHead=0;swimlaneBody=0;fillColor=none;collapsible=0;dropTarget=0;points=[[0,0.5],[1,0.5]];portConstraint=eastwest;top=0;left=0;right=0;bottom=0;fontSize=14;" vertex="1" parent="sAAskOqrYEOwbhvDMz5j-130">
          <mxGeometry y="210" width="180" height="30" as="geometry" />
        </mxCell>
        <mxCell id="sAAskOqrYEOwbhvDMz5j-150" style="shape=partialRectangle;connectable=0;fillColor=none;top=0;left=0;bottom=0;right=0;editable=1;overflow=hidden;whiteSpace=wrap;html=1;fontSize=14;" vertex="1" parent="sAAskOqrYEOwbhvDMz5j-149">
          <mxGeometry width="30" height="30" as="geometry">
            <mxRectangle width="30" height="30" as="alternateBounds" />
          </mxGeometry>
        </mxCell>
        <mxCell id="sAAskOqrYEOwbhvDMz5j-151" value="store_postcode" style="shape=partialRectangle;connectable=0;fillColor=none;top=0;left=0;bottom=0;right=0;align=left;spacingLeft=6;overflow=hidden;whiteSpace=wrap;html=1;fontSize=14;" vertex="1" parent="sAAskOqrYEOwbhvDMz5j-149">
          <mxGeometry x="30" width="150" height="30" as="geometry">
            <mxRectangle width="150" height="30" as="alternateBounds" />
          </mxGeometry>
        </mxCell>
        <mxCell id="sAAskOqrYEOwbhvDMz5j-152" style="shape=tableRow;horizontal=0;startSize=0;swimlaneHead=0;swimlaneBody=0;fillColor=none;collapsible=0;dropTarget=0;points=[[0,0.5],[1,0.5]];portConstraint=eastwest;top=0;left=0;right=0;bottom=0;fontSize=14;" vertex="1" parent="sAAskOqrYEOwbhvDMz5j-130">
          <mxGeometry y="240" width="180" height="30" as="geometry" />
        </mxCell>
        <mxCell id="sAAskOqrYEOwbhvDMz5j-153" style="shape=partialRectangle;connectable=0;fillColor=none;top=0;left=0;bottom=0;right=0;editable=1;overflow=hidden;whiteSpace=wrap;html=1;fontSize=14;" vertex="1" parent="sAAskOqrYEOwbhvDMz5j-152">
          <mxGeometry width="30" height="30" as="geometry">
            <mxRectangle width="30" height="30" as="alternateBounds" />
          </mxGeometry>
        </mxCell>
        <mxCell id="sAAskOqrYEOwbhvDMz5j-154" value="sales_rep_salary" style="shape=partialRectangle;connectable=0;fillColor=none;top=0;left=0;bottom=0;right=0;align=left;spacingLeft=6;overflow=hidden;whiteSpace=wrap;html=1;fontSize=14;" vertex="1" parent="sAAskOqrYEOwbhvDMz5j-152">
          <mxGeometry x="30" width="150" height="30" as="geometry">
            <mxRectangle width="150" height="30" as="alternateBounds" />
          </mxGeometry>
        </mxCell>
        <mxCell id="sAAskOqrYEOwbhvDMz5j-161" value="gold_fact_sales_order" style="shape=table;startSize=30;container=1;collapsible=1;childLayout=tableLayout;fixedRows=1;rowLines=0;fontStyle=1;align=center;resizeLast=1;html=1;rounded=1;fillColor=#dae8fc;gradientColor=#7ea6e0;strokeColor=#6c8ebf;" vertex="1" parent="1">
          <mxGeometry x="40" y="-1090" width="180" height="450" as="geometry" />
        </mxCell>
        <mxCell id="sAAskOqrYEOwbhvDMz5j-162" value="" style="shape=tableRow;horizontal=0;startSize=0;swimlaneHead=0;swimlaneBody=0;fillColor=none;collapsible=0;dropTarget=0;points=[[0,0.5],[1,0.5]];portConstraint=eastwest;top=0;left=0;right=0;bottom=1;fontSize=14;" vertex="1" parent="sAAskOqrYEOwbhvDMz5j-161">
          <mxGeometry y="30" width="180" height="30" as="geometry" />
        </mxCell>
        <mxCell id="sAAskOqrYEOwbhvDMz5j-163" value="PK" style="shape=partialRectangle;connectable=0;fillColor=none;top=0;left=0;bottom=0;right=0;fontStyle=1;overflow=hidden;whiteSpace=wrap;html=1;fontSize=14;" vertex="1" parent="sAAskOqrYEOwbhvDMz5j-162">
          <mxGeometry width="30" height="30" as="geometry">
            <mxRectangle width="30" height="30" as="alternateBounds" />
          </mxGeometry>
        </mxCell>
        <mxCell id="sAAskOqrYEOwbhvDMz5j-164" value="order_id" style="shape=partialRectangle;connectable=0;fillColor=none;top=0;left=0;bottom=0;right=0;align=left;spacingLeft=6;fontStyle=5;overflow=hidden;whiteSpace=wrap;html=1;fontSize=14;" vertex="1" parent="sAAskOqrYEOwbhvDMz5j-162">
          <mxGeometry x="30" width="150" height="30" as="geometry">
            <mxRectangle width="150" height="30" as="alternateBounds" />
          </mxGeometry>
        </mxCell>
        <mxCell id="sAAskOqrYEOwbhvDMz5j-165" value="" style="shape=tableRow;horizontal=0;startSize=0;swimlaneHead=0;swimlaneBody=0;fillColor=none;collapsible=0;dropTarget=0;points=[[0,0.5],[1,0.5]];portConstraint=eastwest;top=0;left=0;right=0;bottom=0;fontSize=14;" vertex="1" parent="sAAskOqrYEOwbhvDMz5j-161">
          <mxGeometry y="60" width="180" height="30" as="geometry" />
        </mxCell>
        <mxCell id="sAAskOqrYEOwbhvDMz5j-166" value="&lt;b&gt;CK&lt;/b&gt;" style="shape=partialRectangle;connectable=0;fillColor=none;top=0;left=0;bottom=0;right=0;editable=1;overflow=hidden;whiteSpace=wrap;html=1;fontSize=14;" vertex="1" parent="sAAskOqrYEOwbhvDMz5j-165">
          <mxGeometry width="30" height="30" as="geometry">
            <mxRectangle width="30" height="30" as="alternateBounds" />
          </mxGeometry>
        </mxCell>
        <mxCell id="sAAskOqrYEOwbhvDMz5j-167" value="sales_order_key" style="shape=partialRectangle;connectable=0;fillColor=none;top=0;left=0;bottom=0;right=0;align=left;spacingLeft=6;overflow=hidden;whiteSpace=wrap;html=1;fontSize=14;" vertex="1" parent="sAAskOqrYEOwbhvDMz5j-165">
          <mxGeometry x="30" width="150" height="30" as="geometry">
            <mxRectangle width="150" height="30" as="alternateBounds" />
          </mxGeometry>
        </mxCell>
        <mxCell id="sAAskOqrYEOwbhvDMz5j-168" value="" style="shape=tableRow;horizontal=0;startSize=0;swimlaneHead=0;swimlaneBody=0;fillColor=none;collapsible=0;dropTarget=0;points=[[0,0.5],[1,0.5]];portConstraint=eastwest;top=0;left=0;right=0;bottom=0;fontSize=14;" vertex="1" parent="sAAskOqrYEOwbhvDMz5j-161">
          <mxGeometry y="90" width="180" height="30" as="geometry" />
        </mxCell>
        <mxCell id="sAAskOqrYEOwbhvDMz5j-169" value="&lt;b&gt;FK&lt;/b&gt;" style="shape=partialRectangle;connectable=0;fillColor=none;top=0;left=0;bottom=0;right=0;editable=1;overflow=hidden;whiteSpace=wrap;html=1;fontSize=14;" vertex="1" parent="sAAskOqrYEOwbhvDMz5j-168">
          <mxGeometry width="30" height="30" as="geometry">
            <mxRectangle width="30" height="30" as="alternateBounds" />
          </mxGeometry>
        </mxCell>
        <mxCell id="sAAskOqrYEOwbhvDMz5j-170" value="store_location_id" style="shape=partialRectangle;connectable=0;fillColor=none;top=0;left=0;bottom=0;right=0;align=left;spacingLeft=6;overflow=hidden;whiteSpace=wrap;html=1;fontSize=14;" vertex="1" parent="sAAskOqrYEOwbhvDMz5j-168">
          <mxGeometry x="30" width="150" height="30" as="geometry">
            <mxRectangle width="150" height="30" as="alternateBounds" />
          </mxGeometry>
        </mxCell>
        <mxCell id="sAAskOqrYEOwbhvDMz5j-171" value="" style="shape=tableRow;horizontal=0;startSize=0;swimlaneHead=0;swimlaneBody=0;fillColor=none;collapsible=0;dropTarget=0;points=[[0,0.5],[1,0.5]];portConstraint=eastwest;top=0;left=0;right=0;bottom=0;fontSize=14;" vertex="1" parent="sAAskOqrYEOwbhvDMz5j-161">
          <mxGeometry y="120" width="180" height="30" as="geometry" />
        </mxCell>
        <mxCell id="sAAskOqrYEOwbhvDMz5j-172" value="&lt;b&gt;FK&lt;/b&gt;" style="shape=partialRectangle;connectable=0;fillColor=none;top=0;left=0;bottom=0;right=0;editable=1;overflow=hidden;whiteSpace=wrap;html=1;fontSize=14;" vertex="1" parent="sAAskOqrYEOwbhvDMz5j-171">
          <mxGeometry width="30" height="30" as="geometry">
            <mxRectangle width="30" height="30" as="alternateBounds" />
          </mxGeometry>
        </mxCell>
        <mxCell id="sAAskOqrYEOwbhvDMz5j-173" value="customer_id" style="shape=partialRectangle;connectable=0;fillColor=none;top=0;left=0;bottom=0;right=0;align=left;spacingLeft=6;overflow=hidden;whiteSpace=wrap;html=1;fontSize=14;" vertex="1" parent="sAAskOqrYEOwbhvDMz5j-171">
          <mxGeometry x="30" width="150" height="30" as="geometry">
            <mxRectangle width="150" height="30" as="alternateBounds" />
          </mxGeometry>
        </mxCell>
        <mxCell id="sAAskOqrYEOwbhvDMz5j-174" style="shape=tableRow;horizontal=0;startSize=0;swimlaneHead=0;swimlaneBody=0;fillColor=none;collapsible=0;dropTarget=0;points=[[0,0.5],[1,0.5]];portConstraint=eastwest;top=0;left=0;right=0;bottom=0;fontSize=14;" vertex="1" parent="sAAskOqrYEOwbhvDMz5j-161">
          <mxGeometry y="150" width="180" height="30" as="geometry" />
        </mxCell>
        <mxCell id="sAAskOqrYEOwbhvDMz5j-175" value="&lt;b&gt;FK&lt;/b&gt;" style="shape=partialRectangle;connectable=0;fillColor=none;top=0;left=0;bottom=0;right=0;editable=1;overflow=hidden;whiteSpace=wrap;html=1;fontSize=14;" vertex="1" parent="sAAskOqrYEOwbhvDMz5j-174">
          <mxGeometry width="30" height="30" as="geometry">
            <mxRectangle width="30" height="30" as="alternateBounds" />
          </mxGeometry>
        </mxCell>
        <mxCell id="sAAskOqrYEOwbhvDMz5j-176" value="sales_person_id" style="shape=partialRectangle;connectable=0;fillColor=none;top=0;left=0;bottom=0;right=0;align=left;spacingLeft=6;overflow=hidden;whiteSpace=wrap;html=1;fontSize=14;" vertex="1" parent="sAAskOqrYEOwbhvDMz5j-174">
          <mxGeometry x="30" width="150" height="30" as="geometry">
            <mxRectangle width="150" height="30" as="alternateBounds" />
          </mxGeometry>
        </mxCell>
        <mxCell id="sAAskOqrYEOwbhvDMz5j-277" style="shape=tableRow;horizontal=0;startSize=0;swimlaneHead=0;swimlaneBody=0;fillColor=none;collapsible=0;dropTarget=0;points=[[0,0.5],[1,0.5]];portConstraint=eastwest;top=0;left=0;right=0;bottom=0;fontSize=14;" vertex="1" parent="sAAskOqrYEOwbhvDMz5j-161">
          <mxGeometry y="180" width="180" height="30" as="geometry" />
        </mxCell>
        <mxCell id="sAAskOqrYEOwbhvDMz5j-278" value="FK" style="shape=partialRectangle;connectable=0;fillColor=none;top=0;left=0;bottom=0;right=0;editable=1;overflow=hidden;whiteSpace=wrap;html=1;fontSize=14;" vertex="1" parent="sAAskOqrYEOwbhvDMz5j-277">
          <mxGeometry width="30" height="30" as="geometry">
            <mxRectangle width="30" height="30" as="alternateBounds" />
          </mxGeometry>
        </mxCell>
        <mxCell id="sAAskOqrYEOwbhvDMz5j-279" value="product_id" style="shape=partialRectangle;connectable=0;fillColor=none;top=0;left=0;bottom=0;right=0;align=left;spacingLeft=6;overflow=hidden;whiteSpace=wrap;html=1;fontSize=14;" vertex="1" parent="sAAskOqrYEOwbhvDMz5j-277">
          <mxGeometry x="30" width="150" height="30" as="geometry">
            <mxRectangle width="150" height="30" as="alternateBounds" />
          </mxGeometry>
        </mxCell>
        <mxCell id="sAAskOqrYEOwbhvDMz5j-177" style="shape=tableRow;horizontal=0;startSize=0;swimlaneHead=0;swimlaneBody=0;fillColor=none;collapsible=0;dropTarget=0;points=[[0,0.5],[1,0.5]];portConstraint=eastwest;top=0;left=0;right=0;bottom=0;fontSize=14;" vertex="1" parent="sAAskOqrYEOwbhvDMz5j-161">
          <mxGeometry y="210" width="180" height="30" as="geometry" />
        </mxCell>
        <mxCell id="sAAskOqrYEOwbhvDMz5j-178" style="shape=partialRectangle;connectable=0;fillColor=none;top=0;left=0;bottom=0;right=0;editable=1;overflow=hidden;whiteSpace=wrap;html=1;fontSize=14;" vertex="1" parent="sAAskOqrYEOwbhvDMz5j-177">
          <mxGeometry width="30" height="30" as="geometry">
            <mxRectangle width="30" height="30" as="alternateBounds" />
          </mxGeometry>
        </mxCell>
        <mxCell id="sAAskOqrYEOwbhvDMz5j-179" value="ordered_quantity" style="shape=partialRectangle;connectable=0;fillColor=none;top=0;left=0;bottom=0;right=0;align=left;spacingLeft=6;overflow=hidden;whiteSpace=wrap;html=1;fontSize=14;" vertex="1" parent="sAAskOqrYEOwbhvDMz5j-177">
          <mxGeometry x="30" width="150" height="30" as="geometry">
            <mxRectangle width="150" height="30" as="alternateBounds" />
          </mxGeometry>
        </mxCell>
        <mxCell id="sAAskOqrYEOwbhvDMz5j-180" style="shape=tableRow;horizontal=0;startSize=0;swimlaneHead=0;swimlaneBody=0;fillColor=none;collapsible=0;dropTarget=0;points=[[0,0.5],[1,0.5]];portConstraint=eastwest;top=0;left=0;right=0;bottom=0;fontSize=14;" vertex="1" parent="sAAskOqrYEOwbhvDMz5j-161">
          <mxGeometry y="240" width="180" height="30" as="geometry" />
        </mxCell>
        <mxCell id="sAAskOqrYEOwbhvDMz5j-181" style="shape=partialRectangle;connectable=0;fillColor=none;top=0;left=0;bottom=0;right=0;editable=1;overflow=hidden;whiteSpace=wrap;html=1;fontSize=14;" vertex="1" parent="sAAskOqrYEOwbhvDMz5j-180">
          <mxGeometry width="30" height="30" as="geometry">
            <mxRectangle width="30" height="30" as="alternateBounds" />
          </mxGeometry>
        </mxCell>
        <mxCell id="sAAskOqrYEOwbhvDMz5j-182" value="cancelled_quantity" style="shape=partialRectangle;connectable=0;fillColor=none;top=0;left=0;bottom=0;right=0;align=left;spacingLeft=6;overflow=hidden;whiteSpace=wrap;html=1;fontSize=14;" vertex="1" parent="sAAskOqrYEOwbhvDMz5j-180">
          <mxGeometry x="30" width="150" height="30" as="geometry">
            <mxRectangle width="150" height="30" as="alternateBounds" />
          </mxGeometry>
        </mxCell>
        <mxCell id="sAAskOqrYEOwbhvDMz5j-183" style="shape=tableRow;horizontal=0;startSize=0;swimlaneHead=0;swimlaneBody=0;fillColor=none;collapsible=0;dropTarget=0;points=[[0,0.5],[1,0.5]];portConstraint=eastwest;top=0;left=0;right=0;bottom=0;fontSize=14;" vertex="1" parent="sAAskOqrYEOwbhvDMz5j-161">
          <mxGeometry y="270" width="180" height="30" as="geometry" />
        </mxCell>
        <mxCell id="sAAskOqrYEOwbhvDMz5j-184" style="shape=partialRectangle;connectable=0;fillColor=none;top=0;left=0;bottom=0;right=0;editable=1;overflow=hidden;whiteSpace=wrap;html=1;fontSize=14;" vertex="1" parent="sAAskOqrYEOwbhvDMz5j-183">
          <mxGeometry width="30" height="30" as="geometry">
            <mxRectangle width="30" height="30" as="alternateBounds" />
          </mxGeometry>
        </mxCell>
        <mxCell id="sAAskOqrYEOwbhvDMz5j-185" value="returned_quantity" style="shape=partialRectangle;connectable=0;fillColor=none;top=0;left=0;bottom=0;right=0;align=left;spacingLeft=6;overflow=hidden;whiteSpace=wrap;html=1;fontSize=14;" vertex="1" parent="sAAskOqrYEOwbhvDMz5j-183">
          <mxGeometry x="30" width="150" height="30" as="geometry">
            <mxRectangle width="150" height="30" as="alternateBounds" />
          </mxGeometry>
        </mxCell>
        <mxCell id="sAAskOqrYEOwbhvDMz5j-186" style="shape=tableRow;horizontal=0;startSize=0;swimlaneHead=0;swimlaneBody=0;fillColor=none;collapsible=0;dropTarget=0;points=[[0,0.5],[1,0.5]];portConstraint=eastwest;top=0;left=0;right=0;bottom=0;fontSize=14;" vertex="1" parent="sAAskOqrYEOwbhvDMz5j-161">
          <mxGeometry y="300" width="180" height="30" as="geometry" />
        </mxCell>
        <mxCell id="sAAskOqrYEOwbhvDMz5j-187" style="shape=partialRectangle;connectable=0;fillColor=none;top=0;left=0;bottom=0;right=0;editable=1;overflow=hidden;whiteSpace=wrap;html=1;fontSize=14;" vertex="1" parent="sAAskOqrYEOwbhvDMz5j-186">
          <mxGeometry width="30" height="30" as="geometry">
            <mxRectangle width="30" height="30" as="alternateBounds" />
          </mxGeometry>
        </mxCell>
        <mxCell id="sAAskOqrYEOwbhvDMz5j-188" value="&lt;font style=&quot;font-size: 12px;&quot;&gt;customer_request_date&lt;/font&gt;" style="shape=partialRectangle;connectable=0;fillColor=none;top=0;left=0;bottom=0;right=0;align=left;spacingLeft=6;overflow=hidden;whiteSpace=wrap;html=1;fontSize=14;" vertex="1" parent="sAAskOqrYEOwbhvDMz5j-186">
          <mxGeometry x="30" width="150" height="30" as="geometry">
            <mxRectangle width="150" height="30" as="alternateBounds" />
          </mxGeometry>
        </mxCell>
        <mxCell id="sAAskOqrYEOwbhvDMz5j-189" style="shape=tableRow;horizontal=0;startSize=0;swimlaneHead=0;swimlaneBody=0;fillColor=none;collapsible=0;dropTarget=0;points=[[0,0.5],[1,0.5]];portConstraint=eastwest;top=0;left=0;right=0;bottom=0;fontSize=14;" vertex="1" parent="sAAskOqrYEOwbhvDMz5j-161">
          <mxGeometry y="330" width="180" height="30" as="geometry" />
        </mxCell>
        <mxCell id="sAAskOqrYEOwbhvDMz5j-190" style="shape=partialRectangle;connectable=0;fillColor=none;top=0;left=0;bottom=0;right=0;editable=1;overflow=hidden;whiteSpace=wrap;html=1;fontSize=14;" vertex="1" parent="sAAskOqrYEOwbhvDMz5j-189">
          <mxGeometry width="30" height="30" as="geometry">
            <mxRectangle width="30" height="30" as="alternateBounds" />
          </mxGeometry>
        </mxCell>
        <mxCell id="sAAskOqrYEOwbhvDMz5j-191" value="order_creation_date" style="shape=partialRectangle;connectable=0;fillColor=none;top=0;left=0;bottom=0;right=0;align=left;spacingLeft=6;overflow=hidden;whiteSpace=wrap;html=1;fontSize=14;" vertex="1" parent="sAAskOqrYEOwbhvDMz5j-189">
          <mxGeometry x="30" width="150" height="30" as="geometry">
            <mxRectangle width="150" height="30" as="alternateBounds" />
          </mxGeometry>
        </mxCell>
        <mxCell id="sAAskOqrYEOwbhvDMz5j-192" style="shape=tableRow;horizontal=0;startSize=0;swimlaneHead=0;swimlaneBody=0;fillColor=none;collapsible=0;dropTarget=0;points=[[0,0.5],[1,0.5]];portConstraint=eastwest;top=0;left=0;right=0;bottom=0;fontSize=14;" vertex="1" parent="sAAskOqrYEOwbhvDMz5j-161">
          <mxGeometry y="360" width="180" height="30" as="geometry" />
        </mxCell>
        <mxCell id="sAAskOqrYEOwbhvDMz5j-193" style="shape=partialRectangle;connectable=0;fillColor=none;top=0;left=0;bottom=0;right=0;editable=1;overflow=hidden;whiteSpace=wrap;html=1;fontSize=14;" vertex="1" parent="sAAskOqrYEOwbhvDMz5j-192">
          <mxGeometry width="30" height="30" as="geometry">
            <mxRectangle width="30" height="30" as="alternateBounds" />
          </mxGeometry>
        </mxCell>
        <mxCell id="sAAskOqrYEOwbhvDMz5j-194" value="payment_method" style="shape=partialRectangle;connectable=0;fillColor=none;top=0;left=0;bottom=0;right=0;align=left;spacingLeft=6;overflow=hidden;whiteSpace=wrap;html=1;fontSize=14;" vertex="1" parent="sAAskOqrYEOwbhvDMz5j-192">
          <mxGeometry x="30" width="150" height="30" as="geometry">
            <mxRectangle width="150" height="30" as="alternateBounds" />
          </mxGeometry>
        </mxCell>
        <mxCell id="sAAskOqrYEOwbhvDMz5j-195" style="shape=tableRow;horizontal=0;startSize=0;swimlaneHead=0;swimlaneBody=0;fillColor=none;collapsible=0;dropTarget=0;points=[[0,0.5],[1,0.5]];portConstraint=eastwest;top=0;left=0;right=0;bottom=0;fontSize=14;" vertex="1" parent="sAAskOqrYEOwbhvDMz5j-161">
          <mxGeometry y="390" width="180" height="30" as="geometry" />
        </mxCell>
        <mxCell id="sAAskOqrYEOwbhvDMz5j-196" style="shape=partialRectangle;connectable=0;fillColor=none;top=0;left=0;bottom=0;right=0;editable=1;overflow=hidden;whiteSpace=wrap;html=1;fontSize=14;" vertex="1" parent="sAAskOqrYEOwbhvDMz5j-195">
          <mxGeometry width="30" height="30" as="geometry">
            <mxRectangle width="30" height="30" as="alternateBounds" />
          </mxGeometry>
        </mxCell>
        <mxCell id="sAAskOqrYEOwbhvDMz5j-197" value="product_number" style="shape=partialRectangle;connectable=0;fillColor=none;top=0;left=0;bottom=0;right=0;align=left;spacingLeft=6;overflow=hidden;whiteSpace=wrap;html=1;fontSize=14;" vertex="1" parent="sAAskOqrYEOwbhvDMz5j-195">
          <mxGeometry x="30" width="150" height="30" as="geometry">
            <mxRectangle width="150" height="30" as="alternateBounds" />
          </mxGeometry>
        </mxCell>
        <mxCell id="sAAskOqrYEOwbhvDMz5j-198" style="shape=tableRow;horizontal=0;startSize=0;swimlaneHead=0;swimlaneBody=0;fillColor=none;collapsible=0;dropTarget=0;points=[[0,0.5],[1,0.5]];portConstraint=eastwest;top=0;left=0;right=0;bottom=0;fontSize=14;" vertex="1" parent="sAAskOqrYEOwbhvDMz5j-161">
          <mxGeometry y="420" width="180" height="30" as="geometry" />
        </mxCell>
        <mxCell id="sAAskOqrYEOwbhvDMz5j-199" style="shape=partialRectangle;connectable=0;fillColor=none;top=0;left=0;bottom=0;right=0;editable=1;overflow=hidden;whiteSpace=wrap;html=1;fontSize=14;" vertex="1" parent="sAAskOqrYEOwbhvDMz5j-198">
          <mxGeometry width="30" height="30" as="geometry">
            <mxRectangle width="30" height="30" as="alternateBounds" />
          </mxGeometry>
        </mxCell>
        <mxCell id="sAAskOqrYEOwbhvDMz5j-200" value="invoice_number" style="shape=partialRectangle;connectable=0;fillColor=none;top=0;left=0;bottom=0;right=0;align=left;spacingLeft=6;overflow=hidden;whiteSpace=wrap;html=1;fontSize=14;" vertex="1" parent="sAAskOqrYEOwbhvDMz5j-198">
          <mxGeometry x="30" width="150" height="30" as="geometry">
            <mxRectangle width="150" height="30" as="alternateBounds" />
          </mxGeometry>
        </mxCell>
        <mxCell id="sAAskOqrYEOwbhvDMz5j-210" value="gold_fact_order_ship" style="shape=table;startSize=30;container=1;collapsible=1;childLayout=tableLayout;fixedRows=1;rowLines=0;fontStyle=1;align=center;resizeLast=1;html=1;rounded=1;fillColor=#d5e8d4;gradientColor=#97d077;strokeColor=#82b366;" vertex="1" parent="1">
          <mxGeometry x="290" y="-1080" width="180" height="630" as="geometry" />
        </mxCell>
        <mxCell id="sAAskOqrYEOwbhvDMz5j-211" value="" style="shape=tableRow;horizontal=0;startSize=0;swimlaneHead=0;swimlaneBody=0;fillColor=none;collapsible=0;dropTarget=0;points=[[0,0.5],[1,0.5]];portConstraint=eastwest;top=0;left=0;right=0;bottom=1;fontSize=14;" vertex="1" parent="sAAskOqrYEOwbhvDMz5j-210">
          <mxGeometry y="30" width="180" height="30" as="geometry" />
        </mxCell>
        <mxCell id="sAAskOqrYEOwbhvDMz5j-212" value="PK" style="shape=partialRectangle;connectable=0;fillColor=none;top=0;left=0;bottom=0;right=0;fontStyle=1;overflow=hidden;whiteSpace=wrap;html=1;fontSize=14;" vertex="1" parent="sAAskOqrYEOwbhvDMz5j-211">
          <mxGeometry width="30" height="30" as="geometry">
            <mxRectangle width="30" height="30" as="alternateBounds" />
          </mxGeometry>
        </mxCell>
        <mxCell id="sAAskOqrYEOwbhvDMz5j-213" value="ship_id" style="shape=partialRectangle;connectable=0;fillColor=none;top=0;left=0;bottom=0;right=0;align=left;spacingLeft=6;fontStyle=5;overflow=hidden;whiteSpace=wrap;html=1;fontSize=14;" vertex="1" parent="sAAskOqrYEOwbhvDMz5j-211">
          <mxGeometry x="30" width="150" height="30" as="geometry">
            <mxRectangle width="150" height="30" as="alternateBounds" />
          </mxGeometry>
        </mxCell>
        <mxCell id="sAAskOqrYEOwbhvDMz5j-214" value="" style="shape=tableRow;horizontal=0;startSize=0;swimlaneHead=0;swimlaneBody=0;fillColor=none;collapsible=0;dropTarget=0;points=[[0,0.5],[1,0.5]];portConstraint=eastwest;top=0;left=0;right=0;bottom=0;fontSize=14;" vertex="1" parent="sAAskOqrYEOwbhvDMz5j-210">
          <mxGeometry y="60" width="180" height="30" as="geometry" />
        </mxCell>
        <mxCell id="sAAskOqrYEOwbhvDMz5j-215" value="&lt;b&gt;CK&lt;/b&gt;" style="shape=partialRectangle;connectable=0;fillColor=none;top=0;left=0;bottom=0;right=0;editable=1;overflow=hidden;whiteSpace=wrap;html=1;fontSize=14;" vertex="1" parent="sAAskOqrYEOwbhvDMz5j-214">
          <mxGeometry width="30" height="30" as="geometry">
            <mxRectangle width="30" height="30" as="alternateBounds" />
          </mxGeometry>
        </mxCell>
        <mxCell id="sAAskOqrYEOwbhvDMz5j-216" value="ship_order_key" style="shape=partialRectangle;connectable=0;fillColor=none;top=0;left=0;bottom=0;right=0;align=left;spacingLeft=6;overflow=hidden;whiteSpace=wrap;html=1;fontSize=14;" vertex="1" parent="sAAskOqrYEOwbhvDMz5j-214">
          <mxGeometry x="30" width="150" height="30" as="geometry">
            <mxRectangle width="150" height="30" as="alternateBounds" />
          </mxGeometry>
        </mxCell>
        <mxCell id="sAAskOqrYEOwbhvDMz5j-217" value="" style="shape=tableRow;horizontal=0;startSize=0;swimlaneHead=0;swimlaneBody=0;fillColor=none;collapsible=0;dropTarget=0;points=[[0,0.5],[1,0.5]];portConstraint=eastwest;top=0;left=0;right=0;bottom=0;fontSize=14;" vertex="1" parent="sAAskOqrYEOwbhvDMz5j-210">
          <mxGeometry y="90" width="180" height="30" as="geometry" />
        </mxCell>
        <mxCell id="sAAskOqrYEOwbhvDMz5j-218" value="&lt;b&gt;FK&lt;/b&gt;" style="shape=partialRectangle;connectable=0;fillColor=none;top=0;left=0;bottom=0;right=0;editable=1;overflow=hidden;whiteSpace=wrap;html=1;fontSize=14;" vertex="1" parent="sAAskOqrYEOwbhvDMz5j-217">
          <mxGeometry width="30" height="30" as="geometry">
            <mxRectangle width="30" height="30" as="alternateBounds" />
          </mxGeometry>
        </mxCell>
        <mxCell id="sAAskOqrYEOwbhvDMz5j-219" value="order_id" style="shape=partialRectangle;connectable=0;fillColor=none;top=0;left=0;bottom=0;right=0;align=left;spacingLeft=6;overflow=hidden;whiteSpace=wrap;html=1;fontSize=14;" vertex="1" parent="sAAskOqrYEOwbhvDMz5j-217">
          <mxGeometry x="30" width="150" height="30" as="geometry">
            <mxRectangle width="150" height="30" as="alternateBounds" />
          </mxGeometry>
        </mxCell>
        <mxCell id="sAAskOqrYEOwbhvDMz5j-220" value="" style="shape=tableRow;horizontal=0;startSize=0;swimlaneHead=0;swimlaneBody=0;fillColor=none;collapsible=0;dropTarget=0;points=[[0,0.5],[1,0.5]];portConstraint=eastwest;top=0;left=0;right=0;bottom=0;fontSize=14;" vertex="1" parent="sAAskOqrYEOwbhvDMz5j-210">
          <mxGeometry y="120" width="180" height="30" as="geometry" />
        </mxCell>
        <mxCell id="sAAskOqrYEOwbhvDMz5j-221" value="&lt;b&gt;FK&lt;/b&gt;" style="shape=partialRectangle;connectable=0;fillColor=none;top=0;left=0;bottom=0;right=0;editable=1;overflow=hidden;whiteSpace=wrap;html=1;fontSize=14;" vertex="1" parent="sAAskOqrYEOwbhvDMz5j-220">
          <mxGeometry width="30" height="30" as="geometry">
            <mxRectangle width="30" height="30" as="alternateBounds" />
          </mxGeometry>
        </mxCell>
        <mxCell id="sAAskOqrYEOwbhvDMz5j-222" value="customer_id" style="shape=partialRectangle;connectable=0;fillColor=none;top=0;left=0;bottom=0;right=0;align=left;spacingLeft=6;overflow=hidden;whiteSpace=wrap;html=1;fontSize=14;" vertex="1" parent="sAAskOqrYEOwbhvDMz5j-220">
          <mxGeometry x="30" width="150" height="30" as="geometry">
            <mxRectangle width="150" height="30" as="alternateBounds" />
          </mxGeometry>
        </mxCell>
        <mxCell id="sAAskOqrYEOwbhvDMz5j-223" style="shape=tableRow;horizontal=0;startSize=0;swimlaneHead=0;swimlaneBody=0;fillColor=none;collapsible=0;dropTarget=0;points=[[0,0.5],[1,0.5]];portConstraint=eastwest;top=0;left=0;right=0;bottom=0;fontSize=14;" vertex="1" parent="sAAskOqrYEOwbhvDMz5j-210">
          <mxGeometry y="150" width="180" height="30" as="geometry" />
        </mxCell>
        <mxCell id="sAAskOqrYEOwbhvDMz5j-224" value="&lt;b&gt;FK&lt;/b&gt;" style="shape=partialRectangle;connectable=0;fillColor=none;top=0;left=0;bottom=0;right=0;editable=1;overflow=hidden;whiteSpace=wrap;html=1;fontSize=14;" vertex="1" parent="sAAskOqrYEOwbhvDMz5j-223">
          <mxGeometry width="30" height="30" as="geometry">
            <mxRectangle width="30" height="30" as="alternateBounds" />
          </mxGeometry>
        </mxCell>
        <mxCell id="sAAskOqrYEOwbhvDMz5j-225" value="store_location_id" style="shape=partialRectangle;connectable=0;fillColor=none;top=0;left=0;bottom=0;right=0;align=left;spacingLeft=6;overflow=hidden;whiteSpace=wrap;html=1;fontSize=14;" vertex="1" parent="sAAskOqrYEOwbhvDMz5j-223">
          <mxGeometry x="30" width="150" height="30" as="geometry">
            <mxRectangle width="150" height="30" as="alternateBounds" />
          </mxGeometry>
        </mxCell>
        <mxCell id="dOjjuZIPTsSL6ZQOH95Y-1" style="shape=tableRow;horizontal=0;startSize=0;swimlaneHead=0;swimlaneBody=0;fillColor=none;collapsible=0;dropTarget=0;points=[[0,0.5],[1,0.5]];portConstraint=eastwest;top=0;left=0;right=0;bottom=0;fontSize=14;" vertex="1" parent="sAAskOqrYEOwbhvDMz5j-210">
          <mxGeometry y="180" width="180" height="30" as="geometry" />
        </mxCell>
        <mxCell id="dOjjuZIPTsSL6ZQOH95Y-2" value="&lt;b&gt;FK&lt;/b&gt;" style="shape=partialRectangle;connectable=0;fillColor=none;top=0;left=0;bottom=0;right=0;editable=1;overflow=hidden;whiteSpace=wrap;html=1;fontSize=14;" vertex="1" parent="dOjjuZIPTsSL6ZQOH95Y-1">
          <mxGeometry width="30" height="30" as="geometry">
            <mxRectangle width="30" height="30" as="alternateBounds" />
          </mxGeometry>
        </mxCell>
        <mxCell id="dOjjuZIPTsSL6ZQOH95Y-3" value="product_id" style="shape=partialRectangle;connectable=0;fillColor=none;top=0;left=0;bottom=0;right=0;align=left;spacingLeft=6;overflow=hidden;whiteSpace=wrap;html=1;fontSize=14;" vertex="1" parent="dOjjuZIPTsSL6ZQOH95Y-1">
          <mxGeometry x="30" width="150" height="30" as="geometry">
            <mxRectangle width="150" height="30" as="alternateBounds" />
          </mxGeometry>
        </mxCell>
        <mxCell id="sAAskOqrYEOwbhvDMz5j-226" style="shape=tableRow;horizontal=0;startSize=0;swimlaneHead=0;swimlaneBody=0;fillColor=none;collapsible=0;dropTarget=0;points=[[0,0.5],[1,0.5]];portConstraint=eastwest;top=0;left=0;right=0;bottom=0;fontSize=14;" vertex="1" parent="sAAskOqrYEOwbhvDMz5j-210">
          <mxGeometry y="210" width="180" height="30" as="geometry" />
        </mxCell>
        <mxCell id="sAAskOqrYEOwbhvDMz5j-227" style="shape=partialRectangle;connectable=0;fillColor=none;top=0;left=0;bottom=0;right=0;editable=1;overflow=hidden;whiteSpace=wrap;html=1;fontSize=14;" vertex="1" parent="sAAskOqrYEOwbhvDMz5j-226">
          <mxGeometry width="30" height="30" as="geometry">
            <mxRectangle width="30" height="30" as="alternateBounds" />
          </mxGeometry>
        </mxCell>
        <mxCell id="sAAskOqrYEOwbhvDMz5j-228" value="shipped_quantity" style="shape=partialRectangle;connectable=0;fillColor=none;top=0;left=0;bottom=0;right=0;align=left;spacingLeft=6;overflow=hidden;whiteSpace=wrap;html=1;fontSize=14;" vertex="1" parent="sAAskOqrYEOwbhvDMz5j-226">
          <mxGeometry x="30" width="150" height="30" as="geometry">
            <mxRectangle width="150" height="30" as="alternateBounds" />
          </mxGeometry>
        </mxCell>
        <mxCell id="sAAskOqrYEOwbhvDMz5j-229" style="shape=tableRow;horizontal=0;startSize=0;swimlaneHead=0;swimlaneBody=0;fillColor=none;collapsible=0;dropTarget=0;points=[[0,0.5],[1,0.5]];portConstraint=eastwest;top=0;left=0;right=0;bottom=0;fontSize=14;" vertex="1" parent="sAAskOqrYEOwbhvDMz5j-210">
          <mxGeometry y="240" width="180" height="30" as="geometry" />
        </mxCell>
        <mxCell id="sAAskOqrYEOwbhvDMz5j-230" style="shape=partialRectangle;connectable=0;fillColor=none;top=0;left=0;bottom=0;right=0;editable=1;overflow=hidden;whiteSpace=wrap;html=1;fontSize=14;" vertex="1" parent="sAAskOqrYEOwbhvDMz5j-229">
          <mxGeometry width="30" height="30" as="geometry">
            <mxRectangle width="30" height="30" as="alternateBounds" />
          </mxGeometry>
        </mxCell>
        <mxCell id="sAAskOqrYEOwbhvDMz5j-231" value="cancelled_quantity" style="shape=partialRectangle;connectable=0;fillColor=none;top=0;left=0;bottom=0;right=0;align=left;spacingLeft=6;overflow=hidden;whiteSpace=wrap;html=1;fontSize=14;" vertex="1" parent="sAAskOqrYEOwbhvDMz5j-229">
          <mxGeometry x="30" width="150" height="30" as="geometry">
            <mxRectangle width="150" height="30" as="alternateBounds" />
          </mxGeometry>
        </mxCell>
        <mxCell id="sAAskOqrYEOwbhvDMz5j-232" style="shape=tableRow;horizontal=0;startSize=0;swimlaneHead=0;swimlaneBody=0;fillColor=none;collapsible=0;dropTarget=0;points=[[0,0.5],[1,0.5]];portConstraint=eastwest;top=0;left=0;right=0;bottom=0;fontSize=14;" vertex="1" parent="sAAskOqrYEOwbhvDMz5j-210">
          <mxGeometry y="270" width="180" height="30" as="geometry" />
        </mxCell>
        <mxCell id="sAAskOqrYEOwbhvDMz5j-233" style="shape=partialRectangle;connectable=0;fillColor=none;top=0;left=0;bottom=0;right=0;editable=1;overflow=hidden;whiteSpace=wrap;html=1;fontSize=14;" vertex="1" parent="sAAskOqrYEOwbhvDMz5j-232">
          <mxGeometry width="30" height="30" as="geometry">
            <mxRectangle width="30" height="30" as="alternateBounds" />
          </mxGeometry>
        </mxCell>
        <mxCell id="sAAskOqrYEOwbhvDMz5j-234" value="delivered_quantity" style="shape=partialRectangle;connectable=0;fillColor=none;top=0;left=0;bottom=0;right=0;align=left;spacingLeft=6;overflow=hidden;whiteSpace=wrap;html=1;fontSize=14;" vertex="1" parent="sAAskOqrYEOwbhvDMz5j-232">
          <mxGeometry x="30" width="150" height="30" as="geometry">
            <mxRectangle width="150" height="30" as="alternateBounds" />
          </mxGeometry>
        </mxCell>
        <mxCell id="sAAskOqrYEOwbhvDMz5j-235" style="shape=tableRow;horizontal=0;startSize=0;swimlaneHead=0;swimlaneBody=0;fillColor=none;collapsible=0;dropTarget=0;points=[[0,0.5],[1,0.5]];portConstraint=eastwest;top=0;left=0;right=0;bottom=0;fontSize=14;" vertex="1" parent="sAAskOqrYEOwbhvDMz5j-210">
          <mxGeometry y="300" width="180" height="30" as="geometry" />
        </mxCell>
        <mxCell id="sAAskOqrYEOwbhvDMz5j-236" style="shape=partialRectangle;connectable=0;fillColor=none;top=0;left=0;bottom=0;right=0;editable=1;overflow=hidden;whiteSpace=wrap;html=1;fontSize=14;" vertex="1" parent="sAAskOqrYEOwbhvDMz5j-235">
          <mxGeometry width="30" height="30" as="geometry">
            <mxRectangle width="30" height="30" as="alternateBounds" />
          </mxGeometry>
        </mxCell>
        <mxCell id="sAAskOqrYEOwbhvDMz5j-237" value="&lt;font&gt;delivery_date&lt;/font&gt;" style="shape=partialRectangle;connectable=0;fillColor=none;top=0;left=0;bottom=0;right=0;align=left;spacingLeft=6;overflow=hidden;whiteSpace=wrap;html=1;fontSize=14;" vertex="1" parent="sAAskOqrYEOwbhvDMz5j-235">
          <mxGeometry x="30" width="150" height="30" as="geometry">
            <mxRectangle width="150" height="30" as="alternateBounds" />
          </mxGeometry>
        </mxCell>
        <mxCell id="sAAskOqrYEOwbhvDMz5j-238" style="shape=tableRow;horizontal=0;startSize=0;swimlaneHead=0;swimlaneBody=0;fillColor=none;collapsible=0;dropTarget=0;points=[[0,0.5],[1,0.5]];portConstraint=eastwest;top=0;left=0;right=0;bottom=0;fontSize=14;" vertex="1" parent="sAAskOqrYEOwbhvDMz5j-210">
          <mxGeometry y="330" width="180" height="30" as="geometry" />
        </mxCell>
        <mxCell id="sAAskOqrYEOwbhvDMz5j-239" style="shape=partialRectangle;connectable=0;fillColor=none;top=0;left=0;bottom=0;right=0;editable=1;overflow=hidden;whiteSpace=wrap;html=1;fontSize=14;" vertex="1" parent="sAAskOqrYEOwbhvDMz5j-238">
          <mxGeometry width="30" height="30" as="geometry">
            <mxRectangle width="30" height="30" as="alternateBounds" />
          </mxGeometry>
        </mxCell>
        <mxCell id="sAAskOqrYEOwbhvDMz5j-240" value="ship_date" style="shape=partialRectangle;connectable=0;fillColor=none;top=0;left=0;bottom=0;right=0;align=left;spacingLeft=6;overflow=hidden;whiteSpace=wrap;html=1;fontSize=14;" vertex="1" parent="sAAskOqrYEOwbhvDMz5j-238">
          <mxGeometry x="30" width="150" height="30" as="geometry">
            <mxRectangle width="150" height="30" as="alternateBounds" />
          </mxGeometry>
        </mxCell>
        <mxCell id="sAAskOqrYEOwbhvDMz5j-241" style="shape=tableRow;horizontal=0;startSize=0;swimlaneHead=0;swimlaneBody=0;fillColor=none;collapsible=0;dropTarget=0;points=[[0,0.5],[1,0.5]];portConstraint=eastwest;top=0;left=0;right=0;bottom=0;fontSize=14;" vertex="1" parent="sAAskOqrYEOwbhvDMz5j-210">
          <mxGeometry y="360" width="180" height="30" as="geometry" />
        </mxCell>
        <mxCell id="sAAskOqrYEOwbhvDMz5j-242" style="shape=partialRectangle;connectable=0;fillColor=none;top=0;left=0;bottom=0;right=0;editable=1;overflow=hidden;whiteSpace=wrap;html=1;fontSize=14;" vertex="1" parent="sAAskOqrYEOwbhvDMz5j-241">
          <mxGeometry width="30" height="30" as="geometry">
            <mxRectangle width="30" height="30" as="alternateBounds" />
          </mxGeometry>
        </mxCell>
        <mxCell id="sAAskOqrYEOwbhvDMz5j-243" value="shipping_method" style="shape=partialRectangle;connectable=0;fillColor=none;top=0;left=0;bottom=0;right=0;align=left;spacingLeft=6;overflow=hidden;whiteSpace=wrap;html=1;fontSize=14;" vertex="1" parent="sAAskOqrYEOwbhvDMz5j-241">
          <mxGeometry x="30" width="150" height="30" as="geometry">
            <mxRectangle width="150" height="30" as="alternateBounds" />
          </mxGeometry>
        </mxCell>
        <mxCell id="sAAskOqrYEOwbhvDMz5j-244" style="shape=tableRow;horizontal=0;startSize=0;swimlaneHead=0;swimlaneBody=0;fillColor=none;collapsible=0;dropTarget=0;points=[[0,0.5],[1,0.5]];portConstraint=eastwest;top=0;left=0;right=0;bottom=0;fontSize=14;" vertex="1" parent="sAAskOqrYEOwbhvDMz5j-210">
          <mxGeometry y="390" width="180" height="30" as="geometry" />
        </mxCell>
        <mxCell id="sAAskOqrYEOwbhvDMz5j-245" style="shape=partialRectangle;connectable=0;fillColor=none;top=0;left=0;bottom=0;right=0;editable=1;overflow=hidden;whiteSpace=wrap;html=1;fontSize=14;" vertex="1" parent="sAAskOqrYEOwbhvDMz5j-244">
          <mxGeometry width="30" height="30" as="geometry">
            <mxRectangle width="30" height="30" as="alternateBounds" />
          </mxGeometry>
        </mxCell>
        <mxCell id="sAAskOqrYEOwbhvDMz5j-246" value="tracking_number" style="shape=partialRectangle;connectable=0;fillColor=none;top=0;left=0;bottom=0;right=0;align=left;spacingLeft=6;overflow=hidden;whiteSpace=wrap;html=1;fontSize=14;" vertex="1" parent="sAAskOqrYEOwbhvDMz5j-244">
          <mxGeometry x="30" width="150" height="30" as="geometry">
            <mxRectangle width="150" height="30" as="alternateBounds" />
          </mxGeometry>
        </mxCell>
        <mxCell id="sAAskOqrYEOwbhvDMz5j-247" style="shape=tableRow;horizontal=0;startSize=0;swimlaneHead=0;swimlaneBody=0;fillColor=none;collapsible=0;dropTarget=0;points=[[0,0.5],[1,0.5]];portConstraint=eastwest;top=0;left=0;right=0;bottom=0;fontSize=14;" vertex="1" parent="sAAskOqrYEOwbhvDMz5j-210">
          <mxGeometry y="420" width="180" height="30" as="geometry" />
        </mxCell>
        <mxCell id="sAAskOqrYEOwbhvDMz5j-248" style="shape=partialRectangle;connectable=0;fillColor=none;top=0;left=0;bottom=0;right=0;editable=1;overflow=hidden;whiteSpace=wrap;html=1;fontSize=14;" vertex="1" parent="sAAskOqrYEOwbhvDMz5j-247">
          <mxGeometry width="30" height="30" as="geometry">
            <mxRectangle width="30" height="30" as="alternateBounds" />
          </mxGeometry>
        </mxCell>
        <mxCell id="sAAskOqrYEOwbhvDMz5j-249" value="customer_name" style="shape=partialRectangle;connectable=0;fillColor=none;top=0;left=0;bottom=0;right=0;align=left;spacingLeft=6;overflow=hidden;whiteSpace=wrap;html=1;fontSize=14;" vertex="1" parent="sAAskOqrYEOwbhvDMz5j-247">
          <mxGeometry x="30" width="150" height="30" as="geometry">
            <mxRectangle width="150" height="30" as="alternateBounds" />
          </mxGeometry>
        </mxCell>
        <mxCell id="sAAskOqrYEOwbhvDMz5j-262" style="shape=tableRow;horizontal=0;startSize=0;swimlaneHead=0;swimlaneBody=0;fillColor=none;collapsible=0;dropTarget=0;points=[[0,0.5],[1,0.5]];portConstraint=eastwest;top=0;left=0;right=0;bottom=0;fontSize=14;" vertex="1" parent="sAAskOqrYEOwbhvDMz5j-210">
          <mxGeometry y="450" width="180" height="30" as="geometry" />
        </mxCell>
        <mxCell id="sAAskOqrYEOwbhvDMz5j-263" style="shape=partialRectangle;connectable=0;fillColor=none;top=0;left=0;bottom=0;right=0;editable=1;overflow=hidden;whiteSpace=wrap;html=1;fontSize=14;" vertex="1" parent="sAAskOqrYEOwbhvDMz5j-262">
          <mxGeometry width="30" height="30" as="geometry">
            <mxRectangle width="30" height="30" as="alternateBounds" />
          </mxGeometry>
        </mxCell>
        <mxCell id="sAAskOqrYEOwbhvDMz5j-264" value="ship_to_address" style="shape=partialRectangle;connectable=0;fillColor=none;top=0;left=0;bottom=0;right=0;align=left;spacingLeft=6;overflow=hidden;whiteSpace=wrap;html=1;fontSize=14;" vertex="1" parent="sAAskOqrYEOwbhvDMz5j-262">
          <mxGeometry x="30" width="150" height="30" as="geometry">
            <mxRectangle width="150" height="30" as="alternateBounds" />
          </mxGeometry>
        </mxCell>
        <mxCell id="sAAskOqrYEOwbhvDMz5j-259" style="shape=tableRow;horizontal=0;startSize=0;swimlaneHead=0;swimlaneBody=0;fillColor=none;collapsible=0;dropTarget=0;points=[[0,0.5],[1,0.5]];portConstraint=eastwest;top=0;left=0;right=0;bottom=0;fontSize=14;" vertex="1" parent="sAAskOqrYEOwbhvDMz5j-210">
          <mxGeometry y="480" width="180" height="30" as="geometry" />
        </mxCell>
        <mxCell id="sAAskOqrYEOwbhvDMz5j-260" style="shape=partialRectangle;connectable=0;fillColor=none;top=0;left=0;bottom=0;right=0;editable=1;overflow=hidden;whiteSpace=wrap;html=1;fontSize=14;" vertex="1" parent="sAAskOqrYEOwbhvDMz5j-259">
          <mxGeometry width="30" height="30" as="geometry">
            <mxRectangle width="30" height="30" as="alternateBounds" />
          </mxGeometry>
        </mxCell>
        <mxCell id="sAAskOqrYEOwbhvDMz5j-261" value="ship_to_state" style="shape=partialRectangle;connectable=0;fillColor=none;top=0;left=0;bottom=0;right=0;align=left;spacingLeft=6;overflow=hidden;whiteSpace=wrap;html=1;fontSize=14;" vertex="1" parent="sAAskOqrYEOwbhvDMz5j-259">
          <mxGeometry x="30" width="150" height="30" as="geometry">
            <mxRectangle width="150" height="30" as="alternateBounds" />
          </mxGeometry>
        </mxCell>
        <mxCell id="sAAskOqrYEOwbhvDMz5j-256" style="shape=tableRow;horizontal=0;startSize=0;swimlaneHead=0;swimlaneBody=0;fillColor=none;collapsible=0;dropTarget=0;points=[[0,0.5],[1,0.5]];portConstraint=eastwest;top=0;left=0;right=0;bottom=0;fontSize=14;" vertex="1" parent="sAAskOqrYEOwbhvDMz5j-210">
          <mxGeometry y="510" width="180" height="30" as="geometry" />
        </mxCell>
        <mxCell id="sAAskOqrYEOwbhvDMz5j-257" style="shape=partialRectangle;connectable=0;fillColor=none;top=0;left=0;bottom=0;right=0;editable=1;overflow=hidden;whiteSpace=wrap;html=1;fontSize=14;" vertex="1" parent="sAAskOqrYEOwbhvDMz5j-256">
          <mxGeometry width="30" height="30" as="geometry">
            <mxRectangle width="30" height="30" as="alternateBounds" />
          </mxGeometry>
        </mxCell>
        <mxCell id="sAAskOqrYEOwbhvDMz5j-258" value="ship_to_country" style="shape=partialRectangle;connectable=0;fillColor=none;top=0;left=0;bottom=0;right=0;align=left;spacingLeft=6;overflow=hidden;whiteSpace=wrap;html=1;fontSize=14;" vertex="1" parent="sAAskOqrYEOwbhvDMz5j-256">
          <mxGeometry x="30" width="150" height="30" as="geometry">
            <mxRectangle width="150" height="30" as="alternateBounds" />
          </mxGeometry>
        </mxCell>
        <mxCell id="sAAskOqrYEOwbhvDMz5j-253" style="shape=tableRow;horizontal=0;startSize=0;swimlaneHead=0;swimlaneBody=0;fillColor=none;collapsible=0;dropTarget=0;points=[[0,0.5],[1,0.5]];portConstraint=eastwest;top=0;left=0;right=0;bottom=0;fontSize=14;" vertex="1" parent="sAAskOqrYEOwbhvDMz5j-210">
          <mxGeometry y="540" width="180" height="30" as="geometry" />
        </mxCell>
        <mxCell id="sAAskOqrYEOwbhvDMz5j-254" style="shape=partialRectangle;connectable=0;fillColor=none;top=0;left=0;bottom=0;right=0;editable=1;overflow=hidden;whiteSpace=wrap;html=1;fontSize=14;" vertex="1" parent="sAAskOqrYEOwbhvDMz5j-253">
          <mxGeometry width="30" height="30" as="geometry">
            <mxRectangle width="30" height="30" as="alternateBounds" />
          </mxGeometry>
        </mxCell>
        <mxCell id="sAAskOqrYEOwbhvDMz5j-255" value="ship_from_address" style="shape=partialRectangle;connectable=0;fillColor=none;top=0;left=0;bottom=0;right=0;align=left;spacingLeft=6;overflow=hidden;whiteSpace=wrap;html=1;fontSize=14;" vertex="1" parent="sAAskOqrYEOwbhvDMz5j-253">
          <mxGeometry x="30" width="150" height="30" as="geometry">
            <mxRectangle width="150" height="30" as="alternateBounds" />
          </mxGeometry>
        </mxCell>
        <mxCell id="sAAskOqrYEOwbhvDMz5j-271" style="shape=tableRow;horizontal=0;startSize=0;swimlaneHead=0;swimlaneBody=0;fillColor=none;collapsible=0;dropTarget=0;points=[[0,0.5],[1,0.5]];portConstraint=eastwest;top=0;left=0;right=0;bottom=0;fontSize=14;" vertex="1" parent="sAAskOqrYEOwbhvDMz5j-210">
          <mxGeometry y="570" width="180" height="30" as="geometry" />
        </mxCell>
        <mxCell id="sAAskOqrYEOwbhvDMz5j-272" style="shape=partialRectangle;connectable=0;fillColor=none;top=0;left=0;bottom=0;right=0;editable=1;overflow=hidden;whiteSpace=wrap;html=1;fontSize=14;" vertex="1" parent="sAAskOqrYEOwbhvDMz5j-271">
          <mxGeometry width="30" height="30" as="geometry">
            <mxRectangle width="30" height="30" as="alternateBounds" />
          </mxGeometry>
        </mxCell>
        <mxCell id="sAAskOqrYEOwbhvDMz5j-273" value="ship_from_state" style="shape=partialRectangle;connectable=0;fillColor=none;top=0;left=0;bottom=0;right=0;align=left;spacingLeft=6;overflow=hidden;whiteSpace=wrap;html=1;fontSize=14;" vertex="1" parent="sAAskOqrYEOwbhvDMz5j-271">
          <mxGeometry x="30" width="150" height="30" as="geometry">
            <mxRectangle width="150" height="30" as="alternateBounds" />
          </mxGeometry>
        </mxCell>
        <mxCell id="sAAskOqrYEOwbhvDMz5j-268" style="shape=tableRow;horizontal=0;startSize=0;swimlaneHead=0;swimlaneBody=0;fillColor=none;collapsible=0;dropTarget=0;points=[[0,0.5],[1,0.5]];portConstraint=eastwest;top=0;left=0;right=0;bottom=0;fontSize=14;" vertex="1" parent="sAAskOqrYEOwbhvDMz5j-210">
          <mxGeometry y="600" width="180" height="30" as="geometry" />
        </mxCell>
        <mxCell id="sAAskOqrYEOwbhvDMz5j-269" style="shape=partialRectangle;connectable=0;fillColor=none;top=0;left=0;bottom=0;right=0;editable=1;overflow=hidden;whiteSpace=wrap;html=1;fontSize=14;" vertex="1" parent="sAAskOqrYEOwbhvDMz5j-268">
          <mxGeometry width="30" height="30" as="geometry">
            <mxRectangle width="30" height="30" as="alternateBounds" />
          </mxGeometry>
        </mxCell>
        <mxCell id="sAAskOqrYEOwbhvDMz5j-270" value="ship_from_country" style="shape=partialRectangle;connectable=0;fillColor=none;top=0;left=0;bottom=0;right=0;align=left;spacingLeft=6;overflow=hidden;whiteSpace=wrap;html=1;fontSize=14;" vertex="1" parent="sAAskOqrYEOwbhvDMz5j-268">
          <mxGeometry x="30" width="150" height="30" as="geometry">
            <mxRectangle width="150" height="30" as="alternateBounds" />
          </mxGeometry>
        </mxCell>
        <mxCell id="dOjjuZIPTsSL6ZQOH95Y-12" value="" style="edgeStyle=entityRelationEdgeStyle;fontSize=12;html=1;endArrow=ERoneToMany;startArrow=ERzeroToOne;rounded=0;entryX=0;entryY=0.333;entryDx=0;entryDy=0;entryPerimeter=0;exitX=1;exitY=0.5;exitDx=0;exitDy=0;" edge="1" parent="1" source="sAAskOqrYEOwbhvDMz5j-162" target="sAAskOqrYEOwbhvDMz5j-217">
          <mxGeometry width="100" height="100" relative="1" as="geometry">
            <mxPoint x="190" y="-870" as="sourcePoint" />
            <mxPoint x="290" y="-970" as="targetPoint" />
          </mxGeometry>
        </mxCell>
        <mxCell id="dOjjuZIPTsSL6ZQOH95Y-13" value="" style="edgeStyle=entityRelationEdgeStyle;fontSize=12;html=1;endArrow=ERoneToMany;startArrow=ERzeroToOne;rounded=0;exitX=1;exitY=0.5;exitDx=0;exitDy=0;entryX=0;entryY=0.5;entryDx=0;entryDy=0;jumpStyle=gap;" edge="1" parent="1" source="sAAskOqrYEOwbhvDMz5j-100" target="sAAskOqrYEOwbhvDMz5j-168">
          <mxGeometry width="100" height="100" relative="1" as="geometry">
            <mxPoint x="-120" y="-880" as="sourcePoint" />
            <mxPoint x="-20" y="-980" as="targetPoint" />
          </mxGeometry>
        </mxCell>
        <mxCell id="dOjjuZIPTsSL6ZQOH95Y-14" value="" style="edgeStyle=entityRelationEdgeStyle;fontSize=12;html=1;endArrow=ERoneToMany;startArrow=ERzeroToOne;rounded=0;exitX=1;exitY=0.5;exitDx=0;exitDy=0;entryX=0;entryY=0.5;entryDx=0;entryDy=0;jumpStyle=gap;" edge="1" parent="1" source="sAAskOqrYEOwbhvDMz5j-12" target="sAAskOqrYEOwbhvDMz5j-171">
          <mxGeometry width="100" height="100" relative="1" as="geometry">
            <mxPoint x="-80" y="-685" as="sourcePoint" />
            <mxPoint x="-20" y="-950" as="targetPoint" />
            <Array as="points">
              <mxPoint x="-70" y="-750" />
            </Array>
          </mxGeometry>
        </mxCell>
        <mxCell id="dOjjuZIPTsSL6ZQOH95Y-15" value="" style="edgeStyle=entityRelationEdgeStyle;fontSize=12;html=1;endArrow=ERoneToMany;startArrow=ERzeroToMany;rounded=0;exitX=1;exitY=0.5;exitDx=0;exitDy=0;jumpStyle=gap;" edge="1" parent="1" source="sAAskOqrYEOwbhvDMz5j-38">
          <mxGeometry width="100" height="100" relative="1" as="geometry">
            <mxPoint x="-60" y="-800" as="sourcePoint" />
            <mxPoint x="40" y="-900" as="targetPoint" />
          </mxGeometry>
        </mxCell>
        <mxCell id="dOjjuZIPTsSL6ZQOH95Y-16" value="" style="edgeStyle=entityRelationEdgeStyle;fontSize=12;html=1;endArrow=ERoneToMany;startArrow=ERzeroToOne;rounded=0;exitX=1;exitY=0.5;exitDx=0;exitDy=0;entryX=0;entryY=0.5;entryDx=0;entryDy=0;jumpStyle=gap;" edge="1" parent="1" source="sAAskOqrYEOwbhvDMz5j-131">
          <mxGeometry width="100" height="100" relative="1" as="geometry">
            <mxPoint x="-80" y="-660" as="sourcePoint" />
            <mxPoint x="40" y="-930" as="targetPoint" />
            <Array as="points">
              <mxPoint x="-40" y="-860" />
            </Array>
          </mxGeometry>
        </mxCell>
        <mxCell id="dOjjuZIPTsSL6ZQOH95Y-17" value="gold_fact_store_products" style="shape=table;startSize=30;container=1;collapsible=1;childLayout=tableLayout;fixedRows=1;rowLines=0;fontStyle=1;align=center;resizeLast=1;html=1;rounded=1;fillColor=#dae8fc;gradientColor=#7ea6e0;strokeColor=#6c8ebf;" vertex="1" parent="1">
          <mxGeometry x="40" y="-580" width="180" height="360" as="geometry" />
        </mxCell>
        <mxCell id="dOjjuZIPTsSL6ZQOH95Y-18" value="" style="shape=tableRow;horizontal=0;startSize=0;swimlaneHead=0;swimlaneBody=0;fillColor=none;collapsible=0;dropTarget=0;points=[[0,0.5],[1,0.5]];portConstraint=eastwest;top=0;left=0;right=0;bottom=1;fontSize=14;" vertex="1" parent="dOjjuZIPTsSL6ZQOH95Y-17">
          <mxGeometry y="30" width="180" height="30" as="geometry" />
        </mxCell>
        <mxCell id="dOjjuZIPTsSL6ZQOH95Y-19" value="CK" style="shape=partialRectangle;connectable=0;fillColor=none;top=0;left=0;bottom=0;right=0;fontStyle=1;overflow=hidden;whiteSpace=wrap;html=1;fontSize=14;" vertex="1" parent="dOjjuZIPTsSL6ZQOH95Y-18">
          <mxGeometry width="30" height="30" as="geometry">
            <mxRectangle width="30" height="30" as="alternateBounds" />
          </mxGeometry>
        </mxCell>
        <mxCell id="dOjjuZIPTsSL6ZQOH95Y-20" value="store_product_key" style="shape=partialRectangle;connectable=0;fillColor=none;top=0;left=0;bottom=0;right=0;align=left;spacingLeft=6;fontStyle=5;overflow=hidden;whiteSpace=wrap;html=1;fontSize=14;" vertex="1" parent="dOjjuZIPTsSL6ZQOH95Y-18">
          <mxGeometry x="30" width="150" height="30" as="geometry">
            <mxRectangle width="150" height="30" as="alternateBounds" />
          </mxGeometry>
        </mxCell>
        <mxCell id="dOjjuZIPTsSL6ZQOH95Y-21" value="" style="shape=tableRow;horizontal=0;startSize=0;swimlaneHead=0;swimlaneBody=0;fillColor=none;collapsible=0;dropTarget=0;points=[[0,0.5],[1,0.5]];portConstraint=eastwest;top=0;left=0;right=0;bottom=0;fontSize=14;" vertex="1" parent="dOjjuZIPTsSL6ZQOH95Y-17">
          <mxGeometry y="60" width="180" height="30" as="geometry" />
        </mxCell>
        <mxCell id="dOjjuZIPTsSL6ZQOH95Y-22" value="&lt;b&gt;FK&lt;/b&gt;" style="shape=partialRectangle;connectable=0;fillColor=none;top=0;left=0;bottom=0;right=0;editable=1;overflow=hidden;whiteSpace=wrap;html=1;fontSize=14;" vertex="1" parent="dOjjuZIPTsSL6ZQOH95Y-21">
          <mxGeometry width="30" height="30" as="geometry">
            <mxRectangle width="30" height="30" as="alternateBounds" />
          </mxGeometry>
        </mxCell>
        <mxCell id="dOjjuZIPTsSL6ZQOH95Y-23" value="product_id" style="shape=partialRectangle;connectable=0;fillColor=none;top=0;left=0;bottom=0;right=0;align=left;spacingLeft=6;overflow=hidden;whiteSpace=wrap;html=1;fontSize=14;" vertex="1" parent="dOjjuZIPTsSL6ZQOH95Y-21">
          <mxGeometry x="30" width="150" height="30" as="geometry">
            <mxRectangle width="150" height="30" as="alternateBounds" />
          </mxGeometry>
        </mxCell>
        <mxCell id="dOjjuZIPTsSL6ZQOH95Y-24" value="" style="shape=tableRow;horizontal=0;startSize=0;swimlaneHead=0;swimlaneBody=0;fillColor=none;collapsible=0;dropTarget=0;points=[[0,0.5],[1,0.5]];portConstraint=eastwest;top=0;left=0;right=0;bottom=0;fontSize=14;" vertex="1" parent="dOjjuZIPTsSL6ZQOH95Y-17">
          <mxGeometry y="90" width="180" height="30" as="geometry" />
        </mxCell>
        <mxCell id="dOjjuZIPTsSL6ZQOH95Y-25" value="&lt;b&gt;FK&lt;/b&gt;" style="shape=partialRectangle;connectable=0;fillColor=none;top=0;left=0;bottom=0;right=0;editable=1;overflow=hidden;whiteSpace=wrap;html=1;fontSize=14;" vertex="1" parent="dOjjuZIPTsSL6ZQOH95Y-24">
          <mxGeometry width="30" height="30" as="geometry">
            <mxRectangle width="30" height="30" as="alternateBounds" />
          </mxGeometry>
        </mxCell>
        <mxCell id="dOjjuZIPTsSL6ZQOH95Y-26" value="store_location_id" style="shape=partialRectangle;connectable=0;fillColor=none;top=0;left=0;bottom=0;right=0;align=left;spacingLeft=6;overflow=hidden;whiteSpace=wrap;html=1;fontSize=14;" vertex="1" parent="dOjjuZIPTsSL6ZQOH95Y-24">
          <mxGeometry x="30" width="150" height="30" as="geometry">
            <mxRectangle width="150" height="30" as="alternateBounds" />
          </mxGeometry>
        </mxCell>
        <mxCell id="dOjjuZIPTsSL6ZQOH95Y-27" value="" style="shape=tableRow;horizontal=0;startSize=0;swimlaneHead=0;swimlaneBody=0;fillColor=none;collapsible=0;dropTarget=0;points=[[0,0.5],[1,0.5]];portConstraint=eastwest;top=0;left=0;right=0;bottom=0;fontSize=14;" vertex="1" parent="dOjjuZIPTsSL6ZQOH95Y-17">
          <mxGeometry y="120" width="180" height="30" as="geometry" />
        </mxCell>
        <mxCell id="dOjjuZIPTsSL6ZQOH95Y-28" value="" style="shape=partialRectangle;connectable=0;fillColor=none;top=0;left=0;bottom=0;right=0;editable=1;overflow=hidden;whiteSpace=wrap;html=1;fontSize=14;" vertex="1" parent="dOjjuZIPTsSL6ZQOH95Y-27">
          <mxGeometry width="30" height="30" as="geometry">
            <mxRectangle width="30" height="30" as="alternateBounds" />
          </mxGeometry>
        </mxCell>
        <mxCell id="dOjjuZIPTsSL6ZQOH95Y-29" value="available_quantity" style="shape=partialRectangle;connectable=0;fillColor=none;top=0;left=0;bottom=0;right=0;align=left;spacingLeft=6;overflow=hidden;whiteSpace=wrap;html=1;fontSize=14;" vertex="1" parent="dOjjuZIPTsSL6ZQOH95Y-27">
          <mxGeometry x="30" width="150" height="30" as="geometry">
            <mxRectangle width="150" height="30" as="alternateBounds" />
          </mxGeometry>
        </mxCell>
        <mxCell id="dOjjuZIPTsSL6ZQOH95Y-30" style="shape=tableRow;horizontal=0;startSize=0;swimlaneHead=0;swimlaneBody=0;fillColor=none;collapsible=0;dropTarget=0;points=[[0,0.5],[1,0.5]];portConstraint=eastwest;top=0;left=0;right=0;bottom=0;fontSize=14;" vertex="1" parent="dOjjuZIPTsSL6ZQOH95Y-17">
          <mxGeometry y="150" width="180" height="30" as="geometry" />
        </mxCell>
        <mxCell id="dOjjuZIPTsSL6ZQOH95Y-31" value="" style="shape=partialRectangle;connectable=0;fillColor=none;top=0;left=0;bottom=0;right=0;editable=1;overflow=hidden;whiteSpace=wrap;html=1;fontSize=14;" vertex="1" parent="dOjjuZIPTsSL6ZQOH95Y-30">
          <mxGeometry width="30" height="30" as="geometry">
            <mxRectangle width="30" height="30" as="alternateBounds" />
          </mxGeometry>
        </mxCell>
        <mxCell id="dOjjuZIPTsSL6ZQOH95Y-32" value="blocked_quantity" style="shape=partialRectangle;connectable=0;fillColor=none;top=0;left=0;bottom=0;right=0;align=left;spacingLeft=6;overflow=hidden;whiteSpace=wrap;html=1;fontSize=14;" vertex="1" parent="dOjjuZIPTsSL6ZQOH95Y-30">
          <mxGeometry x="30" width="150" height="30" as="geometry">
            <mxRectangle width="150" height="30" as="alternateBounds" />
          </mxGeometry>
        </mxCell>
        <mxCell id="dOjjuZIPTsSL6ZQOH95Y-33" style="shape=tableRow;horizontal=0;startSize=0;swimlaneHead=0;swimlaneBody=0;fillColor=none;collapsible=0;dropTarget=0;points=[[0,0.5],[1,0.5]];portConstraint=eastwest;top=0;left=0;right=0;bottom=0;fontSize=14;" vertex="1" parent="dOjjuZIPTsSL6ZQOH95Y-17">
          <mxGeometry y="180" width="180" height="30" as="geometry" />
        </mxCell>
        <mxCell id="dOjjuZIPTsSL6ZQOH95Y-34" value="" style="shape=partialRectangle;connectable=0;fillColor=none;top=0;left=0;bottom=0;right=0;editable=1;overflow=hidden;whiteSpace=wrap;html=1;fontSize=14;" vertex="1" parent="dOjjuZIPTsSL6ZQOH95Y-33">
          <mxGeometry width="30" height="30" as="geometry">
            <mxRectangle width="30" height="30" as="alternateBounds" />
          </mxGeometry>
        </mxCell>
        <mxCell id="dOjjuZIPTsSL6ZQOH95Y-35" value="reserved_quantity" style="shape=partialRectangle;connectable=0;fillColor=none;top=0;left=0;bottom=0;right=0;align=left;spacingLeft=6;overflow=hidden;whiteSpace=wrap;html=1;fontSize=14;" vertex="1" parent="dOjjuZIPTsSL6ZQOH95Y-33">
          <mxGeometry x="30" width="150" height="30" as="geometry">
            <mxRectangle width="150" height="30" as="alternateBounds" />
          </mxGeometry>
        </mxCell>
        <mxCell id="dOjjuZIPTsSL6ZQOH95Y-36" style="shape=tableRow;horizontal=0;startSize=0;swimlaneHead=0;swimlaneBody=0;fillColor=none;collapsible=0;dropTarget=0;points=[[0,0.5],[1,0.5]];portConstraint=eastwest;top=0;left=0;right=0;bottom=0;fontSize=14;" vertex="1" parent="dOjjuZIPTsSL6ZQOH95Y-17">
          <mxGeometry y="210" width="180" height="30" as="geometry" />
        </mxCell>
        <mxCell id="dOjjuZIPTsSL6ZQOH95Y-37" style="shape=partialRectangle;connectable=0;fillColor=none;top=0;left=0;bottom=0;right=0;editable=1;overflow=hidden;whiteSpace=wrap;html=1;fontSize=14;" vertex="1" parent="dOjjuZIPTsSL6ZQOH95Y-36">
          <mxGeometry width="30" height="30" as="geometry">
            <mxRectangle width="30" height="30" as="alternateBounds" />
          </mxGeometry>
        </mxCell>
        <mxCell id="dOjjuZIPTsSL6ZQOH95Y-38" value="unreserved_quantity" style="shape=partialRectangle;connectable=0;fillColor=none;top=0;left=0;bottom=0;right=0;align=left;spacingLeft=6;overflow=hidden;whiteSpace=wrap;html=1;fontSize=14;" vertex="1" parent="dOjjuZIPTsSL6ZQOH95Y-36">
          <mxGeometry x="30" width="150" height="30" as="geometry">
            <mxRectangle width="150" height="30" as="alternateBounds" />
          </mxGeometry>
        </mxCell>
        <mxCell id="dOjjuZIPTsSL6ZQOH95Y-39" style="shape=tableRow;horizontal=0;startSize=0;swimlaneHead=0;swimlaneBody=0;fillColor=none;collapsible=0;dropTarget=0;points=[[0,0.5],[1,0.5]];portConstraint=eastwest;top=0;left=0;right=0;bottom=0;fontSize=14;" vertex="1" parent="dOjjuZIPTsSL6ZQOH95Y-17">
          <mxGeometry y="240" width="180" height="30" as="geometry" />
        </mxCell>
        <mxCell id="dOjjuZIPTsSL6ZQOH95Y-40" style="shape=partialRectangle;connectable=0;fillColor=none;top=0;left=0;bottom=0;right=0;editable=1;overflow=hidden;whiteSpace=wrap;html=1;fontSize=14;" vertex="1" parent="dOjjuZIPTsSL6ZQOH95Y-39">
          <mxGeometry width="30" height="30" as="geometry">
            <mxRectangle width="30" height="30" as="alternateBounds" />
          </mxGeometry>
        </mxCell>
        <mxCell id="dOjjuZIPTsSL6ZQOH95Y-41" value="store_address" style="shape=partialRectangle;connectable=0;fillColor=none;top=0;left=0;bottom=0;right=0;align=left;spacingLeft=6;overflow=hidden;whiteSpace=wrap;html=1;fontSize=14;" vertex="1" parent="dOjjuZIPTsSL6ZQOH95Y-39">
          <mxGeometry x="30" width="150" height="30" as="geometry">
            <mxRectangle width="150" height="30" as="alternateBounds" />
          </mxGeometry>
        </mxCell>
        <mxCell id="dOjjuZIPTsSL6ZQOH95Y-42" style="shape=tableRow;horizontal=0;startSize=0;swimlaneHead=0;swimlaneBody=0;fillColor=none;collapsible=0;dropTarget=0;points=[[0,0.5],[1,0.5]];portConstraint=eastwest;top=0;left=0;right=0;bottom=0;fontSize=14;" vertex="1" parent="dOjjuZIPTsSL6ZQOH95Y-17">
          <mxGeometry y="270" width="180" height="30" as="geometry" />
        </mxCell>
        <mxCell id="dOjjuZIPTsSL6ZQOH95Y-43" style="shape=partialRectangle;connectable=0;fillColor=none;top=0;left=0;bottom=0;right=0;editable=1;overflow=hidden;whiteSpace=wrap;html=1;fontSize=14;" vertex="1" parent="dOjjuZIPTsSL6ZQOH95Y-42">
          <mxGeometry width="30" height="30" as="geometry">
            <mxRectangle width="30" height="30" as="alternateBounds" />
          </mxGeometry>
        </mxCell>
        <mxCell id="dOjjuZIPTsSL6ZQOH95Y-44" value="store_city" style="shape=partialRectangle;connectable=0;fillColor=none;top=0;left=0;bottom=0;right=0;align=left;spacingLeft=6;overflow=hidden;whiteSpace=wrap;html=1;fontSize=14;" vertex="1" parent="dOjjuZIPTsSL6ZQOH95Y-42">
          <mxGeometry x="30" width="150" height="30" as="geometry">
            <mxRectangle width="150" height="30" as="alternateBounds" />
          </mxGeometry>
        </mxCell>
        <mxCell id="dOjjuZIPTsSL6ZQOH95Y-45" style="shape=tableRow;horizontal=0;startSize=0;swimlaneHead=0;swimlaneBody=0;fillColor=none;collapsible=0;dropTarget=0;points=[[0,0.5],[1,0.5]];portConstraint=eastwest;top=0;left=0;right=0;bottom=0;fontSize=14;" vertex="1" parent="dOjjuZIPTsSL6ZQOH95Y-17">
          <mxGeometry y="300" width="180" height="30" as="geometry" />
        </mxCell>
        <mxCell id="dOjjuZIPTsSL6ZQOH95Y-46" style="shape=partialRectangle;connectable=0;fillColor=none;top=0;left=0;bottom=0;right=0;editable=1;overflow=hidden;whiteSpace=wrap;html=1;fontSize=14;" vertex="1" parent="dOjjuZIPTsSL6ZQOH95Y-45">
          <mxGeometry width="30" height="30" as="geometry">
            <mxRectangle width="30" height="30" as="alternateBounds" />
          </mxGeometry>
        </mxCell>
        <mxCell id="dOjjuZIPTsSL6ZQOH95Y-47" value="&lt;font style=&quot;font-size: 12px;&quot;&gt;store_country&lt;/font&gt;" style="shape=partialRectangle;connectable=0;fillColor=none;top=0;left=0;bottom=0;right=0;align=left;spacingLeft=6;overflow=hidden;whiteSpace=wrap;html=1;fontSize=14;" vertex="1" parent="dOjjuZIPTsSL6ZQOH95Y-45">
          <mxGeometry x="30" width="150" height="30" as="geometry">
            <mxRectangle width="150" height="30" as="alternateBounds" />
          </mxGeometry>
        </mxCell>
        <mxCell id="dOjjuZIPTsSL6ZQOH95Y-48" style="shape=tableRow;horizontal=0;startSize=0;swimlaneHead=0;swimlaneBody=0;fillColor=none;collapsible=0;dropTarget=0;points=[[0,0.5],[1,0.5]];portConstraint=eastwest;top=0;left=0;right=0;bottom=0;fontSize=14;" vertex="1" parent="dOjjuZIPTsSL6ZQOH95Y-17">
          <mxGeometry y="330" width="180" height="30" as="geometry" />
        </mxCell>
        <mxCell id="dOjjuZIPTsSL6ZQOH95Y-49" style="shape=partialRectangle;connectable=0;fillColor=none;top=0;left=0;bottom=0;right=0;editable=1;overflow=hidden;whiteSpace=wrap;html=1;fontSize=14;" vertex="1" parent="dOjjuZIPTsSL6ZQOH95Y-48">
          <mxGeometry width="30" height="30" as="geometry">
            <mxRectangle width="30" height="30" as="alternateBounds" />
          </mxGeometry>
        </mxCell>
        <mxCell id="dOjjuZIPTsSL6ZQOH95Y-50" value="store_postcode" style="shape=partialRectangle;connectable=0;fillColor=none;top=0;left=0;bottom=0;right=0;align=left;spacingLeft=6;overflow=hidden;whiteSpace=wrap;html=1;fontSize=14;" vertex="1" parent="dOjjuZIPTsSL6ZQOH95Y-48">
          <mxGeometry x="30" width="150" height="30" as="geometry">
            <mxRectangle width="150" height="30" as="alternateBounds" />
          </mxGeometry>
        </mxCell>
        <mxCell id="dOjjuZIPTsSL6ZQOH95Y-60" value="" style="edgeStyle=entityRelationEdgeStyle;fontSize=12;html=1;endArrow=ERzeroToMany;endFill=1;startArrow=ERzeroToMany;rounded=0;exitX=1;exitY=0.5;exitDx=0;exitDy=0;" edge="1" parent="1" source="sAAskOqrYEOwbhvDMz5j-100">
          <mxGeometry width="100" height="100" relative="1" as="geometry">
            <mxPoint x="-60" y="-380" as="sourcePoint" />
            <mxPoint x="40" y="-480" as="targetPoint" />
          </mxGeometry>
        </mxCell>
      </root>
    </mxGraphModel>
  </diagram>
</mxfile>
